<?xml version="1.0" encoding="UTF-8"?>
<svg height="16px" viewBox="0 0 16 16" width="16px" xmlns="http://www.w3.org/2000/svg">
    <g fill="#241f31">
        <path d="m 7 0 v 4 c -1.109375 0 -2 0.890625 -2 2 v 10 h 2 v -10 c 0 -1.109375 0.890625 -2 2 -2 v -4 z m 0 0"/>
        <path d="m 11 0 v 4 c -1.109375 0 -2 0.890625 -2 2 v 10 h 6 v -10 c 0 -1.109375 -0.890625 -2 -2 -2 v -4 z m 0 0"/>
        <path d="m 3 0 v 4 c -1.109375 0 -2 0.890625 -2 2 v 10 h 2 v -10 c 0 -1.109375 0.890625 -2 2 -2 v -4 z m 0 0"/>
    </g>
</svg>
