<?xml version="1.0" encoding="UTF-8" standalone="no"?>
<svg
   xmlns:dc="http://purl.org/dc/elements/1.1/"
   xmlns:cc="http://creativecommons.org/ns#"
   xmlns:rdf="http://www.w3.org/1999/02/22-rdf-syntax-ns#"
   xmlns:svg="http://www.w3.org/2000/svg"
   xmlns="http://www.w3.org/2000/svg"
   xmlns:sodipodi="http://sodipodi.sourceforge.net/DTD/sodipodi-0.dtd"
   xmlns:inkscape="http://www.inkscape.org/namespaces/inkscape"
   inkscape:export-ydpi="96"
   inkscape:export-xdpi="96"
   inkscape:export-filename="Template.png"
   width="16"
   height="16"
   id="svg11300"
   sodipodi:version="0.32"
   inkscape:version="1.0.1 (3bc2e813f5, 2020-09-07)"
   sodipodi:docname="symbolic.svg"
   inkscape:output_extension="org.inkscape.output.svg.inkscape"
   version="1.0"
   style="display:inline;enable-background:new"
   viewBox="0 0 16 16">
  <title
     id="title4162">Bottles Icon Template</title>
  <defs
     id="defs3" />
  <sodipodi:namedview
     stroke="#ef2929"
     fill="#f57900"
     id="base"
     pagecolor="#ffffff"
     bordercolor="#666666"
     borderopacity="0.25490196"
     inkscape:pageopacity="0.0"
     inkscape:pageshadow="2"
     inkscape:zoom="16"
     inkscape:cx="-10.12081"
     inkscape:cy="12.194335"
     inkscape:current-layer="layer1"
     showgrid="false"
     inkscape:grid-bbox="true"
     inkscape:document-units="px"
     inkscape:showpageshadow="false"
     inkscape:window-width="2289"
     inkscape:window-height="994"
     inkscape:window-x="180"
     inkscape:window-y="41"
     width="400px"
     height="300px"
     inkscape:snap-nodes="true"
     inkscape:snap-bbox="true"
     objecttolerance="7"
     gridtolerance="12"
     guidetolerance="13"
     inkscape:window-maximized="0"
     inkscape:pagecheckerboard="false"
     showguides="false"
     inkscape:guide-bbox="true"
     inkscape:locked="false"
     inkscape:measure-start="0,0"
     inkscape:measure-end="0,0"
     inkscape:object-nodes="true"
     inkscape:bbox-nodes="true"
     inkscape:snap-global="true"
     inkscape:object-paths="true"
     inkscape:snap-intersection-paths="true"
     inkscape:snap-bbox-edge-midpoints="true"
     inkscape:snap-bbox-midpoints="true"
     showborder="true"
     inkscape:snap-center="true"
     inkscape:snap-object-midpoints="true"
     inkscape:snap-midpoints="true"
     inkscape:snap-smooth-nodes="true"
     inkscape:snap-text-baseline="true"
     inkscape:document-rotation="0">
    <inkscape:grid
       type="xygrid"
       id="grid5883"
       spacingx="2"
       spacingy="2"
       enabled="true"
       visible="true"
       empspacing="4"
       originx="-163.84589"
       originy="-1.6676848" />
    <sodipodi:guide
       position="-99.845895,-105.6677"
       orientation="0,1"
       id="guide1073"
       inkscape:locked="false"
       inkscape:label=""
       inkscape:color="rgb(0,0,255)" />
    <sodipodi:guide
       position="-151.8459,-49.667701"
       orientation="1,0"
       id="guide1075"
       inkscape:locked="false"
       inkscape:label=""
       inkscape:color="rgb(0,0,255)" />
    <sodipodi:guide
       position="-99.845895,-9.6677007"
       orientation="0,1"
       id="guide1099"
       inkscape:locked="false"
       inkscape:label=""
       inkscape:color="rgb(0,0,255)" />
    <sodipodi:guide
       position="-99.845895,14.3323"
       orientation="0,1"
       id="guide993"
       inkscape:locked="false"
       inkscape:label=""
       inkscape:color="rgb(0,0,255)" />
    <sodipodi:guide
       position="-59.845895,-49.667701"
       orientation="1,0"
       id="guide995"
       inkscape:locked="false"
       inkscape:label=""
       inkscape:color="rgb(0,0,255)" />
    <sodipodi:guide
       position="-163.8459,-49.667701"
       orientation="1,0"
       id="guide867"
       inkscape:locked="false"
       inkscape:label=""
       inkscape:color="rgb(0,0,255)" />
    <sodipodi:guide
       position="-43.845894,-49.667701"
       orientation="1,0"
       id="guide869"
       inkscape:locked="false"
       inkscape:label=""
       inkscape:color="rgb(0,0,255)" />
    <sodipodi:guide
       position="-99.845895,2.3322995"
       orientation="0,1"
       id="guide871"
       inkscape:locked="false"
       inkscape:label=""
       inkscape:color="rgb(0,0,255)" />
    <inkscape:grid
       type="xygrid"
       id="grid873"
       spacingx="1"
       spacingy="1"
       empspacing="8"
       color="#000000"
       opacity="0.49019608"
       empcolor="#000000"
       empopacity="0.08627451"
       dotted="true"
       originx="-163.84589"
       originy="-1.6676848" />
    <sodipodi:guide
       position="-139.8459,-49.667701"
       orientation="1,0"
       id="guide877"
       inkscape:locked="false"
       inkscape:label=""
       inkscape:color="rgb(0,0,255)" />
    <sodipodi:guide
       position="-47.845894,-49.667701"
       orientation="1,0"
       id="guide879"
       inkscape:locked="false"
       inkscape:label=""
       inkscape:color="rgb(0,0,255)" />
    <sodipodi:guide
       position="-99.845895,6.3322995"
       orientation="0,1"
       id="guide881"
       inkscape:locked="false"
       inkscape:label=""
       inkscape:color="rgb(0,0,255)" />
    <sodipodi:guide
       position="-99.845895,-101.6677"
       orientation="0,1"
       id="guide883"
       inkscape:locked="false"
       inkscape:label=""
       inkscape:color="rgb(0,0,255)" />
    <sodipodi:guide
       position="-155.8459,-49.667701"
       orientation="1,0"
       id="guide885"
       inkscape:locked="false"
       inkscape:label=""
       inkscape:color="rgb(0,0,255)" />
    <sodipodi:guide
       position="-35.845894,-49.667701"
       orientation="1,0"
       id="guide887"
       inkscape:locked="false"
       inkscape:label=""
       inkscape:color="rgb(0,0,255)" />
    <sodipodi:guide
       position="-99.845895,-113.6677"
       orientation="0,1"
       id="guide897"
       inkscape:locked="false"
       inkscape:label=""
       inkscape:color="rgb(0,0,255)" />
    <sodipodi:guide
       position="-99.845895,-89.667702"
       orientation="0,1"
       id="guide899"
       inkscape:locked="false"
       inkscape:label=""
       inkscape:color="rgb(0,0,255)" />
    <sodipodi:guide
       position="92.154107,142.3323"
       orientation="-0.70710678,0.70710678"
       id="guide950"
       inkscape:locked="false"
       inkscape:label=""
       inkscape:color="rgb(0,0,255)" />
    <sodipodi:guide
       position="-99.845895,-49.667701"
       orientation="0.70710678,0.70710678"
       id="guide952"
       inkscape:locked="false"
       inkscape:label=""
       inkscape:color="rgb(0,0,255)" />
  </sodipodi:namedview>
  <metadata
     id="metadata4">
    <rdf:RDF>
      <cc:Work
         rdf:about="">
        <dc:format>image/svg+xml</dc:format>
        <dc:type
           rdf:resource="http://purl.org/dc/dcmitype/StillImage" />
        <dc:creator>
          <cc:Agent>
            <dc:title>Marco Montini</dc:title>
          </cc:Agent>
        </dc:creator>
        <dc:source />
        <cc:license
           rdf:resource="http://creativecommons.org/licenses/by-sa/4.0/" />
        <dc:title>Bottles Icon Template</dc:title>
        <dc:subject>
          <rdf:Bag />
        </dc:subject>
        <dc:date />
        <dc:rights>
          <cc:Agent>
            <dc:title />
          </cc:Agent>
        </dc:rights>
        <dc:publisher>
          <cc:Agent>
            <dc:title />
          </cc:Agent>
        </dc:publisher>
        <dc:identifier />
        <dc:relation />
        <dc:language />
        <dc:coverage />
        <dc:description />
        <dc:contributor>
          <cc:Agent>
            <dc:title />
          </cc:Agent>
        </dc:contributor>
      </cc:Work>
      <cc:License
         rdf:about="http://creativecommons.org/licenses/by-sa/4.0/">
        <cc:permits
           rdf:resource="http://creativecommons.org/ns#Reproduction" />
        <cc:permits
           rdf:resource="http://creativecommons.org/ns#Distribution" />
        <cc:requires
           rdf:resource="http://creativecommons.org/ns#Notice" />
        <cc:requires
           rdf:resource="http://creativecommons.org/ns#Attribution" />
        <cc:permits
           rdf:resource="http://creativecommons.org/ns#DerivativeWorks" />
        <cc:requires
           rdf:resource="http://creativecommons.org/ns#ShareAlike" />
      </cc:License>
    </rdf:RDF>
  </metadata>
  <g
     id="layer1"
     inkscape:label="App Icon"
     inkscape:groupmode="layer"
     style="display:inline"
     transform="translate(-163.84589,-173.66768)">
    <g
       id="g153"
       inkscape:label="Side"
       style="display:inline"
       transform="matrix(0.05396338,0,0,0.05396338,164.93232,174.75022)">
      <g
         id="g133"
         inkscape:label="Side Bottle"
         style="display:inline">
        <path
           id="path129"
           style="fill:#2e3436;fill-opacity:1;stroke-width:1.33333"
           d="m 449.31055,74.236328 c -34.00009,-0.09442 -70.99486,5.034132 -81.75,14.083984 -5.03817,4.239337 -5.04604,4.717866 -0.82617,47.798828 1.72134,17.57345 3.65827,38.34061 3.31905,39.22458 10.83238,33.19877 94.77594,14.68197 110.37821,10.75003 17.71551,1.12089 33.4106,-10.34057 36.2168,-15.58398 1.5783,-2.9491 -2.07094,-76.75184 -4.05274,-81.958989 -0.85544,-2.247668 -3.5287,-4.657517 -7.06445,-6.36914 -11.09495,-5.370975 -32.95749,-7.880708 -56.2207,-7.945313 z m 522.13281,0.382813 c -16.33709,0.07304 -31.45064,0.894517 -38.44727,2.521484 -12.35528,2.873052 -21.37741,7.182008 -22.73047,10.857422 -2.55366,6.9361 -5.26089,79.857423 -3.08789,83.173833 31.64294,41.67721 143.04387,50.87691 146.56837,-5.42188 0.1578,-3.80417 1.5181,-19.68216 3.0215,-35.28516 3.4902,-36.224731 3.4791,-37.803099 -0.2676,-41.298824 -4.2241,-3.941109 -14.6875,-7.780207 -30.6367,-11.242188 -10.3897,-2.25522 -33.41511,-3.39859 -54.41994,-3.304687 z M 513.25977,130.0625 c -342.17318,-86.708333 -171.08659,-43.354167 0,0 z m 393.54012,5.14926 c 0,12.48673 -8.93902,164.37868 -10.10458,169.61832 -2.62178,11.78581 -4.91183,13.83547 -42.38086,37.9414 -32.89441,21.16286 -55.81961,44.89231 -66.77734,69.1211 -6.67367,14.75629 -9.56144,35.9829 -11.96289,87.91406 -0.66911,14.46875 -1.47883,26.7694 -1.79883,27.33398 -1.53856,2.71406 2.01068,22.46767 5.29102,29.44532 62.64446,74.7483 256.93109,109.20725 337.79689,29.39062 12.5481,-12.93001 14.1548,-18.99743 19.3711,-73.14258 4.6235,-47.99261 4.2575,-71.61315 -1.3399,-86.66796 -10.0894,-27.13624 -32.3176,-53.83235 -67.3945,-80.93946 -29.6385,-22.90435 -29.2053,-21.387 -23.3203,-81.72656 1.8239,-18.7 10.4718,-108.17902 10.4729,-109.79875 -47.069,-13.73904 -111.31177,-19.81211 -147.85271,-18.48949 z m -537.43845,29.02994 6.14056,62.23657 c 10e-4,1.66235 1.49452,18.32148 3.31836,37.02148 5.98125,61.3263 7.00325,58.26745 -28.82617,86.30078 -31.81819,24.89488 -52.6965,51.0578 -62.73633,78.61524 -7.69838,21.13061 -0.22886,128.66988 10.16992,146.41406 65.32976,119.41287 289.92027,94.46423 346.50586,-18.24414 3.22523,-6.86039 6.83681,-26.7059 5.34375,-29.36133 -0.29116,-0.5178 -1.10425,-12.8165 -1.80664,-27.33203 -2.55228,-52.74293 -5.35564,-73.29125 -12.00781,-88 -11.79512,-26.08033 -37.18829,-51.05071 -77.29687,-76.00977 -25.82439,-16.07018 -29.52859,-19.72967 -31.94532,-31.56445 -1.19599,-5.85684 -9.411,-140.73542 -9.43544,-153.78258 -26.3616,-60.097639 -89.29304,18.6069 -147.42387,13.70617 z m 277.53323,324.38811 c -88.59534,93.60968 -299.40385,123.17889 -355.63285,64.12917 -1.73862,-2.05661 33.64737,264.15968 33.61904,265.23712 -0.10845,4.13745 37.48879,288.9605 39.24609,297.3144 9.94936,47.2977 53.22582,80.3726 113.46875,86.7207 68.68961,7.2383 139.45493,-21.8075 167.63868,-68.8085 9.74734,-16.2553 13.01803,-27.2458 13.9082,-46.7383 0.85239,-18.6652 -3.37322,-272.12447 -4.77344,-286.31837 z M 775.57422,499.80664 768.68164,799.5 c -1.37106,12.07784 -5.72793,267.7442 -4.89648,287.3359 2.51733,59.3195 59.7453,106.9187 138.41992,115.1309 79.48012,8.2963 144.22762,-27.5169 156.66792,-86.6563 1.7368,-8.2562 39.3412,-293.05057 39.2579,-297.31441 -0.02,-1.00616 38.4853,-291.23385 36.4883,-288.91312 -137.89052,29.09186 -304.38564,69.13704 -359.04498,-29.27633 z"
           transform="scale(0.17999986)"
           sodipodi:nodetypes="sssccsssssscccsssscccsssscccssssccccsssccssssscccccssssccccsssccc" />
      </g>
      <g
         id="g145"
         inkscape:label="Clip" />
    </g>
    <g
       id="g175"
       inkscape:label="Center"
       style="display:inline"
       transform="matrix(0.05396338,0,0,0.05396338,164.93961,174.75022)">
      <g
         id="g159"
         inkscape:label="Center Bottle"
         style="display:inline">
        <path
           id="path155"
           style="display:inline;fill:#909090;fill-opacity:1;stroke-width:1.33333"
           d="m 710.79492,145.64648 c -36.14301,0.10689 -72.13058,6.32617 -81.76953,18.58008 -2.67695,3.4032 -2.72207,4.50127 -1.9668,49.04297 l 0.77344,45.56445 c 39.28954,68.8811 154.91888,41.19622 167.33203,0 l 0.77539,-45.63476 0.77735,-45.63477 -3.21875,-3.82422 C 783.23657,151.54517 746.93793,145.5396 710.79492,145.64648 Z m -83.45934,83.94073 3.32262,128.77217 c 1.18728,63.27386 3.10759,57.82718 -27.82422,78.85351 -52.99577,36.02466 -79.83345,67.03885 -89.66992,103.62109 -2.66092,9.8961 6.45014,240.63203 8.98406,261.39761 13.6269,182.61105 348.82072,268.59001 375.0625,62.3047 2.534,-20.76558 15.28621,-313.80622 12.62532,-323.70232 -9.90279,-36.82884 -38.87933,-70.0229 -91.33399,-104.625 -28.93069,-19.08432 -27.94143,-15.02702 -26.26172,-77.75781 l 3.36911,-125.82383 c -61.01497,-8.8119 -110.28221,-4.60595 -168.27376,-3.04012 z M 511.81155,608.79933 530.44531,957.5 c 0.30179,5.64756 16.12379,267.9048 18.32422,290.666 2.60046,26.8987 7.76372,43.169 19.12695,60.2617 24.55086,36.9297 66.49555,61.1809 118.26954,68.3809 25.39802,3.532 65.12849,-0.6291 90.26562,-9.4551 58.80121,-20.6461 92.1852,-61.1302 97.73242,-118.5195 2.2465,-23.2416 18.80785,-285.5955 18.39063,-291.334 l 16.7071,-333.5865 c -98.27381,86.26438 -343.84135,51.19061 -397.45024,-15.11417 z"
           transform="scale(0.17999986)"
           sodipodi:nodetypes="ssccccccsccssccssscccssssscccc" />
      </g>
      <g
         id="g171"
         inkscape:label="Clip" />
    </g>
  </g>
</svg>
