<?xml version="1.0" encoding="UTF-8"?>
<svg height="128px" viewBox="0 0 128 128" width="128px" xmlns="http://www.w3.org/2000/svg" xmlns:xlink="http://www.w3.org/1999/xlink">
    <linearGradient id="a" gradientUnits="userSpaceOnUse" x1="49" x2="79" y1="67.999878" y2="67.999878">
        <stop offset="0" stop-color="#deddda"/>
        <stop offset="0.25" stop-color="#f6f5f4"/>
        <stop offset="0.75" stop-color="#ffffff"/>
        <stop offset="1" stop-color="#deddda" stop-opacity="0.854902"/>
    </linearGradient>
    <linearGradient id="b" gradientTransform="matrix(1.002882 0 0 1 -0.141199 0)" gradientUnits="userSpaceOnUse" x1="49" x2="79" y1="31.453125" y2="31.453125">
        <stop offset="0" stop-color="#c0bfbc"/>
        <stop offset="0.25" stop-color="#deddda"/>
        <stop offset="0.75" stop-color="#f6f5f4"/>
        <stop offset="1" stop-color="#c0bfbc"/>
    </linearGradient>
    <linearGradient id="c" gradientUnits="userSpaceOnUse" x1="12" x2="49" y1="42.916992" y2="42.916992">
        <stop offset="0" stop-color="#c0bfbc"/>
        <stop offset="0.25" stop-color="#deddda"/>
        <stop offset="0.75" stop-color="#deddda"/>
        <stop offset="1" stop-color="#c0bfbc"/>
    </linearGradient>
    <linearGradient id="d" gradientUnits="userSpaceOnUse">
        <stop offset="0" stop-color="#1a5fb4"/>
        <stop offset="0.25" stop-color="#1c71d8"/>
        <stop offset="0.75" stop-color="#3584e4"/>
        <stop offset="1" stop-color="#1a5fb4"/>
    </linearGradient>
    <linearGradient id="e" x1="49.000001" x2="78.999997" xlink:href="#d" y1="21.471176" y2="21.471176"/>
    <linearGradient id="f" x1="49.000114" x2="79.000107" xlink:href="#d" y1="67.999875" y2="67.999875"/>
    <linearGradient id="g" gradientUnits="userSpaceOnUse" x1="12.000113" x2="49.000111" y1="74.969727" y2="74.969727">
        <stop offset="0" stop-color="#ffa348"/>
        <stop offset="0.25" stop-color="#ffbe6f"/>
        <stop offset="0.75" stop-color="#ffbe6f"/>
        <stop offset="1" stop-color="#ffa348"/>
    </linearGradient>
    <linearGradient id="h" gradientUnits="userSpaceOnUse" x1="79.00045" x2="116.000443" y1="75.564209" y2="75.564209">
        <stop offset="0" stop-color="#e01b24"/>
        <stop offset="0.25" stop-color="#ed333b"/>
        <stop offset="0.75" stop-color="#f66151"/>
        <stop offset="1" stop-color="#e01b24"/>
    </linearGradient>
    <linearGradient id="i" gradientUnits="userSpaceOnUse" x1="24" x2="37" y1="14" y2="14">
        <stop offset="0" stop-color="#33d17a"/>
        <stop offset="0.388454" stop-color="#57e389"/>
        <stop offset="0.75" stop-color="#57e389"/>
        <stop offset="1" stop-color="#2ec27e" stop-opacity="0.854902"/>
    </linearGradient>
    <linearGradient id="j" gradientUnits="userSpaceOnUse" x1="79" x2="116" y1="35.961914" y2="35.961914">
        <stop offset="0" stop-color="#3d3846"/>
        <stop offset="0.25" stop-color="#5e5c64"/>
        <stop offset="0.75" stop-color="#77767b"/>
        <stop offset="1" stop-color="#77767b"/>
    </linearGradient>
    <linearGradient id="k" gradientUnits="userSpaceOnUse">
        <stop offset="0" stop-color="#9a9996"/>
        <stop offset="0.25" stop-color="#c0bfbc"/>
        <stop offset="0.75" stop-color="#deddda"/>
        <stop offset="1" stop-color="#9a9996"/>
    </linearGradient>
    <linearGradient id="l" x1="79" x2="116" xlink:href="#k" y1="31.472427" y2="31.472427"/>
    <linearGradient id="m" gradientTransform="matrix(0.999963 0 0 0.814473 0.003815 -120.794434)" x1="78.999084" x2="116.000443" xlink:href="#k" y1="273.23233" y2="273.23233"/>
    <path d="m 54.546875 24 s -5.546875 13.609375 -5.546875 14.515625 v 73.484375 h 30 v -73.488281 c 0 0.003906 -5 -14.511719 -5 -14.511719 z m 0 0" fill="url(#a)"/>
    <path d="m 54 24 s -5 13.609375 -5 14.511719 h 30 c 0 -0.488281 -5 -14.511719 -5 -14.511719 z m 0 0" fill="url(#b)"/>
    <path d="m 12 47.894531 c 0.496094 0.015625 37 0 37 0 c 0 -12.816406 -11.84375 -23.894531 -12 -31.894531 h -13 c 0 8 -12.003906 19.078125 -12 31.894531 z m 0 0" fill="url(#c)"/>
    <path d="m 79 112 h -30 v 4 h 30 z m 0 0" fill="#c0bfbc"/>
    <path d="m 54 18.941406 v 5.058594 h 20 v -5.058594 z m 0 0" fill="url(#e)"/>
    <path d="m 64 56.035156 c -7.5 0 -7.5 9.457032 -7.5 9.457032 h -7.5 v 14.46875 h 30 v -14.46875 h -7.5 s 0 -9.457032 -7.5 -9.457032 z m 0 2 s 5.453125 6.652344 3.457031 9.941406 c -1.996093 3.289063 -4.921875 3.289063 -6.917969 0 c -1.996093 -3.289062 3.460938 -9.941406 3.460938 -9.941406 z m 0 0" fill="url(#f)"/>
    <path d="m 49 112 h -29.574219 c -0.125 0 -0.253906 -0.003906 -0.378906 -0.011719 c -0.128906 -0.003906 -0.253906 -0.015625 -0.378906 -0.03125 c -0.128907 -0.011719 -0.25 -0.027343 -0.375 -0.050781 c -0.125 -0.019531 -0.242188 -0.042969 -0.367188 -0.070312 c -0.121093 -0.023438 -0.242187 -0.054688 -0.359375 -0.089844 c -0.117187 -0.03125 -0.234375 -0.066406 -0.351562 -0.105469 c -0.234375 -0.078125 -0.460938 -0.167969 -0.683594 -0.269531 c -0.222656 -0.097656 -0.441406 -0.210938 -0.652344 -0.335938 c -0.207031 -0.121094 -0.410156 -0.253906 -0.609375 -0.398437 s -0.390625 -0.296875 -0.570312 -0.460938 c -0.183594 -0.160156 -0.363281 -0.332031 -0.527344 -0.515625 c -0.167969 -0.179687 -0.328125 -0.371094 -0.480469 -0.566406 c -0.152344 -0.199219 -0.292968 -0.402344 -0.425781 -0.617188 c -0.132813 -0.210937 -0.257813 -0.429687 -0.371094 -0.65625 c -0.113281 -0.226562 -0.21875 -0.460937 -0.3125 -0.703124 c -0.09375 -0.238282 -0.179687 -0.480469 -0.25 -0.734376 c -0.070312 -0.25 -0.132812 -0.503906 -0.179687 -0.765624 c -0.050782 -0.261719 -0.089844 -0.527344 -0.113282 -0.796876 c -0.023437 -0.269531 -0.039062 -0.542968 -0.039062 -0.820312 v 3.582031 v 0.003907 c 0 0.289062 0.015625 0.578124 0.042969 0.859374 v 0.003907 c 0.027343 0.28125 0.070312 0.558593 0.125 0.832031 c 0.050781 0.273438 0.121093 0.542969 0.199219 0.804688 v 0.003906 c 0.078124 0.261718 0.171874 0.515625 0.273437 0.769531 c 0.101563 0.25 0.21875 0.496094 0.347656 0.734375 c 0.375 0.710938 0.851563 1.363281 1.40625 1.933594 c 1.480469 1.519531 3.527344 2.460937 5.800781 2.472656 h 28.804688 z m 0 0" fill="#e66100"/>
    <path d="m 21.40625 24 c -0.003906 0.003906 -0.007812 0.007812 -0.011719 0.011719 c -3.53125 6.804687 -9.398437 14.914062 -9.394531 23.878906 v 56.109375 c 0 0.277344 0.015625 0.550781 0.039062 0.820312 c 0.023438 0.269532 0.0625 0.535157 0.109376 0.796876 c 0.050781 0.261718 0.113281 0.515624 0.183593 0.769531 c 0.070313 0.25 0.15625 0.492187 0.25 0.730469 c 0.09375 0.242187 0.199219 0.476562 0.3125 0.703124 c 0.113281 0.226563 0.238281 0.445313 0.371094 0.660157 c 0.132813 0.210937 0.273437 0.414062 0.425781 0.613281 s 0.3125 0.386719 0.476563 0.570312 c 0.167969 0.179688 0.347656 0.351563 0.527343 0.511719 c 0.183594 0.164063 0.375 0.316407 0.574219 0.460938 s 0.402344 0.277343 0.609375 0.402343 c 0.210938 0.121094 0.429688 0.234376 0.652344 0.335938 c 0.222656 0.097656 0.449219 0.1875 0.683594 0.265625 c 0.117187 0.039063 0.234375 0.074219 0.351562 0.109375 c 0.117188 0.03125 0.238282 0.0625 0.359375 0.085938 c 0.125 0.027343 0.242188 0.050781 0.367188 0.070312 c 0.125 0.023438 0.246093 0.039062 0.371093 0.050781 c 0.128907 0.015625 0.253907 0.027344 0.378907 0.03125 c 0.128906 0.007813 0.257812 0.011719 0.382812 0.011719 h 29.574219 v -64.109375 c 0 -8.964844 -5.789062 -17.074219 -9.324219 -23.878906 c -0.003906 -0.003907 -0.007812 -0.007813 -0.011719 -0.011719 z m 0 0" fill="url(#g)"/>
    <path d="m 87 36.945312 c -4.253906 2.078126 -8 6.710938 -8 11.527344 v 67.527344 h 28.804688 c 4.542968 -0.019531 8.195312 -3.765625 8.195312 -8.414062 v -59.113282 c 0 -4.828125 -3.730469 -9.453125 -8 -11.527344 z m 0 0" fill="url(#h)"/>
    <path d="m 24 12 h 13 v 4 h -13 z m 0 0" fill="url(#i)"/>
    <path d="m 116 104 c 0 4.433594 -3.3125 8 -7.425781 8 h -29.574219 v 4 h 28.804688 c 4.542968 -0.019531 8.195312 -3.765625 8.195312 -8.414062 z m 0 0" fill="#c01c28"/>
    <path d="m 87 34.945312 h 21 v 2.03125 h -21 z m 0 0" fill="url(#j)"/>
    <path d="m 87 28 h 21 v 6.945312 h -21 z m 0 0" fill="url(#l)"/>
    <path d="m 104 99.492188 h 12 v 4.507812 h -12 z m 0 0" fill="url(#m)"/>
    <path d="m 30.5 54 c -5.523438 0 -10 4.476562 -10 10 s 4.476562 10 10 10 s 10 -4.476562 10 -10 s -4.476562 -10 -10 -10 z m 0 0" fill="#33d17a" fill-opacity="0.854902"/>
</svg>
