<?xml version="1.0" encoding="UTF-8"?>
<svg xmlns="http://www.w3.org/2000/svg" xmlns:xlink="http://www.w3.org/1999/xlink" width="48pt" height="48pt" viewBox="0 0 48 48" version="1.1">
<defs>
<radialGradient id="radial0" gradientUnits="userSpaceOnUse" cx="0" cy="0" fx="0" fy="0" r="1" gradientTransform="matrix(20.599281,0,0,2.247191,23.970067,44.195416)">
<stop offset="0" style="stop-color:rgb(0%,0%,0%);stop-opacity:0.2;"/>
<stop offset="1" style="stop-color:rgb(0%,0%,0%);stop-opacity:0;"/>
</radialGradient>
<filter id="alpha" filterUnits="objectBoundingBox" x="0%" y="0%" width="100%" height="100%">
  <feColorMatrix type="matrix" in="SourceGraphic" values="0 0 0 0 1 0 0 0 0 1 0 0 0 0 1 0 0 0 1 0"/>
</filter>
<mask id="mask0">
  <g filter="url(#alpha)">
<rect x="0" y="0" width="48" height="48" style="fill:rgb(0%,0%,0%);fill-opacity:0.4;stroke:none;"/>
  </g>
</mask>
<radialGradient id="radial1" gradientUnits="userSpaceOnUse" cx="0" cy="0" fx="0" fy="0" r="1" gradientTransform="matrix(5.332369,0,0,0.936333,38.864989,44.382742)">
<stop offset="0" style="stop-color:rgb(9.411765%,9.411765%,9.411765%);stop-opacity:1;"/>
<stop offset="1" style="stop-color:rgb(9.411765%,9.411765%,9.411765%);stop-opacity:0;"/>
</radialGradient>
<radialGradient id="radial2" gradientUnits="userSpaceOnUse" cx="0" cy="0" fx="0" fy="0" r="1" gradientTransform="matrix(-5.332369,0,0,-0.936333,9.075056,44.382742)">
<stop offset="0" style="stop-color:rgb(9.411765%,9.411765%,9.411765%);stop-opacity:1;"/>
<stop offset="1" style="stop-color:rgb(9.411765%,9.411765%,9.411765%);stop-opacity:0;"/>
</radialGradient>
<linearGradient id="linear0" gradientUnits="userSpaceOnUse" x1="0" y1="0" x2="1" y2="0" gradientTransform="matrix(0.000000000000000458,-1.880225,7.481321,0.000000000000000115,25.09636,45.326472)">
<stop offset="0" style="stop-color:rgb(9.411765%,9.411765%,9.411765%);stop-opacity:0;"/>
<stop offset="0.5" style="stop-color:rgb(9.411765%,9.411765%,9.411765%);stop-opacity:1;"/>
<stop offset="1" style="stop-color:rgb(9.411765%,9.411765%,9.411765%);stop-opacity:0;"/>
</linearGradient>
<clipPath id="clip1">
  <rect x="0" y="0" width="48" height="48"/>
</clipPath>
<g id="surface5" clip-path="url(#clip1)">
<path style=" stroke:none;fill-rule:evenodd;fill:url(#radial1);" d="M 38.871094 43.445312 L 44.195312 43.445312 L 44.195312 45.320312 L 38.871094 45.320312 Z M 38.871094 43.445312 "/>
<path style=" stroke:none;fill-rule:evenodd;fill:url(#radial2);" d="M 3.746094 43.445312 L 9.066406 43.445312 L 9.066406 45.320312 L 3.746094 45.320312 Z M 3.746094 43.445312 "/>
<path style=" stroke:none;fill-rule:evenodd;fill:url(#linear0);" d="M 9.066406 43.445312 L 38.871094 43.445312 L 38.871094 45.320312 L 9.066406 45.320312 Z M 9.066406 43.445312 "/>
</g>
<radialGradient id="radial3" gradientUnits="userSpaceOnUse" cx="0" cy="0" fx="0" fy="0" r="1" gradientTransform="matrix(0.000000195641,44.947236,-44.947236,0.000000195641,23.970067,5.882706)">
<stop offset="0" style="stop-color:rgb(98.039216%,98.039216%,98.039216%);stop-opacity:1;"/>
<stop offset="1" style="stop-color:rgb(88.235294%,88.235294%,88.235294%);stop-opacity:1;"/>
</radialGradient>
<linearGradient id="linear1" gradientUnits="userSpaceOnUse" x1="0" y1="0" x2="1" y2="0" gradientTransform="matrix(0.000000000000025539,417.089,-417.089,0.000000000000025539,266.667,69.7897)">
<stop offset="0" style="stop-color:rgb(100%,100%,100%);stop-opacity:1;"/>
<stop offset="0.03" style="stop-color:rgb(100%,100%,100%);stop-opacity:0.235294;"/>
<stop offset="0.96" style="stop-color:rgb(100%,100%,100%);stop-opacity:0.156863;"/>
<stop offset="1" style="stop-color:rgb(100%,100%,100%);stop-opacity:0.392157;"/>
</linearGradient>
<linearGradient id="linear2" gradientUnits="userSpaceOnUse" x1="0" y1="0" x2="1" y2="0" gradientTransform="matrix(2.453555,1.325016,-1.325016,2.453555,17.475326,12.666247)">
<stop offset="0" style="stop-color:rgb(52.156863%,37.647059%,59.215686%);stop-opacity:1;"/>
<stop offset="1" style="stop-color:rgb(32.156863%,23.137255%,36.078431%);stop-opacity:1;"/>
</linearGradient>
<linearGradient id="linear3" gradientUnits="userSpaceOnUse" x1="0" y1="0" x2="1" y2="0" gradientTransform="matrix(6.492081,13.863461,-14.530517,6.194058,15.09582,21.743281)">
<stop offset="0" style="stop-color:rgb(29.803922%,21.568627%,33.72549%);stop-opacity:1;"/>
<stop offset="1" style="stop-color:rgb(16.862745%,12.156863%,19.215686%);stop-opacity:1;"/>
</linearGradient>
<radialGradient id="radial4" gradientUnits="userSpaceOnUse" cx="0" cy="0" fx="0" fy="0" r="1" gradientTransform="matrix(131.622,18.5364,-192.305,12.6871,176.633,240.517)">
<stop offset="0" style="stop-color:rgb(34.901961%,25.098039%,39.607843%);stop-opacity:1;"/>
<stop offset="1" style="stop-color:rgb(16.078431%,11.372549%,18.039216%);stop-opacity:1;"/>
</radialGradient>
<linearGradient id="linear4" gradientUnits="userSpaceOnUse" x1="0" y1="0" x2="1" y2="0" gradientTransform="matrix(76.768,0,0,26.7404,169.525,241.894)">
<stop offset="0" style="stop-color:rgb(34.901961%,25.098039%,39.607843%);stop-opacity:1;"/>
<stop offset="1" style="stop-color:rgb(16.078431%,11.372549%,18.039216%);stop-opacity:1;"/>
</linearGradient>
<radialGradient id="radial5" gradientUnits="userSpaceOnUse" cx="0" cy="0" fx="0" fy="0" r="1" gradientTransform="matrix(76.768,0,0,26.7404,169.525,238.647)">
<stop offset="0" style="stop-color:rgb(100%,100%,100%);stop-opacity:0;"/>
<stop offset="0.4" style="stop-color:rgb(100%,100%,100%);stop-opacity:0.109804;"/>
<stop offset="0.85" style="stop-color:rgb(100%,100%,100%);stop-opacity:0.403922;"/>
<stop offset="0.93" style="stop-color:rgb(100%,100%,100%);stop-opacity:0.113725;"/>
<stop offset="1" style="stop-color:rgb(100%,100%,100%);stop-opacity:0;"/>
</radialGradient>
<linearGradient id="linear5" gradientUnits="userSpaceOnUse" x1="0" y1="0" x2="1" y2="0" gradientTransform="matrix(12.628764,23.479371,-23.479371,12.628764,15.099865,16.89564)">
<stop offset="0" style="stop-color:rgb(0%,0%,0%);stop-opacity:0;"/>
<stop offset="1" style="stop-color:rgb(34.901961%,25.098039%,39.607843%);stop-opacity:1;"/>
</linearGradient>
<linearGradient id="linear6" gradientUnits="userSpaceOnUse" x1="0" y1="0" x2="1" y2="0" gradientTransform="matrix(70.3912,0,0,269.529,172.649,271.66)">
<stop offset="0" style="stop-color:rgb(100%,100%,100%);stop-opacity:0;"/>
<stop offset="0.77" style="stop-color:rgb(100%,100%,100%);stop-opacity:0.121569;"/>
<stop offset="0.87" style="stop-color:rgb(100%,100%,100%);stop-opacity:0.231373;"/>
<stop offset="1" style="stop-color:rgb(56.862745%,56.862745%,56.862745%);stop-opacity:0;"/>
</linearGradient>
<linearGradient id="linear7" gradientUnits="userSpaceOnUse" x1="0" y1="0" x2="1" y2="0" gradientTransform="matrix(2.035326,0,0,12.891416,15.713798,28.587775)">
<stop offset="0" style="stop-color:rgb(100%,100%,100%);stop-opacity:0.270588;"/>
<stop offset="1" style="stop-color:rgb(0%,0%,0%);stop-opacity:0;"/>
</linearGradient>
<linearGradient id="linear8" gradientUnits="userSpaceOnUse" x1="0" y1="0" x2="1" y2="0" gradientTransform="matrix(3.860126,1.766364,-1.766364,3.860126,17.10427,16.868764)">
<stop offset="0" style="stop-color:rgb(100%,100%,100%);stop-opacity:0.74902;"/>
<stop offset="1" style="stop-color:rgb(65.098039%,65.098039%,65.098039%);stop-opacity:0;"/>
</linearGradient>
<linearGradient id="linear9" gradientUnits="userSpaceOnUse" x1="0" y1="0" x2="1" y2="0" gradientTransform="matrix(2.453555,1.325016,-1.325016,2.453555,28.74409,12.666247)">
<stop offset="0" style="stop-color:rgb(52.156863%,37.647059%,59.215686%);stop-opacity:1;"/>
<stop offset="1" style="stop-color:rgb(32.156863%,23.137255%,36.078431%);stop-opacity:1;"/>
</linearGradient>
<linearGradient id="linear10" gradientUnits="userSpaceOnUse" x1="0" y1="0" x2="1" y2="0" gradientTransform="matrix(6.492081,13.863461,-14.530517,6.194058,26.374831,21.743281)">
<stop offset="0" style="stop-color:rgb(29.803922%,21.568627%,33.72549%);stop-opacity:1;"/>
<stop offset="1" style="stop-color:rgb(16.862745%,12.156863%,19.215686%);stop-opacity:1;"/>
</linearGradient>
<radialGradient id="radial6" gradientUnits="userSpaceOnUse" cx="0" cy="0" fx="0" fy="0" r="1" gradientTransform="matrix(131.622,18.5364,-192.305,12.6871,302.112,240.517)">
<stop offset="0" style="stop-color:rgb(34.901961%,25.098039%,39.607843%);stop-opacity:1;"/>
<stop offset="1" style="stop-color:rgb(16.078431%,11.372549%,18.039216%);stop-opacity:1;"/>
</radialGradient>
<linearGradient id="linear11" gradientUnits="userSpaceOnUse" x1="0" y1="0" x2="1" y2="0" gradientTransform="matrix(76.768,0,0,26.7404,295.004,241.894)">
<stop offset="0" style="stop-color:rgb(34.901961%,25.098039%,39.607843%);stop-opacity:1;"/>
<stop offset="1" style="stop-color:rgb(16.078431%,11.372549%,18.039216%);stop-opacity:1;"/>
</linearGradient>
<radialGradient id="radial7" gradientUnits="userSpaceOnUse" cx="0" cy="0" fx="0" fy="0" r="1" gradientTransform="matrix(76.768,0,0,26.7404,295.004,238.647)">
<stop offset="0" style="stop-color:rgb(100%,100%,100%);stop-opacity:0;"/>
<stop offset="0.4" style="stop-color:rgb(100%,100%,100%);stop-opacity:0.109804;"/>
<stop offset="0.85" style="stop-color:rgb(100%,100%,100%);stop-opacity:0.403922;"/>
<stop offset="0.93" style="stop-color:rgb(100%,100%,100%);stop-opacity:0.113725;"/>
<stop offset="1" style="stop-color:rgb(100%,100%,100%);stop-opacity:0;"/>
</radialGradient>
<linearGradient id="linear12" gradientUnits="userSpaceOnUse" x1="0" y1="0" x2="1" y2="0" gradientTransform="matrix(12.628764,23.479371,-23.479371,12.628764,26.383551,16.89564)">
<stop offset="0" style="stop-color:rgb(0%,0%,0%);stop-opacity:0;"/>
<stop offset="1" style="stop-color:rgb(34.901961%,25.098039%,39.607843%);stop-opacity:1;"/>
</linearGradient>
<linearGradient id="linear13" gradientUnits="userSpaceOnUse" x1="0" y1="0" x2="1" y2="0" gradientTransform="matrix(70.3912,0,0,269.529,298.128,271.66)">
<stop offset="0" style="stop-color:rgb(100%,100%,100%);stop-opacity:0;"/>
<stop offset="0.77" style="stop-color:rgb(100%,100%,100%);stop-opacity:0.121569;"/>
<stop offset="0.87" style="stop-color:rgb(100%,100%,100%);stop-opacity:0.231373;"/>
<stop offset="1" style="stop-color:rgb(56.862745%,56.862745%,56.862745%);stop-opacity:0;"/>
</linearGradient>
<linearGradient id="linear14" gradientUnits="userSpaceOnUse" x1="0" y1="0" x2="1" y2="0" gradientTransform="matrix(2.035326,0,0,12.891416,26.992809,28.587775)">
<stop offset="0" style="stop-color:rgb(100%,100%,100%);stop-opacity:0.270588;"/>
<stop offset="1" style="stop-color:rgb(0%,0%,0%);stop-opacity:0;"/>
</linearGradient>
<linearGradient id="linear15" gradientUnits="userSpaceOnUse" x1="0" y1="0" x2="1" y2="0" gradientTransform="matrix(3.860126,1.766364,-1.766364,3.860126,28.383281,16.868764)">
<stop offset="0" style="stop-color:rgb(100%,100%,100%);stop-opacity:0.74902;"/>
<stop offset="1" style="stop-color:rgb(65.098039%,65.098039%,65.098039%);stop-opacity:0;"/>
</linearGradient>
<linearGradient id="linear16" gradientUnits="userSpaceOnUse" x1="0" y1="0" x2="1" y2="0" gradientTransform="matrix(2.74267,1.661816,-1.661816,2.74267,22.852584,11.399461)">
<stop offset="0" style="stop-color:rgb(100%,5.098039%,5.098039%);stop-opacity:1;"/>
<stop offset="1" style="stop-color:rgb(63.921569%,0%,0%);stop-opacity:1;"/>
</linearGradient>
<linearGradient id="linear17" gradientUnits="userSpaceOnUse" x1="0" y1="0" x2="1" y2="0" gradientTransform="matrix(7.203227,16.122157,-16.122157,7.203227,20.304629,21.657258)">
<stop offset="0" style="stop-color:rgb(87.45098%,0.784314%,1.176471%);stop-opacity:1;"/>
<stop offset="1" style="stop-color:rgb(41.176471%,1.176471%,2.745098%);stop-opacity:1;"/>
</linearGradient>
<radialGradient id="radial8" gradientUnits="userSpaceOnUse" cx="0" cy="0" fx="0" fy="0" r="1" gradientTransform="matrix(146.039,21.5564,-213.37,14.7541,235.533,239.336)">
<stop offset="0" style="stop-color:rgb(99.215686%,0%,0%);stop-opacity:1;"/>
<stop offset="1" style="stop-color:rgb(41.568627%,0%,0%);stop-opacity:1;"/>
</radialGradient>
<linearGradient id="linear18" gradientUnits="userSpaceOnUse" x1="0" y1="0" x2="1" y2="0" gradientTransform="matrix(85.1773,0,0,31.0971,227.646,240.937)">
<stop offset="0" style="stop-color:rgb(99.215686%,0%,0%);stop-opacity:1;"/>
<stop offset="1" style="stop-color:rgb(41.568627%,0%,0%);stop-opacity:1;"/>
</linearGradient>
<radialGradient id="radial9" gradientUnits="userSpaceOnUse" cx="0" cy="0" fx="0" fy="0" r="1" gradientTransform="matrix(85.1773,0,0,31.0971,227.646,237.319)">
<stop offset="0" style="stop-color:rgb(100%,100%,100%);stop-opacity:0;"/>
<stop offset="0.4" style="stop-color:rgb(100%,100%,100%);stop-opacity:0.160784;"/>
<stop offset="0.85" style="stop-color:rgb(100%,100%,100%);stop-opacity:0.588235;"/>
<stop offset="0.93" style="stop-color:rgb(100%,100%,100%);stop-opacity:0.164706;"/>
<stop offset="1" style="stop-color:rgb(100%,100%,100%);stop-opacity:0;"/>
</radialGradient>
<linearGradient id="linear19" gradientUnits="userSpaceOnUse" x1="0" y1="0" x2="1" y2="0" gradientTransform="matrix(20.455461,17.744899,-17.744899,20.455461,17.287191,20.259596)">
<stop offset="0" style="stop-color:rgb(0%,0%,0%);stop-opacity:0;"/>
<stop offset="1" style="stop-color:rgb(65.490196%,9.803922%,27.45098%);stop-opacity:1;"/>
</linearGradient>
<linearGradient id="linear20" gradientUnits="userSpaceOnUse" x1="0" y1="0" x2="1" y2="0" gradientTransform="matrix(81.3319,0,0,314.085,229.573,277.115)">
<stop offset="0" style="stop-color:rgb(100%,100%,100%);stop-opacity:0;"/>
<stop offset="0.73" style="stop-color:rgb(100%,100%,100%);stop-opacity:0.278431;"/>
<stop offset="0.88" style="stop-color:rgb(100%,100%,100%);stop-opacity:0.403922;"/>
<stop offset="1" style="stop-color:rgb(100%,100%,100%);stop-opacity:0;"/>
</linearGradient>
<linearGradient id="linear21" gradientUnits="userSpaceOnUse" x1="0" y1="0" x2="1" y2="0" gradientTransform="matrix(4.851739,2.220117,-2.220117,4.851739,22.311191,16.102202)">
<stop offset="0" style="stop-color:rgb(100%,100%,100%);stop-opacity:0.74902;"/>
<stop offset="1" style="stop-color:rgb(65.098039%,65.098039%,65.098039%);stop-opacity:0;"/>
</linearGradient>
<linearGradient id="linear22" gradientUnits="userSpaceOnUse" x1="0" y1="0" x2="1" y2="0" gradientTransform="matrix(2.035326,0,0,12.891416,20.916674,29.36782)">
<stop offset="0" style="stop-color:rgb(100%,100%,100%);stop-opacity:0.270588;"/>
<stop offset="1" style="stop-color:rgb(0%,0%,0%);stop-opacity:0;"/>
</linearGradient>
</defs>
<g id="surface1">
<path style=" stroke:none;fill-rule:nonzero;fill:url(#radial0);" d="M 44.570312 44.195312 C 44.566406 45.429688 35.269531 46.441406 23.96875 46.441406 C 12.671875 46.441406 3.371094 45.429688 3.371094 44.195312 C 3.371094 42.960938 12.667969 41.949219 23.96875 41.949219 C 35.269531 41.949219 44.570312 42.960938 44.570312 44.195312 Z M 44.570312 44.195312 "/>
<use xlink:href="#surface5" mask="url(#mask0)"/>
<path style=" stroke:none;fill-rule:evenodd;fill:url(#radial3);" d="M 43.070312 7.679688 C 43.070312 6.746094 42.316406 5.992188 41.386719 5.992188 L 6.554688 5.992188 C 5.625 5.992188 4.867188 6.746094 4.867188 7.679688 L 4.867188 42.507812 C 4.867188 43.441406 5.625 44.195312 6.554688 44.195312 L 41.386719 44.195312 C 42.316406 44.195312 43.070312 43.441406 43.070312 42.507812 Z M 43.070312 7.679688 "/>
<path style="fill:none;stroke-width:4.17;stroke-linecap:round;stroke-linejoin:round;stroke:url(#linear1);stroke-miterlimit:4;" d="M 477.071289 85.436523 C 477.071289 76.223633 469.59668 68.749023 460.427246 68.749023 L 72.920898 68.749023 C 63.708008 68.749023 56.233398 76.223633 56.233398 85.436523 L 56.233398 472.942871 C 56.233398 482.112305 63.708008 489.586914 72.920898 489.586914 L 460.427246 489.586914 C 469.59668 489.586914 477.071289 482.112305 477.071289 472.942871 Z M 477.071289 85.436523 " transform="matrix(0.0898876,0,0,0.0898876,0,0)"/>
<path style="fill:none;stroke-width:4.17;stroke-linecap:butt;stroke-linejoin:miter;stroke:rgb(0%,0%,0%);stroke-opacity:0.25098;stroke-miterlimit:4;" d="M 481.243164 85.436523 C 481.243164 73.92041 471.899902 64.577148 460.427246 64.577148 L 72.920898 64.577148 C 61.404785 64.577148 52.061523 73.92041 52.061523 85.436523 L 52.061523 472.942871 C 52.061523 484.415527 61.404785 493.758789 72.920898 493.758789 L 460.427246 493.758789 C 471.899902 493.758789 481.243164 484.415527 481.243164 472.942871 Z M 481.243164 85.436523 " transform="matrix(0.0898876,0,0,0.0898876,0,0)"/>
<path style=" stroke:none;fill-rule:evenodd;fill:url(#linear2);" d="M 17.476562 12.667969 C 18.285156 13.011719 19.101562 13.011719 19.929688 12.667969 L 19.929688 14.003906 C 19.09375 14.3125 18.273438 14.3125 17.476562 14.003906 L 17.476562 12.667969 "/>
<path style=" stroke:none;fill-rule:evenodd;fill:url(#linear3);" d="M 22.269531 21.742188 C 22.09375 25.949219 21.917969 30.605469 21.742188 34.8125 C 21.566406 37.671875 15.804688 37.613281 15.628906 34.8125 C 15.453125 30.605469 15.101562 21.742188 15.101562 21.742188 L 22.269531 21.742188 "/>
<path style=" stroke:none;fill-rule:evenodd;fill:rgb(42.745098%,30.980392%,48.235294%);fill-opacity:1;" d="M 15.40625 25.554688 C 17.585938 26.617188 19.765625 26.59375 21.949219 25.554688 L 21.792969 30.292969 C 19.734375 31.296875 17.660156 31.316406 15.574219 30.292969 Z M 15.40625 25.554688 "/>
<path style="fill-rule:evenodd;fill:url(#radial4);stroke-width:2.99;stroke-linecap:round;stroke-linejoin:miter;stroke:url(#linear4);stroke-miterlimit:4;" d="M 246.314453 241.881836 C 246.314453 234.494141 229.105469 228.540527 207.898438 228.540527 C 186.691406 228.540527 169.525879 234.494141 169.525879 241.881836 C 169.525879 249.269531 186.691406 255.266602 207.898438 255.266602 C 229.105469 255.266602 246.314453 249.269531 246.314453 241.881836 Z M 246.314453 241.881836 " transform="matrix(0.0898876,0,0,0.0898876,0,0)"/>
<path style="fill:none;stroke-width:2.66;stroke-linecap:butt;stroke-linejoin:round;stroke:rgb(100%,100%,100%);stroke-opacity:1;stroke-miterlimit:4;" d="M 195.687012 135.499023 C 203.205078 142.799805 211.461914 142.625977 220.414062 135.499023 " transform="matrix(0.0898876,0,0,0.0898876,0,0)"/>
<path style="fill:none;stroke-width:2.66;stroke-linecap:butt;stroke-linejoin:round;stroke:rgb(56.862745%,56.862745%,56.862745%);stroke-opacity:1;stroke-miterlimit:4;" d="M 195.687012 132.848145 C 203.205078 140.148926 211.461914 139.931641 220.414062 132.848145 " transform="matrix(0.0898876,0,0,0.0898876,0,0)"/>
<path style="fill:none;stroke-width:3.35;stroke-linecap:round;stroke-linejoin:round;stroke:url(#radial5);stroke-miterlimit:4;" d="M 246.314453 238.666016 C 246.314453 246.010254 229.105469 252.007324 207.898438 252.007324 C 186.734863 252.007324 169.525879 246.010254 169.525879 238.666016 " transform="matrix(0.0898876,0,0,0.0898876,0,0)"/>
<path style="fill:none;stroke-width:3.35;stroke-linecap:butt;stroke-linejoin:miter;stroke:rgb(56.862745%,56.862745%,56.862745%);stroke-opacity:1;stroke-miterlimit:10;" d="M 169.352051 245.314941 C 171.524902 292.46582 172.958984 339.616699 175.131836 386.072266 C 177.304688 417.969727 238.274902 417.274414 240.447754 386.072266 C 242.620605 338.87793 244.098145 291.727051 246.270996 245.314941 C 247.705078 211.939941 221.587402 214.808105 221.587402 192.34082 C 221.587402 169.830078 221.587402 153.881348 221.587402 134.282227 C 221.587402 132.848145 220.15332 131.370605 218.675781 131.370605 C 211.418457 131.370605 204.899902 131.370605 197.642578 131.370605 C 196.208496 131.370605 194.730957 132.848145 194.730957 134.282227 C 194.730957 153.881348 194.730957 169.134766 194.730957 190.863281 C 194.730957 215.546875 167.874512 211.939941 169.352051 245.314941 " transform="matrix(0.0898876,0,0,0.0898876,0,0)"/>
<path style=" stroke:none;fill-rule:evenodd;fill:url(#linear5);" d="M 15.222656 22.050781 C 15.417969 26.289062 15.546875 30.527344 15.742188 34.703125 C 15.9375 37.570312 21.417969 37.507812 21.613281 34.703125 C 21.808594 30.460938 21.941406 26.222656 22.136719 22.050781 C 22.265625 19.050781 19.917969 19.308594 19.917969 17.289062 C 19.917969 15.265625 19.917969 13.832031 19.917969 12.070312 C 19.917969 11.941406 19.789062 11.808594 19.65625 11.808594 C 19.003906 11.808594 18.417969 11.808594 17.765625 11.808594 C 17.636719 11.808594 17.503906 11.941406 17.503906 12.070312 C 17.503906 13.832031 17.503906 15.203125 17.503906 17.15625 C 17.503906 19.375 15.089844 19.050781 15.222656 22.050781 "/>
<path style="fill:none;stroke-width:3.35;stroke-linecap:round;stroke-linejoin:miter;stroke:url(#linear6);stroke-miterlimit:4;" d="M 182.649902 396.632324 C 196.469238 413.493652 237.970703 408.365723 237.666504 383.508301 C 239.665527 337.834961 241.012695 292.161621 242.968262 247.183594 " transform="matrix(0.0898876,0,0,0.0898876,0,0)"/>
<path style=" stroke:none;fill-rule:evenodd;fill:url(#linear7);" d="M 15.859375 21.5625 C 15.859375 21.5625 16.261719 21.828125 16.648438 21.898438 C 17.097656 21.980469 17.6875 22.003906 17.6875 22.003906 L 17.976562 34.253906 C 17.976562 34.253906 17.832031 35.191406 17.253906 35.15625 C 16.664062 35.117188 16.410156 34.574219 16.363281 34.121094 C 16.128906 31.855469 15.859375 21.5625 15.859375 21.5625 Z M 15.859375 21.5625 "/>
<path style=" stroke:none;fill-rule:evenodd;fill:url(#linear8);" d="M 17.957031 15.566406 C 17.957031 15.566406 18.078125 17.445312 17.957031 18.074219 C 17.867188 18.550781 17.132812 19.109375 17.234375 19.34375 C 17.339844 19.574219 18.355469 19.679688 18.578125 19.46875 C 18.804688 19.257812 18.578125 18.539062 18.578125 18.074219 C 18.578125 17.421875 18.578125 15.808594 18.578125 15.808594 C 18.34375 15.78125 18.140625 15.6875 17.957031 15.566406 Z M 17.957031 15.566406 "/>
<path style=" stroke:none;fill-rule:evenodd;fill:url(#linear9);" d="M 28.742188 12.667969 C 29.550781 13.011719 30.371094 13.011719 31.199219 12.667969 L 31.199219 14.003906 C 30.359375 14.3125 29.542969 14.3125 28.742188 14.003906 L 28.742188 12.667969 "/>
<path style=" stroke:none;fill-rule:evenodd;fill:url(#linear10);" d="M 33.550781 21.742188 C 33.375 25.949219 33.199219 30.605469 33.019531 34.8125 C 32.84375 37.671875 27.085938 37.613281 26.90625 34.8125 C 26.730469 30.605469 26.378906 21.742188 26.378906 21.742188 L 33.550781 21.742188 "/>
<path style=" stroke:none;fill-rule:evenodd;fill:rgb(42.745098%,30.980392%,48.235294%);fill-opacity:1;" d="M 26.691406 25.554688 C 28.867188 26.617188 31.050781 26.59375 33.234375 25.554688 L 33.078125 30.292969 C 31.019531 31.296875 28.945312 31.316406 26.855469 30.292969 Z M 26.691406 25.554688 "/>
<path style="fill-rule:evenodd;fill:url(#radial6);stroke-width:2.99;stroke-linecap:round;stroke-linejoin:miter;stroke:url(#linear11);stroke-miterlimit:4;" d="M 371.774902 241.881836 C 371.774902 234.494141 354.565918 228.540527 333.402344 228.540527 C 312.195312 228.540527 294.986328 234.494141 294.986328 241.881836 C 294.986328 249.269531 312.195312 255.266602 333.402344 255.266602 C 354.565918 255.266602 371.774902 249.269531 371.774902 241.881836 Z M 371.774902 241.881836 " transform="matrix(0.0898876,0,0,0.0898876,0,0)"/>
<path style="fill:none;stroke-width:2.66;stroke-linecap:butt;stroke-linejoin:round;stroke:rgb(100%,100%,100%);stroke-opacity:1;stroke-miterlimit:4;" d="M 321.190918 135.499023 C 328.665527 142.799805 336.922363 142.625977 345.917969 135.499023 " transform="matrix(0.0898876,0,0,0.0898876,0,0)"/>
<path style="fill:none;stroke-width:2.66;stroke-linecap:butt;stroke-linejoin:round;stroke:rgb(56.862745%,56.862745%,56.862745%);stroke-opacity:1;stroke-miterlimit:4;" d="M 321.190918 132.848145 C 328.665527 140.148926 336.922363 139.931641 345.917969 132.848145 " transform="matrix(0.0898876,0,0,0.0898876,0,0)"/>
<path style="fill:none;stroke-width:3.35;stroke-linecap:round;stroke-linejoin:round;stroke:url(#radial7);stroke-miterlimit:4;" d="M 371.774902 238.666016 C 371.774902 246.010254 354.565918 252.007324 333.402344 252.007324 C 312.195312 252.007324 294.986328 246.010254 294.986328 238.666016 " transform="matrix(0.0898876,0,0,0.0898876,0,0)"/>
<path style="fill:none;stroke-width:3.35;stroke-linecap:butt;stroke-linejoin:miter;stroke:rgb(56.862745%,56.862745%,56.862745%);stroke-opacity:1;stroke-miterlimit:10;" d="M 294.8125 245.314941 C 296.985352 292.46582 298.462891 339.616699 300.635742 386.072266 C 302.808594 417.969727 363.735352 417.274414 365.908203 386.072266 C 368.124512 338.87793 369.558594 291.727051 371.731445 245.314941 C 373.165527 211.939941 347.047852 214.808105 347.047852 192.34082 C 347.047852 169.830078 347.047852 153.881348 347.047852 134.282227 C 347.047852 132.848145 345.61377 131.370605 344.179688 131.370605 C 336.922363 131.370605 330.360352 131.370605 323.103027 131.370605 C 321.668945 131.370605 320.234863 132.848145 320.234863 134.282227 C 320.234863 153.881348 320.234863 169.134766 320.234863 190.863281 C 320.234863 215.546875 293.378418 211.939941 294.8125 245.314941 " transform="matrix(0.0898876,0,0,0.0898876,0,0)"/>
<path style=" stroke:none;fill-rule:evenodd;fill:url(#linear12);" d="M 26.503906 22.050781 C 26.703125 26.289062 26.832031 30.527344 27.027344 34.703125 C 27.222656 37.570312 32.703125 37.507812 32.898438 34.703125 C 33.09375 30.460938 33.222656 26.222656 33.417969 22.050781 C 33.550781 19.050781 31.203125 19.308594 31.203125 17.289062 C 31.203125 15.265625 31.203125 13.832031 31.203125 12.070312 C 31.203125 11.941406 31.070312 11.808594 30.941406 11.808594 C 30.289062 11.808594 29.703125 11.808594 29.050781 11.808594 C 28.917969 11.808594 28.789062 11.941406 28.789062 12.070312 C 28.789062 13.832031 28.789062 15.203125 28.789062 17.15625 C 28.789062 19.375 26.375 19.050781 26.503906 22.050781 "/>
<path style="fill:none;stroke-width:3.35;stroke-linecap:round;stroke-linejoin:miter;stroke:url(#linear13);stroke-miterlimit:4;" d="M 308.153809 396.632324 C 321.973145 413.493652 363.431152 408.365723 363.17041 383.508301 C 365.169434 337.834961 366.473145 292.161621 368.472168 247.183594 " transform="matrix(0.0898876,0,0,0.0898876,0,0)"/>
<path style=" stroke:none;fill-rule:evenodd;fill:url(#linear14);" d="M 27.136719 21.5625 C 27.136719 21.5625 27.542969 21.828125 27.925781 21.898438 C 28.375 21.980469 28.964844 22.003906 28.964844 22.003906 L 29.253906 34.253906 C 29.253906 34.253906 29.113281 35.191406 28.53125 35.15625 C 27.941406 35.117188 27.6875 34.574219 27.640625 34.121094 C 27.410156 31.855469 27.136719 21.5625 27.136719 21.5625 Z M 27.136719 21.5625 "/>
<path style=" stroke:none;fill-rule:evenodd;fill:url(#linear15);" d="M 29.238281 15.566406 C 29.238281 15.566406 29.355469 17.445312 29.238281 18.074219 C 29.144531 18.550781 28.410156 19.109375 28.515625 19.34375 C 28.617188 19.574219 29.632812 19.679688 29.859375 19.46875 C 30.082031 19.257812 29.859375 18.539062 29.859375 18.074219 C 29.859375 17.421875 29.859375 15.808594 29.859375 15.808594 C 29.621094 15.78125 29.421875 15.6875 29.238281 15.566406 Z M 29.238281 15.566406 "/>
<path style=" stroke:none;fill-rule:evenodd;fill:url(#linear16);" d="M 22.851562 11.375 L 22.851562 12.964844 C 23.753906 13.539062 24.667969 13.542969 25.59375 12.964844 L 25.59375 11.375 C 24.683594 12 23.769531 11.996094 22.851562 11.375 Z M 22.851562 11.375 "/>
<path style=" stroke:none;fill-rule:evenodd;fill:url(#linear17);" d="M 28.265625 21.65625 C 28.070312 26.546875 27.875 31.960938 27.679688 36.855469 C 27.484375 40.179688 21.089844 40.113281 20.894531 36.855469 C 20.699219 31.960938 20.308594 21.65625 20.308594 21.65625 L 28.265625 21.65625 "/>
<path style=" stroke:none;fill-rule:evenodd;fill:rgb(100%,5.098039%,5.098039%);fill-opacity:1;" d="M 20.460938 25.554688 C 23.011719 26.796875 25.5625 26.773438 28.117188 25.554688 L 27.9375 31.097656 C 25.527344 32.273438 23.097656 32.296875 20.65625 31.097656 Z M 20.460938 25.554688 "/>
<path style="fill-rule:evenodd;fill:url(#radial8);stroke-width:3.35;stroke-linecap:round;stroke-linejoin:miter;stroke:url(#linear18);stroke-miterlimit:4;" d="M 312.803711 240.925781 C 312.803711 232.364746 293.769531 225.368164 270.21582 225.368164 C 246.705566 225.368164 227.62793 232.364746 227.62793 240.925781 C 227.62793 249.530273 246.705566 256.483398 270.21582 256.483398 C 293.769531 256.483398 312.803711 249.530273 312.803711 240.925781 Z M 312.803711 240.925781 " transform="matrix(0.0898876,0,0,0.0898876,0,0)"/>
<path style="fill:none;stroke-width:3.35;stroke-linecap:round;stroke-linejoin:round;stroke:url(#radial9);stroke-miterlimit:4;" d="M 312.803711 237.318848 C 312.803711 245.879883 293.726074 252.876465 270.21582 252.876465 C 246.749023 252.876465 227.62793 245.879883 227.62793 237.318848 " transform="matrix(0.0898876,0,0,0.0898876,0,0)"/>
<path style="fill:none;stroke-width:3.35;stroke-linecap:butt;stroke-linejoin:round;stroke:rgb(100%,100%,100%);stroke-opacity:1;stroke-miterlimit:4;" d="M 254.658203 120.02832 C 264.088379 129.197754 274.474609 128.980469 285.72998 120.02832 " transform="matrix(0.0898876,0,0,0.0898876,0,0)"/>
<path style="fill:none;stroke-width:3.35;stroke-linecap:butt;stroke-linejoin:round;stroke:rgb(56.862745%,56.862745%,56.862745%);stroke-opacity:1;stroke-miterlimit:4;" d="M 254.658203 116.682129 C 264.088379 125.851562 274.474609 125.634277 285.72998 116.682129 " transform="matrix(0.0898876,0,0,0.0898876,0,0)"/>
<path style="fill:none;stroke-width:3.35;stroke-linecap:butt;stroke-linejoin:miter;stroke:rgb(56.862745%,56.862745%,56.862745%);stroke-opacity:1;stroke-miterlimit:10;" d="M 314.455078 246.749023 C 312.282227 301.157227 310.109375 355.56543 307.936523 410.01709 C 305.763672 446.999023 234.624512 446.260254 232.45166 410.01709 C 230.278809 355.56543 228.105957 301.157227 225.933105 246.749023 C 224.499023 208.289551 254.962402 211.201172 254.962402 185.822266 C 254.962402 159.70459 254.223633 141.539551 254.223633 118.333496 C 254.223633 116.160645 255.701172 114.683105 257.874023 114.683105 C 265.82666 114.683105 273.822754 114.683105 281.818848 114.683105 C 283.991699 114.683105 285.425781 116.160645 285.425781 118.333496 C 285.425781 140.800781 284.730469 158.96582 284.730469 184.344727 C 285.425781 211.939941 316.62793 207.550781 314.455078 246.749023 " transform="matrix(0.0898876,0,0,0.0898876,0,0)"/>
<path style=" stroke:none;fill-rule:evenodd;fill:url(#linear19);" d="M 28.265625 22.179688 C 28.070312 27.070312 27.875 31.960938 27.679688 36.855469 C 27.484375 40.179688 21.089844 40.113281 20.894531 36.855469 C 20.699219 31.960938 20.503906 27.070312 20.308594 22.179688 C 20.179688 18.722656 22.917969 18.984375 22.917969 16.703125 C 22.917969 14.355469 22.851562 12.722656 22.851562 10.636719 C 22.851562 10.441406 22.984375 10.308594 23.179688 10.308594 C 23.894531 10.308594 24.613281 10.308594 25.332031 10.308594 C 25.527344 10.308594 25.65625 10.441406 25.65625 10.636719 C 25.65625 12.65625 25.59375 14.289062 25.59375 16.570312 C 25.65625 19.050781 28.460938 18.65625 28.265625 22.179688 "/>
<path style="fill:none;stroke-width:3.34;stroke-linecap:round;stroke-linejoin:miter;stroke:url(#linear20);stroke-miterlimit:4;" d="M 310.804688 248.574219 C 308.805664 301.504883 306.806641 354.479004 304.807617 407.409668 C 304.459961 438.829102 256.222656 440.306641 241.794922 423.619141 " transform="matrix(0.0898876,0,0,0.0898876,0,0)"/>
<path style=" stroke:none;fill-rule:evenodd;fill:url(#linear21);" d="M 23.382812 14.46875 C 23.382812 14.46875 23.535156 16.824219 23.382812 17.617188 C 23.269531 18.21875 22.347656 18.921875 22.476562 19.210938 C 22.605469 19.503906 23.882812 19.636719 24.164062 19.371094 C 24.445312 19.101562 24.164062 18.199219 24.164062 17.617188 C 24.164062 16.800781 24.164062 14.773438 24.164062 14.773438 C 23.867188 14.734375 23.617188 14.617188 23.382812 14.46875 Z M 23.382812 14.46875 "/>
<path style=" stroke:none;fill-rule:evenodd;fill:url(#linear22);" d="M 21.0625 22.34375 C 21.0625 22.34375 21.464844 22.609375 21.851562 22.679688 C 22.296875 22.761719 22.890625 22.78125 22.890625 22.78125 L 23.179688 35.035156 C 23.179688 35.035156 23.035156 35.972656 22.457031 35.9375 C 21.867188 35.898438 21.613281 35.351562 21.566406 34.898438 C 21.332031 32.636719 21.0625 22.34375 21.0625 22.34375 Z M 21.0625 22.34375 "/>
</g>
</svg>
