<svg width="15" height="13" viewBox="0 0 15 13" fill="none" xmlns="http://www.w3.org/2000/svg">
<path d="M14.03 10.4768C14.03 10.4768 12.7332 5.99927 12.0063 3.76582C11.3273 1.68218 10.03 -0.0231676 7.30583 0.000233366C4.3056 0.268445 3.1773 2.41556 2.86551 3.66172C0.684194 4.59657 -0.177674 7.04278 0.0300293 7.97683C0.705305 7.35377 1.82678 6.41467 3.10011 6.44721C3.33067 6.51986 3.51685 6.68315 3.59244 6.98583C3.80041 7.81659 3.74848 12.6987 3.74848 12.6987L5.30645 11.0888L6.50093 12.5948L7.74763 10.7253L9.09761 12.3868L9.98057 10.4135L12.1102 12.0234L12.0064 9.89402L14.03 10.4768ZM6.36368 4.92318C5.84958 5.06174 5.3204 4.75719 5.18211 4.24333L6.8902 3.47683C7.02902 3.99066 6.87727 4.78519 6.36368 4.92318Z" fill="black"/>
</svg>
