<?xml version="1.0" encoding="UTF-8"?>
<svg height="16px" viewBox="0 0 16 16" width="16px" xmlns="http://www.w3.org/2000/svg">
    <path d="m 6.5 0 c -3.578125 0 -6.5 2.921875 -6.5 6.5 s 2.921875 6.5 6.5 6.5 c 1.429688 0 2.753906 -0.46875 3.828125 -1.257812 l 3.945313 3.945312 c 0.957031 0.9375 2.363281 -0.5 1.40625 -1.4375 l -3.929688 -3.929688 c 0.785156 -1.074218 1.25 -2.394531 1.25 -3.820312 c 0 -3.578125 -2.921875 -6.5 -6.5 -6.5 z m 0 2 c 2.496094 0 4.5 2.003906 4.5 4.5 s -2.003906 4.5 -4.5 4.5 s -4.5 -2.003906 -4.5 -4.5 s 2.003906 -4.5 4.5 -4.5 z m 0 0" fill="#2e3436"/>
</svg>
