<?xml version="1.0" encoding="UTF-8"?>
<svg height="16px" viewBox="0 0 16 16" width="16px" xmlns="http://www.w3.org/2000/svg">
    <path d="m 9.675781 0 v 1.179688 c -0.367187 0.070312 -0.71875 0.1875 -1.046875 0.339843 l -0.210937 -0.289062 l -0.480469 -0.667969 l -1.335938 0.976562 l 0.480469 0.664063 l 0.214844 0.289063 c -0.25 0.269531 -0.46875 0.566406 -0.648437 0.890624 l -0.339844 -0.113281 l -0.785156 -0.253906 l -0.507813 1.566406 l 0.785156 0.257813 l 0.335938 0.109375 c -0.023438 0.179687 -0.035157 0.363281 -0.035157 0.550781 s 0.011719 0.371094 0.035157 0.550781 l -0.335938 0.109375 l -0.785156 0.257813 l 0.507813 1.566406 l 0.785156 -0.253906 l 0.339844 -0.113281 c 0.179687 0.324218 0.398437 0.621093 0.648437 0.890624 l -0.214844 0.289063 l -0.480469 0.667969 l 1.335938 0.972656 l 0.480469 -0.667969 l 0.210937 -0.289062 c 0.328125 0.152343 0.679688 0.269531 1.046875 0.339843 v 1.179688 h 1.648438 v -1.179688 c 0.367187 -0.070312 0.71875 -0.1875 1.046875 -0.339843 l 0.210937 0.289062 l 0.480469 0.667969 l 1.335938 -0.976562 l -0.480469 -0.664063 l -0.214844 -0.289063 c 0.25 -0.269531 0.46875 -0.566406 0.648437 -0.890624 l 0.339844 0.113281 l 0.785156 0.253906 l 0.507813 -1.566406 l -0.785156 -0.257813 l -0.335938 -0.109375 c 0.023438 -0.179687 0.035157 -0.363281 0.035157 -0.550781 s -0.011719 -0.371094 -0.035157 -0.550781 l 0.335938 -0.109375 l 0.785156 -0.257813 l -0.507813 -1.566406 l -0.785156 0.253906 l -0.339844 0.113281 c -0.179687 -0.324218 -0.398437 -0.621093 -0.648437 -0.890624 l 0.214844 -0.289063 l 0.480469 -0.667969 l -1.335938 -0.972656 l -0.480469 0.667969 l -0.210937 0.289062 c -0.328125 -0.152343 -0.679688 -0.269531 -1.046875 -0.339843 v -1.179688 z m 0.824219 3 c 1.378906 0 2.5 1.121094 2.5 2.5 s -1.121094 2.5 -2.5 2.5 s -2.5 -1.121094 -2.5 -2.5 s 1.121094 -2.5 2.5 -2.5 z m -7.503906 5 v 1.050781 c -0.183594 0.039063 -0.363282 0.097657 -0.535156 0.175781 l -0.617188 -0.851562 l -0.808594 0.585938 l 0.621094 0.855468 c -0.128906 0.136719 -0.238281 0.289063 -0.332031 0.453125 l -1 -0.324219 l -0.3125002 0.949219 l 1.0000002 0.324219 c -0.007813 0.09375 -0.015625 0.1875 -0.015625 0.28125 s 0.007812 0.1875 0.015625 0.28125 l -1.0000002 0.324219 l 0.3125002 0.949219 l 1 -0.324219 c 0.09375 0.164062 0.203125 0.316406 0.332031 0.453125 l -0.621094 0.855468 l 0.808594 0.585938 l 0.617188 -0.851562 c 0.171874 0.078124 0.347656 0.136718 0.53125 0.175781 h 0.003906 v 1.050781 h 1 v -1.050781 c 0.183594 -0.039063 0.363281 -0.097657 0.535156 -0.175781 l 0.617188 0.851562 l 0.808593 -0.585938 l -0.617187 -0.855468 c 0.125 -0.136719 0.234375 -0.289063 0.328125 -0.453125 l 1.003906 0.324219 l 0.308594 -0.949219 l -1 -0.324219 c 0.007812 -0.09375 0.015625 -0.1875 0.015625 -0.28125 s -0.007813 -0.1875 -0.015625 -0.28125 l 1 -0.324219 l -0.308594 -0.949219 l -1.003906 0.324219 c -0.09375 -0.164062 -0.203125 -0.316406 -0.328125 -0.453125 l 0.617187 -0.855468 l -0.808593 -0.585938 l -0.617188 0.851562 c -0.171875 -0.078124 -0.347656 -0.136718 -0.53125 -0.175781 h -0.003906 v -1.050781 z m 0.5 2 c 0.835937 0 1.5 0.664062 1.5 1.5 s -0.664063 1.5 -1.5 1.5 c -0.835938 0 -1.5 -0.664062 -1.5 -1.5 s 0.664062 -1.5 1.5 -1.5 z m 0 0" fill="#2e3436"/>
</svg>
