<?xml version="1.0" encoding="UTF-8" standalone="no"?><!-- Generator: Gravit.io --><svg xmlns="http://www.w3.org/2000/svg" xmlns:xlink="http://www.w3.org/1999/xlink" style="isolation:isolate" viewBox="0 0 40 40" width="40pt" height="40pt"><defs><clipPath id="_clipPath_2nwcEKlK5YA6Uj64adKs0OoQJpLwmHyg"><rect width="40" height="40"/></clipPath></defs><g clip-path="url(#_clipPath_2nwcEKlK5YA6Uj64adKs0OoQJpLwmHyg)"><path d=" M 38.986 20.312 C 38.991 29.723 32.103 37.718 22.795 39.105 C 13.487 40.493 4.567 34.855 1.826 25.852 L 9.011 28.811 C 9.494 31.065 11.389 32.741 13.685 32.945 C 15.982 33.148 18.142 31.831 19.014 29.697 C 19.299 29.011 19.439 28.273 19.425 27.529 L 26.072 22.781 L 26.23 22.781 C 29.158 22.788 31.802 21.028 32.925 18.324 C 34.049 15.62 33.431 12.505 31.36 10.435 C 29.29 8.364 26.175 7.746 23.471 8.87 C 20.767 9.993 19.007 12.636 19.014 15.565 L 19.014 15.66 L 14.376 22.417 C 13.259 22.369 12.153 22.668 11.211 23.272 L 1.003 19.062 L 1.003 19.062 C 1.349 8.573 10.131 0.351 20.62 0.696 C 31.109 1.041 39.331 9.824 38.986 20.312 Z  M 12.841 30.41 L 10.499 29.428 C 11.185 30.877 12.662 31.785 14.264 31.744 C 15.867 31.703 17.294 30.72 17.906 29.238 L 17.906 29.238 C 18.329 28.226 18.329 27.086 17.906 26.073 C 17.501 25.077 16.715 24.285 15.722 23.873 C 14.758 23.478 13.678 23.478 12.715 23.873 L 15.152 24.87 C 16.574 25.573 17.206 27.26 16.595 28.724 C 15.985 30.188 14.341 30.926 12.841 30.41 Z  M 26.23 20.312 C 23.621 20.26 21.543 18.112 21.578 15.503 C 21.612 12.893 23.747 10.801 26.356 10.818 C 28.966 10.835 31.073 12.955 31.073 15.565 C 31.03 18.206 28.872 20.321 26.23 20.312 L 26.23 20.312 Z  M 26.23 19.094 C 27.706 19.1 29.038 18.21 29.598 16.845 C 30.158 15.479 29.834 13.911 28.779 12.879 C 27.724 11.847 26.148 11.558 24.796 12.148 C 23.443 12.738 22.583 14.089 22.622 15.565 C 22.639 17.548 24.247 19.149 26.23 19.157 L 26.23 19.094 Z " fill="rgb(0,0,0)"/></g></svg>
