<?xml version="1.0" encoding="UTF-8" standalone="no"?>
<svg
   height="16px"
   viewBox="0 0 16 16"
   width="16px"
   version="1.1"
   id="svg10"
   xmlns="http://www.w3.org/2000/svg"
   xmlns:svg="http://www.w3.org/2000/svg">
  <defs
     id="defs14" />
  <path
     id="path40913"
     style="display:inline;fill:#241f31;fill-opacity:1;stroke-width:0.182362;enable-background:new"
     d="m 2.9996528,0 v 0.6155537 c 0,0.37168686 -0.1697087,0.7866069 -0.4048074,1.2390098 C 1.9641554,2.951035 1.315954,4.020961 1.1626522,5.2879648 L 1.1529511,16 h 2.0003298 l 0.0097,-10.7120352 C 3.3162838,4.0209609 3.9644863,2.951035 4.5951752,1.8545635 4.8302749,1.4021606 4.9999836,0.98724056 4.9999836,0.6155537 V 0 Z" />
  <path
     id="path40913-3-6"
     style="display:inline;fill:#241f31;fill-opacity:1;stroke-width:0.182362;enable-background:new"
     d="m 7.0003121,0 v 0.6155537 c 0,0.37168686 -0.1697085,0.7866069 -0.4048083,1.2390098 C 5.9648148,2.951035 5.3166123,4.0209609 5.1633105,5.2879648 L 5.1536095,16 h 2.0003297 l 0.0097,-10.7120352 C 7.316942,4.0209609 7.9651434,2.951035 8.5958335,1.8545635 8.8309322,1.4021606 9.0006408,0.98724056 9.0006408,0.6155537 V 0 Z" />
  <path
     id="path3329"
     style="display:inline;fill:#241f31;fill-opacity:1;stroke-width:0.182362;enable-background:new"
     d="M 11.000978,0 V 0.6155537 C 10.685906,2.2935285 9.3691101,3.7814851 9.1639765,5.2879648 L 9.1542767,16 H 14.847049 L 14.839149,5.3002583 C 14.518062,3.4845031 13.453927,2.2202426 13.001231,0.6155537 V 0 Z" />
</svg>
