<?xml version="1.0" encoding="UTF-8" standalone="no"?>
<!DOCTYPE svg PUBLIC "-//W3C//DTD SVG 1.1//EN" "http://www.w3.org/Graphics/SVG/1.1/DTD/svg11.dtd">
<svg width="100%" height="100%" viewBox="0 0 128 128" version="1.1" xmlns="http://www.w3.org/2000/svg" xmlns:xlink="http://www.w3.org/1999/xlink" xml:space="preserve" style="fill-rule:evenodd;clip-rule:evenodd;stroke-linecap:round;stroke-linejoin:round;">
    <path id="path3041" d="M119,118C118.995,121.291 94.169,123.999 64,123.999C33.831,123.999 9.005,121.291 9,118C9,118 9,117.999 9,117.999C9,114.707 33.828,111.999 64,111.999C94.172,111.999 119,114.707 119,117.999C119,117.999 119,118 119,118Z" style="fill:url(#_Radial1);fill-rule:nonzero;"/>
    <g id="g3712" transform="matrix(2.84211,0,0,0.714286,-4.21053,87.4286)">
        <g opacity="0.4">
            <rect id="rect2801" x="38" y="40" width="5" height="7" style="fill:url(#_Radial2);"/>
            <g id="rect3696" transform="matrix(-1,-0,-0,-1,0,0)">
                <rect x="-10" y="-47" width="5" height="7" style="fill:url(#_Radial3);"/>
            </g>
            <rect id="rect3700" x="10" y="40" width="28" height="7" style="fill:url(#_Linear4);"/>
        </g>
    </g>
    <path id="rect5505-21-3" d="M115.5,21.555C115.5,18.213 112.787,15.5 109.445,15.5L18.555,15.5C15.213,15.5 12.5,18.213 12.5,21.555L12.5,112.445C12.5,115.787 15.213,118.5 18.555,118.5L109.445,118.5C112.787,118.5 115.5,115.787 115.5,112.445L115.5,21.555Z" style="fill:url(#_Radial5);"/>
    <path id="rect6741-7" d="M114.5,21.5C114.5,18.74 112.26,16.5 109.5,16.5L18.5,16.5C15.74,16.5 13.5,18.74 13.5,21.5L13.5,112.5C13.5,115.26 15.74,117.5 18.5,117.5L109.5,117.5C112.26,117.5 114.5,115.26 114.5,112.5L114.5,21.5Z" style="fill:none;stroke:url(#_Linear6);stroke-width:1px;"/>
    <path id="rect5505-21-6" d="M115.5,21.5C115.5,18.189 112.811,15.5 109.5,15.5L18.5,15.5C15.189,15.5 12.5,18.189 12.5,21.5L12.5,112.5C12.5,115.811 15.189,118.5 18.5,118.5L109.5,118.5C112.811,118.5 115.5,115.811 115.5,112.5L115.5,21.5Z" style="fill:none;stroke:rgb(64,54,52);stroke-opacity:0.5;stroke-width:1px;"/>
    <path id="path4690-5" d="M60,40C59.28,40 58.68,42.78 58.328,46.754C56.466,47.262 54.678,48.013 53.012,48.988C49.941,46.414 47.542,44.861 47.031,45.371L41.371,51.031C40.861,51.542 42.414,53.941 44.988,57.012C44.02,58.679 43.276,60.467 42.773,62.328C38.789,62.68 36,63.279 36,64L36,72C36,72.72 38.78,73.32 42.754,73.672C43.259,75.538 44.007,77.33 44.98,79C42.412,82.066 40.861,84.459 41.371,84.969L47.031,90.629C47.541,91.138 49.931,89.591 52.992,87.027C54.667,87.992 56.461,88.731 58.328,89.227C58.68,93.211 59.279,96 60,96L68,96C68.72,96 69.32,93.22 69.672,89.246C71.534,88.738 73.322,87.987 74.988,87.012C78.059,89.586 80.458,91.139 80.969,90.629L86.629,84.969C87.139,84.458 85.586,82.059 83.012,78.988C83.98,77.321 84.724,75.533 85.227,73.672C89.211,73.32 92,72.721 92,72L92,64C92,63.28 89.22,62.68 85.246,62.328C84.741,60.462 83.993,58.67 83.02,57C85.588,53.934 87.139,51.541 86.629,51.031L80.969,45.371C80.459,44.862 78.069,46.409 75.008,48.973C73.333,48.008 71.539,47.269 69.672,46.773C69.32,42.789 68.721,40 68,40L60,40ZM64,58C69.486,58 74,62.514 74,68C74,73.486 69.486,78 64,78C58.514,78 54,73.486 54,68C54,62.514 58.514,58 64,58Z" style="fill:white;fill-opacity:0.1;fill-rule:nonzero;"/>
    <path id="path4690" d="M60,39C59.28,39 58.68,41.78 58.328,45.754C56.466,46.262 54.678,47.013 53.012,47.988C49.941,45.414 47.542,43.861 47.031,44.371L41.371,50.031C40.861,50.542 42.414,52.941 44.988,56.012C44.02,57.679 43.276,59.467 42.773,61.328C38.789,61.68 36,62.279 36,63L36,71C36,71.72 38.78,72.32 42.754,72.672C43.259,74.538 44.007,76.33 44.98,78C42.412,81.066 40.861,83.459 41.371,83.969L47.031,89.629C47.541,90.138 49.931,88.591 52.992,86.027C54.667,86.992 56.461,87.731 58.328,88.227C58.68,92.211 59.279,95 60,95L68,95C68.72,95 69.32,92.22 69.672,88.246C71.534,87.738 73.322,86.987 74.988,86.012C78.059,88.586 80.458,90.139 80.969,89.629L86.629,83.969C87.139,83.458 85.586,81.059 83.012,77.988C83.98,76.321 84.724,74.533 85.227,72.672C89.211,72.32 92,71.721 92,71L92,63C92,62.28 89.22,61.68 85.246,61.328C84.741,59.462 83.993,57.67 83.02,56C85.588,52.934 87.139,50.541 86.629,50.031L80.969,44.371C80.459,43.862 78.069,45.409 75.008,47.973C73.333,47.008 71.539,46.269 69.672,45.773C69.32,41.789 68.721,39 68,39L60,39ZM64,57C69.486,57 74,61.514 74,67C74,72.486 69.486,77 64,77C58.514,77 54,72.486 54,67C54,61.514 58.514,57 64,57Z" style="fill:rgb(64,54,52);fill-rule:nonzero;"/>
    <path id="path4278" d="M60.082,39.5C60.055,39.53 60.003,39.594 59.943,39.713C59.813,39.972 59.662,40.416 59.525,40.99C59.252,42.139 59.013,43.814 58.838,45.787C58.818,46.002 58.667,46.182 58.459,46.238C56.642,46.734 54.892,47.473 53.266,48.424C53.078,48.533 52.842,48.512 52.676,48.373C51.151,47.095 49.793,46.072 48.783,45.449C48.278,45.138 47.855,44.926 47.578,44.834C47.452,44.792 47.369,44.783 47.328,44.781L41.783,50.328C41.785,50.369 41.794,50.452 41.836,50.578C41.928,50.855 42.138,51.278 42.449,51.783C43.072,52.793 44.095,54.151 45.373,55.676C45.512,55.842 45.532,56.076 45.424,56.264C44.479,57.891 43.75,59.643 43.26,61.459C43.203,61.668 43.022,61.819 42.807,61.838C40.828,62.013 39.148,62.252 37.996,62.525C37.42,62.662 36.975,62.811 36.715,62.941C36.596,63.001 36.53,63.053 36.5,63.08L36.5,70.918C36.53,70.945 36.594,70.997 36.713,71.057C36.972,71.187 37.416,71.338 37.99,71.475C39.139,71.748 40.814,71.987 42.787,72.162C43.003,72.181 43.184,72.332 43.24,72.541C43.733,74.362 44.467,76.116 45.416,77.746C45.525,77.934 45.505,78.17 45.365,78.336C44.09,79.858 43.071,81.213 42.449,82.221C42.138,82.725 41.927,83.148 41.836,83.424C41.794,83.55 41.785,83.631 41.783,83.672L47.328,89.219C47.369,89.217 47.45,89.208 47.576,89.166C47.852,89.075 48.274,88.863 48.777,88.553C49.784,87.932 51.136,86.915 52.656,85.643C52.822,85.503 53.057,85.482 53.244,85.59C54.878,86.531 56.635,87.257 58.457,87.74C58.667,87.796 58.819,87.977 58.838,88.193C59.013,90.172 59.252,91.852 59.525,93.004C59.662,93.58 59.811,94.025 59.941,94.285C60.001,94.404 60.053,94.47 60.08,94.5L67.918,94.5C67.945,94.47 67.997,94.406 68.057,94.287C68.187,94.028 68.338,93.584 68.475,93.01C68.748,91.861 68.987,90.186 69.162,88.213C69.182,87.998 69.333,87.818 69.541,87.762C71.358,87.266 73.108,86.527 74.734,85.576C74.922,85.467 75.158,85.488 75.324,85.627C76.849,86.905 78.207,87.928 79.217,88.551C79.722,88.862 80.145,89.074 80.422,89.166C80.548,89.208 80.631,89.217 80.672,89.219L86.217,83.672C86.215,83.631 86.206,83.548 86.164,83.422C86.072,83.145 85.862,82.722 85.551,82.217C84.928,81.207 83.905,79.849 82.627,78.324C82.488,78.158 82.468,77.924 82.576,77.736C83.521,76.109 84.25,74.357 84.74,72.541C84.797,72.332 84.978,72.181 85.193,72.162C87.172,71.987 88.852,71.748 90.004,71.475C90.58,71.338 91.025,71.189 91.285,71.059C91.404,70.999 91.47,70.947 91.5,70.92L91.5,63.082C91.47,63.055 91.406,63.003 91.287,62.943C91.028,62.813 90.584,62.662 90.01,62.525C88.861,62.252 87.186,62.013 85.213,61.838C84.997,61.819 84.816,61.668 84.76,61.459C84.267,59.638 83.533,57.884 82.584,56.254C82.475,56.066 82.495,55.83 82.635,55.664C83.91,54.142 84.929,52.787 85.551,51.779C85.862,51.275 86.073,50.852 86.164,50.576C86.206,50.45 86.215,50.369 86.217,50.328L80.672,44.781C80.631,44.783 80.55,44.792 80.424,44.834C80.148,44.925 79.726,45.137 79.223,45.447C78.216,46.068 76.864,47.085 75.344,48.357C75.178,48.497 74.943,48.518 74.756,48.41C73.122,47.469 71.365,46.743 69.543,46.26C69.333,46.204 69.181,46.023 69.162,45.807C68.987,43.828 68.748,42.148 68.475,40.996C68.338,40.42 68.189,39.975 68.059,39.715C67.999,39.596 67.947,39.53 67.92,39.5L60.082,39.5Z" style="fill:none;stroke:black;stroke-opacity:0.05;stroke-width:1px;stroke-linecap:butt;stroke-linejoin:miter;"/>
    <path id="path4110" d="M63.998,77.495C70.184,77.693 75.481,71.514 74.344,65.421C73.605,59.482 67.131,55.199 61.384,56.867C55.56,58.196 51.946,65.058 54.167,70.617C55.599,74.669 59.699,77.556 63.998,77.495Z" style="fill:none;stroke:url(#_Linear7);stroke-width:1px;stroke-linecap:butt;stroke-linejoin:miter;"/>
    <defs>
        <radialGradient id="_Radial1" cx="0" cy="0" r="1" gradientUnits="userSpaceOnUse" gradientTransform="matrix(55,0,0,6,64,118)"><stop offset="0%" style="stop-color:black;stop-opacity:0.2"/><stop offset="100%" style="stop-color:black;stop-opacity:0"/></radialGradient>
        <radialGradient id="_Radial2" cx="0" cy="0" r="1" gradientUnits="userSpaceOnUse" gradientTransform="matrix(5.00946,0,0,3.5,37.993,43.5)"><stop offset="0%" style="stop-color:rgb(24,24,24);stop-opacity:1"/><stop offset="100%" style="stop-color:rgb(24,24,24);stop-opacity:0"/></radialGradient>
        <radialGradient id="_Radial3" cx="0" cy="0" r="1" gradientUnits="userSpaceOnUse" gradientTransform="matrix(5.00946,0,0,3.5,-10.007,-43.5)"><stop offset="0%" style="stop-color:rgb(24,24,24);stop-opacity:1"/><stop offset="100%" style="stop-color:rgb(24,24,24);stop-opacity:0"/></radialGradient>
        <linearGradient id="_Linear4" x1="0" y1="0" x2="1" y2="0" gradientUnits="userSpaceOnUse" gradientTransform="matrix(4.30358e-16,-7.02829,7.02829,4.30358e-16,25.0581,47.0277)"><stop offset="0%" style="stop-color:rgb(24,24,24);stop-opacity:0"/><stop offset="50%" style="stop-color:rgb(24,24,24);stop-opacity:1"/><stop offset="100%" style="stop-color:rgb(24,24,24);stop-opacity:0"/></linearGradient>
        <radialGradient id="_Radial5" cx="0" cy="0" r="1" gradientUnits="userSpaceOnUse" gradientTransform="matrix(0,317.852,-390.221,0,66.1949,-39.2709)"><stop offset="0%" style="stop-color:rgb(104,87,84);stop-opacity:1"/><stop offset="26%" style="stop-color:rgb(104,87,84);stop-opacity:1"/><stop offset="70%" style="stop-color:rgb(89,76,74);stop-opacity:1"/><stop offset="100%" style="stop-color:rgb(89,76,74);stop-opacity:1"/></radialGradient>
        <linearGradient id="_Linear6" x1="0" y1="0" x2="1" y2="0" gradientUnits="userSpaceOnUse" gradientTransform="matrix(6.35162e-15,103.73,-103.73,6.35162e-15,64,15.1351)"><stop offset="0%" style="stop-color:white;stop-opacity:0.3"/><stop offset="6%" style="stop-color:white;stop-opacity:0.0705882"/><stop offset="95%" style="stop-color:white;stop-opacity:0.0470588"/><stop offset="100%" style="stop-color:white;stop-opacity:0.117647"/></linearGradient>
        <linearGradient id="_Linear7" x1="0" y1="0" x2="1" y2="0" gradientUnits="userSpaceOnUse" gradientTransform="matrix(6.84861e-16,-11.1846,11.1846,6.84861e-16,75.213,77.7963)"><stop offset="0%" style="stop-color:black;stop-opacity:0.05"/><stop offset="100%" style="stop-color:black;stop-opacity:0"/></linearGradient>
    </defs>
</svg>
