<?xml version="1.0" encoding="UTF-8" standalone="no"?><!DOCTYPE svg PUBLIC "-//W3C//DTD SVG 1.1//EN" "http://www.w3.org/Graphics/SVG/1.1/DTD/svg11.dtd"><svg width="100%" height="100%" viewBox="0 0 534 534" version="1.1" xmlns="http://www.w3.org/2000/svg" xmlns:xlink="http://www.w3.org/1999/xlink" xml:space="preserve" style="fill-rule:evenodd;clip-rule:evenodd;stroke-linecap:round;stroke-linejoin:round;"><g id="layer1"><path id="path3041" d="M495.833,491.674c-0.022,13.713 -103.465,24.996 -229.166,24.996c-125.702,0 -229.144,-11.283 -229.167,-24.996c0,-0.001 0,-0.003 0,-0.004c0,-13.715 103.45,-25 229.167,-25c125.717,0 229.166,11.285 229.166,25c0,0.001 0,0.003 0,0.004Z" style="fill:url(#_Radial1);fill-rule:nonzero;"/><g id="g3712"><g opacity="0.4"><rect id="rect2801" x="432.456" y="483.341" width="59.211" height="20.833" style="fill:url(#_Radial2);"/><rect id="rect3696" x="41.667" y="483.341" width="59.211" height="20.833" style="fill:url(#_Radial3);"/><rect id="rect3700" x="100.877" y="483.341" width="331.579" height="20.833" style="fill:url(#_Linear4);"/></g></g><path id="rect5505-21-3" d="M479.167,85.417c0,-10.349 -8.402,-18.75 -18.75,-18.75l-387.5,0c-10.349,0 -18.75,8.401 -18.75,18.75l0,387.5c0,10.348 8.401,18.75 18.75,18.75l387.5,0c10.348,0 18.75,-8.402 18.75,-18.75l0,-387.5Z" style="fill:url(#_Radial5);"/><path id="rect6741-7" d="M477.083,85.424c0,-9.198 -7.468,-16.666 -16.666,-16.666l-387.5,0c-9.199,0 -16.667,7.468 -16.667,16.666l0,387.5c0,9.199 7.468,16.667 16.667,16.667l387.5,0c9.198,0 16.666,-7.468 16.666,-16.667l0,-387.5Z" style="fill:none;stroke:url(#_Linear6);stroke-width:4.17px;"/><path id="rect5505-21-3-1" d="M481.25,85.424c0,-11.498 -9.335,-20.833 -20.833,-20.833l-387.5,0c-11.499,0 -20.834,9.335 -20.834,20.833l0,387.5c0,11.498 9.335,20.834 20.834,20.834l387.5,0c11.498,0 20.833,-9.336 20.833,-20.834l0,-387.5Z" style="fill:none;stroke:#000;stroke-opacity:0.25;stroke-width:4.17px;stroke-linecap:butt;stroke-linejoin:miter;"/></g><g id="Layer_2"><g><path d="M194.413,140.912c8.991,3.858 18.09,3.831 27.296,0l0,14.875c-9.311,3.419 -18.412,3.456 -27.296,0l0,-14.875" style="fill:url(#_Linear7);"/><path d="M247.765,241.894c-1.961,46.793 -3.923,98.586 -5.885,145.379c-1.962,31.819 -66.046,31.195 -68.008,0c-1.962,-46.793 -5.886,-145.379 -5.886,-145.379l79.779,0" style="fill:url(#_Linear8);"/><path d="M171.409,284.298c24.217,11.828 48.479,11.576 72.783,0l-1.724,52.709c-22.926,11.161 -45.996,11.403 -69.22,0l-1.839,-52.709Z" style="fill:#6d4f7b;"/><ellipse cx="207.909" cy="241.894" rx="38.384" ry="13.37" style="fill:url(#_Radial9);stroke:url(#_Linear10);stroke-width:2.99px;stroke-linejoin:miter;"/><path d="M195.695,135.516c7.511,7.292 15.763,7.098 24.733,0" style="fill:none;stroke:#fff;stroke-width:2.66px;stroke-linecap:butt;"/><path d="M195.695,132.854c7.511,7.292 15.763,7.099 24.733,0" style="fill:none;stroke:#919191;stroke-width:2.66px;stroke-linecap:butt;"/><path d="M246.293,238.647c0,7.379 -17.199,13.37 -38.384,13.37c-21.185,0 -38.384,-5.991 -38.384,-13.37" style="fill:none;stroke:url(#_Radial11);stroke-width:3.35px;"/><path d="M169.345,245.3c2.177,47.162 3.628,94.323 5.805,140.758c2.176,31.925 63.123,31.199 65.3,0c2.177,-47.161 3.628,-94.322 5.804,-140.758c1.451,-33.375 -24.669,-30.473 -24.669,-52.965c0,-22.493 0,-38.455 0,-58.045c0,-1.451 -1.451,-2.902 -2.902,-2.902c-7.255,0 -13.785,0 -21.041,0c-1.451,0 -2.902,1.451 -2.902,2.902c0,19.59 0,34.827 0,56.594c0,24.669 -26.846,21.041 -25.395,54.416" style="fill:none;stroke:#919191;stroke-width:3.35px;stroke-linecap:butt;stroke-linejoin:miter;stroke-miterlimit:10;"/><path d="M169.345,245.3c2.177,47.162 3.628,94.323 5.805,140.758c2.176,31.925 63.123,31.199 65.3,0c2.177,-47.161 3.628,-94.322 5.804,-140.758c1.451,-33.375 -24.669,-30.473 -24.669,-52.965c0,-22.493 0,-38.455 0,-58.045c0,-1.451 -1.451,-2.902 -2.902,-2.902c-7.255,0 -13.785,0 -21.041,0c-1.451,0 -2.902,1.451 -2.902,2.902c0,19.59 0,34.827 0,56.594c0,24.669 -26.846,21.041 -25.395,54.416" style="fill:url(#_Linear12);"/><path d="M182.67,396.625c13.808,16.852 55.29,11.748 55.013,-13.123c1.989,-45.668 3.315,-91.336 5.304,-136.302" style="fill:none;stroke:url(#_Linear13);stroke-width:3.35px;stroke-linejoin:miter;"/><path d="M176.421,239.888c0,0 4.501,2.952 8.784,3.74c4.986,0.916 11.551,1.145 11.551,1.145l3.224,136.295c0,0 -1.58,10.453 -8.03,10.038c-6.571,-0.422 -9.398,-6.478 -9.915,-11.517c-2.589,-25.204 -5.614,-139.701 -5.614,-139.701Z" style="fill:url(#_Linear14);"/><path d="M199.778,173.194c0,0 1.339,20.873 0,27.873c-1.017,5.32 -9.184,11.538 -8.031,14.124c1.152,2.586 12.455,3.744 14.946,1.39c2.492,-2.354 0,-10.343 0,-15.514c0,-7.231 0,-25.178 0,-25.178c-2.631,-0.337 -4.863,-1.36 -6.915,-2.695Z" style="fill:url(#_Linear15);"/></g><g><path d="M319.778,140.912c8.991,3.858 18.09,3.831 27.296,0l0,14.875c-9.311,3.419 -18.412,3.456 -27.296,0l0,-14.875" style="fill:url(#_Linear16);"/><path d="M373.244,241.894c-1.962,46.793 -3.923,98.586 -5.885,145.379c-1.962,31.819 -66.047,31.195 -68.008,0c-1.962,-46.793 -5.886,-145.379 -5.886,-145.379l79.779,0" style="fill:url(#_Linear17);"/><path d="M296.94,284.298c24.217,11.828 48.479,11.576 72.783,0l-1.724,52.709c-22.926,11.161 -45.996,11.403 -69.22,0l-1.839,-52.709Z" style="fill:#6d4f7b;"/><ellipse cx="333.388" cy="241.894" rx="38.384" ry="13.37" style="fill:url(#_Radial18);stroke:url(#_Linear19);stroke-width:2.99px;stroke-linejoin:miter;"/><path d="M321.174,135.516c7.511,7.292 15.763,7.098 24.732,0" style="fill:none;stroke:#fff;stroke-width:2.66px;stroke-linecap:butt;"/><path d="M321.174,132.854c7.511,7.292 15.763,7.099 24.732,0" style="fill:none;stroke:#919191;stroke-width:2.66px;stroke-linecap:butt;"/><path d="M371.772,238.647c0,7.379 -17.2,13.37 -38.384,13.37c-21.185,0 -38.384,-5.991 -38.384,-13.37" style="fill:none;stroke:url(#_Radial20);stroke-width:3.35px;"/><path d="M294.824,245.3c2.177,47.162 3.628,94.323 5.805,140.758c2.176,31.925 63.123,31.199 65.3,0c2.176,-47.161 3.628,-94.322 5.804,-140.758c1.451,-33.375 -24.669,-30.473 -24.669,-52.965c0,-22.493 0,-38.455 0,-58.045c0,-1.451 -1.451,-2.902 -2.902,-2.902c-7.256,0 -13.786,0 -21.041,0c-1.451,0 -2.902,1.451 -2.902,2.902c0,19.59 0,34.827 0,56.594c0,24.669 -26.846,21.041 -25.395,54.416" style="fill:none;stroke:#919191;stroke-width:3.35px;stroke-linecap:butt;stroke-linejoin:miter;stroke-miterlimit:10;"/><path d="M294.876,245.3c2.177,47.162 3.628,94.323 5.804,140.758c2.177,31.925 63.124,31.199 65.301,0c2.176,-47.161 3.627,-94.322 5.804,-140.758c1.451,-33.375 -24.669,-30.473 -24.669,-52.965c0,-22.493 0,-38.455 0,-58.045c0,-1.451 -1.451,-2.902 -2.902,-2.902c-7.256,0 -13.786,0 -21.041,0c-1.451,0 -2.902,1.451 -2.902,2.902c0,19.59 0,34.827 0,56.594c0,24.669 -26.846,21.041 -25.395,54.416" style="fill:url(#_Linear21);"/><path d="M308.149,396.625c13.808,16.852 55.29,11.748 55.013,-13.123c1.989,-45.668 3.315,-91.336 5.304,-136.302" style="fill:none;stroke:url(#_Linear22);stroke-width:3.35px;stroke-linejoin:miter;"/><path d="M301.9,239.888c0,0 4.501,2.952 8.784,3.74c4.986,0.916 11.551,1.145 11.551,1.145l3.223,136.295c0,0 -1.579,10.453 -8.029,10.038c-6.571,-0.422 -9.398,-6.478 -9.916,-11.517c-2.588,-25.204 -5.613,-139.701 -5.613,-139.701Z" style="fill:url(#_Linear23);"/><path d="M325.257,173.194c0,0 1.339,20.873 0,27.873c-1.017,5.32 -9.184,11.538 -8.031,14.124c1.152,2.586 12.455,3.744 14.946,1.39c2.491,-2.354 0,-10.343 0,-15.514c0,-7.231 0,-25.178 0,-25.178c-2.631,-0.337 -4.863,-1.36 -6.915,-2.695Z" style="fill:url(#_Linear24);"/></g><g><path d="M254.235,126.558l0,17.697c10.03,6.356 20.199,6.424 30.513,0l0,-17.697c-10.146,6.921 -20.317,6.894 -30.513,0Z" style="fill:url(#_Linear25);"/><path d="M314.457,240.937c-2.177,54.417 -4.354,114.648 -6.53,169.065c-2.177,37.003 -73.282,36.278 -75.458,0c-2.177,-54.417 -6.53,-169.065 -6.53,-169.065l88.518,0" style="fill:url(#_Linear26);"/><path d="M227.646,284.287c28.341,13.842 56.734,13.547 85.177,0l-2.018,61.685c-26.83,13.06 -53.829,13.344 -81.007,0l-2.152,-61.685Z" style="fill:#ff0d0d;"/><ellipse cx="270.234" cy="240.937" rx="42.589" ry="15.549" style="fill:url(#_Radial27);stroke:url(#_Linear28);stroke-width:3.35px;stroke-linejoin:miter;"/><path d="M312.823,237.319c0,8.582 -19.083,15.549 -42.589,15.549c-23.505,0 -42.588,-6.967 -42.588,-15.549" style="fill:none;stroke:url(#_Radial29);stroke-width:3.35px;"/><path d="M254.655,120.036c9.441,9.166 19.812,8.923 31.086,0" style="fill:none;stroke:#fff;stroke-width:3.35px;stroke-linecap:butt;"/><path d="M254.655,116.691c9.441,9.165 19.812,8.922 31.086,0" style="fill:none;stroke:#919191;stroke-width:3.35px;stroke-linecap:butt;"/><path d="M314.457,246.752c-2.177,54.416 -4.354,108.833 -6.53,163.25c-2.177,37.003 -73.282,36.278 -75.458,0c-2.177,-54.417 -4.354,-108.834 -6.53,-163.25c-1.451,-38.455 29.022,-35.553 29.022,-60.947c0,-26.12 -0.726,-44.259 -0.726,-67.477c0,-2.177 1.452,-3.628 3.628,-3.628c7.981,0 15.962,0 23.944,0c2.176,0 3.627,1.451 3.627,3.628c0,22.492 -0.725,40.631 -0.725,66.026c0.725,27.571 31.924,23.217 29.748,62.398" style="fill:none;stroke:#919191;stroke-width:3.35px;stroke-linecap:butt;stroke-linejoin:miter;stroke-miterlimit:10;"/><path d="M314.457,246.752c-2.177,54.416 -4.354,108.833 -6.53,163.25c-2.177,37.003 -73.282,36.278 -75.458,0c-2.177,-54.417 -4.354,-108.834 -6.53,-163.25c-1.451,-38.455 29.022,-35.553 29.022,-60.947c0,-26.12 -0.726,-44.259 -0.726,-67.477c0,-2.177 1.452,-3.628 3.628,-3.628c7.981,0 15.962,0 23.944,0c2.176,0 3.627,1.451 3.627,3.628c0,22.492 -0.725,40.631 -0.725,66.026c0.725,27.571 31.924,23.217 29.748,62.398" style="fill:url(#_Linear30);"/><path d="M310.805,248.565c-1.996,52.951 -3.992,105.901 -5.989,158.852c-0.357,31.403 -48.585,32.884 -63.02,16.219" style="fill:none;stroke:url(#_Linear31);stroke-width:3.34px;stroke-linejoin:miter;"/><path d="M260.144,160.949c0,0 1.682,26.235 0,35.033c-1.279,6.686 -11.543,14.503 -10.095,17.753c1.449,3.25 15.655,4.706 18.786,1.747c3.131,-2.959 0,-13 0,-19.5c0,-9.089 0,-31.645 0,-31.645c-3.307,-0.424 -6.113,-1.71 -8.691,-3.388Z" style="fill:url(#_Linear32);"/><path d="M234.303,248.565c0,0 4.501,2.953 8.784,3.74c4.985,0.917 11.551,1.146 11.551,1.146l3.223,136.294c0,0 -1.579,10.454 -8.029,10.039c-6.571,-0.422 -9.398,-6.478 -9.916,-11.518c-2.588,-25.203 -5.613,-139.701 -5.613,-139.701Z" style="fill:url(#_Linear33);"/></g></g><defs><radialGradient id="_Radial1" cx="0" cy="0" r="1" gradientUnits="userSpaceOnUse" gradientTransform="matrix(229.167,0,0,25,266.667,491.674)"><stop offset="0%" style="stop-color:#000;stop-opacity:0.2"/><stop offset="100%" style="stop-color:#000;stop-opacity:0"/></radialGradient><radialGradient id="_Radial2" cx="0" cy="0" r="1" gradientUnits="userSpaceOnUse" gradientTransform="matrix(59.3226,0,0,10.4167,432.373,493.758)"><stop offset="0%" style="stop-color:#181818;stop-opacity:1"/><stop offset="100%" style="stop-color:#181818;stop-opacity:0"/></radialGradient><radialGradient id="_Radial3" cx="0" cy="0" r="1" gradientUnits="userSpaceOnUse" gradientTransform="matrix(-59.3226,-0,-0,-10.4167,100.96,493.758)"><stop offset="0%" style="stop-color:#181818;stop-opacity:1"/><stop offset="100%" style="stop-color:#181818;stop-opacity:0"/></radialGradient><linearGradient id="_Linear4" x1="0" y1="0" x2="1" y2="0" gradientUnits="userSpaceOnUse" gradientTransform="matrix(5.09635e-15,-20.9175,83.2297,1.28083e-15,279.197,504.257)"><stop offset="0%" style="stop-color:#181818;stop-opacity:0"/><stop offset="50%" style="stop-color:#181818;stop-opacity:1"/><stop offset="100%" style="stop-color:#181818;stop-opacity:0"/></linearGradient><radialGradient id="_Radial5" cx="0" cy="0" r="1" gradientUnits="userSpaceOnUse" gradientTransform="matrix(2.17651e-06,500.038,-500.038,2.17651e-06,266.667,65.4451)"><stop offset="0%" style="stop-color:#fafafa;stop-opacity:1"/><stop offset="100%" style="stop-color:#e1e1e1;stop-opacity:1"/></radialGradient><linearGradient id="_Linear6" x1="0" y1="0" x2="1" y2="0" gradientUnits="userSpaceOnUse" gradientTransform="matrix(2.55394e-14,417.089,-417.089,2.55394e-14,266.667,69.7897)"><stop offset="0%" style="stop-color:#fff;stop-opacity:1"/><stop offset="3%" style="stop-color:#fff;stop-opacity:0.235294"/><stop offset="96%" style="stop-color:#fff;stop-opacity:0.156863"/><stop offset="100%" style="stop-color:#fff;stop-opacity:0.392157"/></linearGradient><linearGradient id="_Linear7" x1="0" y1="0" x2="1" y2="0" gradientUnits="userSpaceOnUse" gradientTransform="matrix(27.2958,14.7408,-14.7408,27.2958,194.413,140.912)"><stop offset="0%" style="stop-color:#856097;stop-opacity:1"/><stop offset="100%" style="stop-color:#523b5c;stop-opacity:1"/></linearGradient><linearGradient id="_Linear8" x1="0" y1="0" x2="1" y2="0" gradientUnits="userSpaceOnUse" gradientTransform="matrix(72.2244,154.231,-161.652,68.9089,167.941,241.894)"><stop offset="0%" style="stop-color:#4c3756;stop-opacity:1"/><stop offset="100%" style="stop-color:#2b1f31;stop-opacity:1"/></linearGradient><radialGradient id="_Radial9" cx="0" cy="0" r="1" gradientUnits="userSpaceOnUse" gradientTransform="matrix(131.622,18.5364,-192.305,12.6871,176.633,240.517)"><stop offset="0%" style="stop-color:#594065;stop-opacity:1"/><stop offset="100%" style="stop-color:#291d2e;stop-opacity:1"/></radialGradient><linearGradient id="_Linear10" x1="0" y1="0" x2="1" y2="0" gradientUnits="userSpaceOnUse" gradientTransform="matrix(76.768,0,0,26.7404,169.525,241.894)"><stop offset="0%" style="stop-color:#594065;stop-opacity:1"/><stop offset="100%" style="stop-color:#291d2e;stop-opacity:1"/></linearGradient><radialGradient id="_Radial11" cx="0" cy="0" r="1" gradientUnits="userSpaceOnUse" gradientTransform="matrix(76.768,0,0,26.7404,169.525,238.647)"><stop offset="0%" style="stop-color:#fff;stop-opacity:0"/><stop offset="40%" style="stop-color:#fff;stop-opacity:0.109804"/><stop offset="85%" style="stop-color:#fff;stop-opacity:0.403922"/><stop offset="93%" style="stop-color:#fff;stop-opacity:0.113725"/><stop offset="100%" style="stop-color:#fff;stop-opacity:0"/></radialGradient><linearGradient id="_Linear12" x1="0" y1="0" x2="1" y2="0" gradientUnits="userSpaceOnUse" gradientTransform="matrix(140.495,261.208,-261.208,140.495,167.986,187.964)"><stop offset="0%" style="stop-color:#000;stop-opacity:0"/><stop offset="100%" style="stop-color:#594065;stop-opacity:1"/></linearGradient><linearGradient id="_Linear13" x1="0" y1="0" x2="1" y2="0" gradientUnits="userSpaceOnUse" gradientTransform="matrix(70.3912,0,0,269.529,172.649,271.66)"><stop offset="0%" style="stop-color:#fff;stop-opacity:0"/><stop offset="77%" style="stop-color:#fff;stop-opacity:0.121569"/><stop offset="87%" style="stop-color:#fff;stop-opacity:0.231373"/><stop offset="100%" style="stop-color:#919191;stop-opacity:0"/></linearGradient><linearGradient id="_Linear14" x1="0" y1="0" x2="1" y2="0" gradientUnits="userSpaceOnUse" gradientTransform="matrix(22.643,0,0,143.417,174.816,318.039)"><stop offset="0%" style="stop-color:#fff;stop-opacity:0.270588"/><stop offset="100%" style="stop-color:#000;stop-opacity:0"/></linearGradient><linearGradient id="_Linear15" x1="0" y1="0" x2="1" y2="0" gradientUnits="userSpaceOnUse" gradientTransform="matrix(42.9439,19.6508,-19.6508,42.9439,190.285,187.665)"><stop offset="0%" style="stop-color:#fff;stop-opacity:0.75"/><stop offset="100%" style="stop-color:#a6a6a6;stop-opacity:0"/></linearGradient><linearGradient id="_Linear16" x1="0" y1="0" x2="1" y2="0" gradientUnits="userSpaceOnUse" gradientTransform="matrix(27.2958,14.7408,-14.7408,27.2958,319.778,140.912)"><stop offset="0%" style="stop-color:#856097;stop-opacity:1"/><stop offset="100%" style="stop-color:#523b5c;stop-opacity:1"/></linearGradient><linearGradient id="_Linear17" x1="0" y1="0" x2="1" y2="0" gradientUnits="userSpaceOnUse" gradientTransform="matrix(72.2244,154.231,-161.652,68.9089,293.42,241.894)"><stop offset="0%" style="stop-color:#4c3756;stop-opacity:1"/><stop offset="100%" style="stop-color:#2b1f31;stop-opacity:1"/></linearGradient><radialGradient id="_Radial18" cx="0" cy="0" r="1" gradientUnits="userSpaceOnUse" gradientTransform="matrix(131.622,18.5364,-192.305,12.6871,302.112,240.517)"><stop offset="0%" style="stop-color:#594065;stop-opacity:1"/><stop offset="100%" style="stop-color:#291d2e;stop-opacity:1"/></radialGradient><linearGradient id="_Linear19" x1="0" y1="0" x2="1" y2="0" gradientUnits="userSpaceOnUse" gradientTransform="matrix(76.768,0,0,26.7404,295.004,241.894)"><stop offset="0%" style="stop-color:#594065;stop-opacity:1"/><stop offset="100%" style="stop-color:#291d2e;stop-opacity:1"/></linearGradient><radialGradient id="_Radial20" cx="0" cy="0" r="1" gradientUnits="userSpaceOnUse" gradientTransform="matrix(76.768,0,0,26.7404,295.004,238.647)"><stop offset="0%" style="stop-color:#fff;stop-opacity:0"/><stop offset="40%" style="stop-color:#fff;stop-opacity:0.109804"/><stop offset="85%" style="stop-color:#fff;stop-opacity:0.403922"/><stop offset="93%" style="stop-color:#fff;stop-opacity:0.113725"/><stop offset="100%" style="stop-color:#fff;stop-opacity:0"/></radialGradient><linearGradient id="_Linear21" x1="0" y1="0" x2="1" y2="0" gradientUnits="userSpaceOnUse" gradientTransform="matrix(140.495,261.208,-261.208,140.495,293.517,187.964)"><stop offset="0%" style="stop-color:#000;stop-opacity:0"/><stop offset="100%" style="stop-color:#594065;stop-opacity:1"/></linearGradient><linearGradient id="_Linear22" x1="0" y1="0" x2="1" y2="0" gradientUnits="userSpaceOnUse" gradientTransform="matrix(70.3912,0,0,269.529,298.128,271.66)"><stop offset="0%" style="stop-color:#fff;stop-opacity:0"/><stop offset="77%" style="stop-color:#fff;stop-opacity:0.121569"/><stop offset="87%" style="stop-color:#fff;stop-opacity:0.231373"/><stop offset="100%" style="stop-color:#919191;stop-opacity:0"/></linearGradient><linearGradient id="_Linear23" x1="0" y1="0" x2="1" y2="0" gradientUnits="userSpaceOnUse" gradientTransform="matrix(22.643,0,0,143.417,300.295,318.039)"><stop offset="0%" style="stop-color:#fff;stop-opacity:0.270588"/><stop offset="100%" style="stop-color:#000;stop-opacity:0"/></linearGradient><linearGradient id="_Linear24" x1="0" y1="0" x2="1" y2="0" gradientUnits="userSpaceOnUse" gradientTransform="matrix(42.9439,19.6508,-19.6508,42.9439,315.764,187.665)"><stop offset="0%" style="stop-color:#fff;stop-opacity:0.75"/><stop offset="100%" style="stop-color:#a6a6a6;stop-opacity:0"/></linearGradient><linearGradient id="_Linear25" x1="0" y1="0" x2="1" y2="0" gradientUnits="userSpaceOnUse" gradientTransform="matrix(30.5122,18.4877,-18.4877,30.5122,254.235,126.819)"><stop offset="0%" style="stop-color:#ff0d0d;stop-opacity:1"/><stop offset="100%" style="stop-color:#a30000;stop-opacity:1"/></linearGradient><linearGradient id="_Linear26" x1="0" y1="0" x2="1" y2="0" gradientUnits="userSpaceOnUse" gradientTransform="matrix(80.1359,179.359,-179.359,80.1359,225.889,240.937)"><stop offset="0%" style="stop-color:#df0203;stop-opacity:1"/><stop offset="100%" style="stop-color:#690307;stop-opacity:1"/></linearGradient><radialGradient id="_Radial27" cx="0" cy="0" r="1" gradientUnits="userSpaceOnUse" gradientTransform="matrix(146.039,21.5564,-213.37,14.7541,235.533,239.336)"><stop offset="0%" style="stop-color:#fd0000;stop-opacity:1"/><stop offset="100%" style="stop-color:#6a0000;stop-opacity:1"/></radialGradient><linearGradient id="_Linear28" x1="0" y1="0" x2="1" y2="0" gradientUnits="userSpaceOnUse" gradientTransform="matrix(85.1773,0,0,31.0971,227.646,240.937)"><stop offset="0%" style="stop-color:#fd0000;stop-opacity:1"/><stop offset="100%" style="stop-color:#6a0000;stop-opacity:1"/></linearGradient><radialGradient id="_Radial29" cx="0" cy="0" r="1" gradientUnits="userSpaceOnUse" gradientTransform="matrix(85.1773,0,0,31.0971,227.646,237.319)"><stop offset="0%" style="stop-color:#fff;stop-opacity:0"/><stop offset="40%" style="stop-color:#fff;stop-opacity:0.159925"/><stop offset="85%" style="stop-color:#fff;stop-opacity:0.588297"/><stop offset="93%" style="stop-color:#fff;stop-opacity:0.165637"/><stop offset="100%" style="stop-color:#fff;stop-opacity:0"/></radialGradient><linearGradient id="_Linear30" x1="0" y1="0" x2="1" y2="0" gradientUnits="userSpaceOnUse" gradientTransform="matrix(227.567,197.412,-197.412,227.567,192.32,225.388)"><stop offset="0%" style="stop-color:#000;stop-opacity:0"/><stop offset="100%" style="stop-color:#a71946;stop-opacity:1"/></linearGradient><linearGradient id="_Linear31" x1="0" y1="0" x2="1" y2="0" gradientUnits="userSpaceOnUse" gradientTransform="matrix(81.3319,0,0,314.085,229.573,277.115)"><stop offset="0%" style="stop-color:#fff;stop-opacity:0"/><stop offset="73%" style="stop-color:#fff;stop-opacity:0.278431"/><stop offset="88%" style="stop-color:#fff;stop-opacity:0.403922"/><stop offset="100%" style="stop-color:#fff;stop-opacity:0"/></linearGradient><linearGradient id="_Linear32" x1="0" y1="0" x2="1" y2="0" gradientUnits="userSpaceOnUse" gradientTransform="matrix(53.9756,24.6988,-24.6988,53.9756,248.212,179.137)"><stop offset="0%" style="stop-color:#fff;stop-opacity:0.75"/><stop offset="100%" style="stop-color:#a6a6a6;stop-opacity:0"/></linearGradient><linearGradient id="_Linear33" x1="0" y1="0" x2="1" y2="0" gradientUnits="userSpaceOnUse" gradientTransform="matrix(22.643,0,0,143.417,232.698,326.717)"><stop offset="0%" style="stop-color:#fff;stop-opacity:0.270588"/><stop offset="100%" style="stop-color:#000;stop-opacity:0"/></linearGradient></defs></svg>