<?xml version="1.0" encoding="UTF-8" standalone="no"?>
<!-- Created with Inkscape (http://www.inkscape.org/) -->
<svg
   xmlns:svg="http://www.w3.org/2000/svg"
   xmlns="http://www.w3.org/2000/svg"
   xmlns:xlink="http://www.w3.org/1999/xlink"
   xmlns:inkscape="http://www.inkscape.org/namespaces/inkscape"
   version="1.0"
   width="48"
   height="48"
   id="svg2"
   style="display:inline">
  <defs
     id="defs4">
    <linearGradient
       id="linearGradient6998">
      <stop
         id="stop7000"
         style="stop-color:#000000;stop-opacity:1"
         offset="0" />
      <stop
         id="stop7002"
         style="stop-color:#000000;stop-opacity:0"
         offset="1" />
    </linearGradient>
    <linearGradient
       id="linearGradient6424">
      <stop
         id="stop6426"
         style="stop-color:#eeeeec;stop-opacity:1"
         offset="0" />
      <stop
         id="stop6428"
         style="stop-color:#eeeeec;stop-opacity:0"
         offset="1" />
    </linearGradient>
    <linearGradient
       id="linearGradient5402">
      <stop
         id="stop5404"
         style="stop-color:#000000;stop-opacity:1"
         offset="0" />
      <stop
         id="stop5406"
         style="stop-color:#000000;stop-opacity:0"
         offset="1" />
    </linearGradient>
    <linearGradient
       id="linearGradient5220">
      <stop
         id="stop5222"
         style="stop-color:#0c1d35;stop-opacity:1"
         offset="0" />
      <stop
         id="stop5224"
         style="stop-color:#ffffff;stop-opacity:0.29378501"
         offset="1" />
    </linearGradient>
    <linearGradient
       id="linearGradient2808">
      <stop
         id="stop2810"
         style="stop-color:#ffffff;stop-opacity:1"
         offset="0" />
      <stop
         id="stop2812"
         style="stop-color:#ffffff;stop-opacity:0.29378501"
         offset="1" />
    </linearGradient>
    <linearGradient
       id="linearGradient5440">
      <stop
         id="stop5442"
         style="stop-color:#eeeeec;stop-opacity:1"
         offset="0" />
      <stop
         id="stop5444"
         style="stop-color:#a2a298;stop-opacity:1"
         offset="1" />
    </linearGradient>
    <linearGradient
       id="linearGradient5443">
      <stop
         id="stop5445"
         style="stop-color:#ffffff;stop-opacity:1"
         offset="0" />
      <stop
         id="stop5447"
         style="stop-color:#ffffff;stop-opacity:0"
         offset="1" />
    </linearGradient>
    <linearGradient
       id="linearGradient5210">
      <stop
         id="stop5212"
         style="stop-color:#729fcf;stop-opacity:1"
         offset="0" />
      <stop
         id="stop5214"
         style="stop-color:#295ead;stop-opacity:1"
         offset="1" />
    </linearGradient>
    <linearGradient
       id="linearGradient6696">
      <stop
         id="stop6698"
         style="stop-color:#ffffff;stop-opacity:1"
         offset="0" />
      <stop
         id="stop6700"
         style="stop-color:#ffffff;stop-opacity:0"
         offset="1" />
    </linearGradient>
    <linearGradient
       x1="19.5"
       y1="17.750786"
       x2="19.5"
       y2="7.8089299"
       id="linearGradient4369"
       xlink:href="#linearGradient6696"
       gradientUnits="userSpaceOnUse"
       gradientTransform="translate(-1,-1)" />
    <linearGradient
       id="linearGradient6576">
      <stop
         id="stop6578"
         style="stop-color:#ffffff;stop-opacity:1"
         offset="0" />
      <stop
         id="stop6580"
         style="stop-color:#ffffff;stop-opacity:0"
         offset="1" />
    </linearGradient>
    <linearGradient
       x1="93.686363"
       y1="11.614545"
       x2="96.311363"
       y2="3.2395456"
       id="linearGradient4367"
       xlink:href="#linearGradient6576"
       gradientUnits="userSpaceOnUse"
       gradientTransform="matrix(0.707107,-0.707107,0.707107,0.707107,-58.4607,73.5066)" />
    <linearGradient
       id="linearGradient5437">
      <stop
         id="stop5439"
         style="stop-color:#2e3436;stop-opacity:1"
         offset="0" />
      <stop
         id="stop5441"
         style="stop-color:#729fcf;stop-opacity:1"
         offset="1" />
    </linearGradient>
    <linearGradient
       x1="-5.7610831"
       y1="40.212852"
       x2="-12.691682"
       y2="44.514675"
       id="linearGradient4365"
       xlink:href="#linearGradient5437"
       gradientUnits="userSpaceOnUse"
       gradientTransform="matrix(0.998223,0,0,1.1272,101.975,-16.992)" />
    <linearGradient
       id="linearGradient6525">
      <stop
         id="stop6527"
         style="stop-color:#ffffff;stop-opacity:1"
         offset="0" />
      <stop
         id="stop6529"
         style="stop-color:#babdb6;stop-opacity:1"
         offset="1" />
    </linearGradient>
    <linearGradient
       x1="94"
       y1="43.240894"
       x2="94"
       y2="40.766018"
       id="linearGradient4363"
       xlink:href="#linearGradient6525"
       gradientUnits="userSpaceOnUse" />
    <linearGradient
       id="linearGradient6791">
      <stop
         id="stop6793"
         style="stop-color:#ffffff;stop-opacity:1"
         offset="0" />
      <stop
         id="stop6795"
         style="stop-color:#ffffff;stop-opacity:0"
         offset="1" />
    </linearGradient>
    <linearGradient
       x1="99.686363"
       y1="7.6145449"
       x2="75.039978"
       y2="16.260931"
       id="linearGradient4360"
       xlink:href="#linearGradient6791"
       gradientUnits="userSpaceOnUse" />
    <linearGradient
       id="linearGradient6707">
      <stop
         id="stop6709"
         style="stop-color:#888a85;stop-opacity:1"
         offset="0" />
      <stop
         id="stop6711"
         style="stop-color:#555753;stop-opacity:1"
         offset="1" />
    </linearGradient>
    <linearGradient
       x1="101.76143"
       y1="23.366385"
       x2="84.3106"
       y2="40.943737"
       id="linearGradient4357"
       xlink:href="#linearGradient6707"
       gradientUnits="userSpaceOnUse" />
    <linearGradient
       id="linearGradient6545">
      <stop
         id="stop6547"
         style="stop-color:#d3d7cf;stop-opacity:1"
         offset="0" />
      <stop
         id="stop6549"
         style="stop-color:#eeeeec;stop-opacity:1"
         offset="1" />
    </linearGradient>
    <linearGradient
       x1="101.75"
       y1="16.75"
       x2="84.875"
       y2="23.5"
       id="linearGradient4354"
       xlink:href="#linearGradient6545"
       gradientUnits="userSpaceOnUse" />
    <radialGradient
       cx="21.96048"
       cy="34.498356"
       r="12.727922"
       fx="21.96048"
       fy="34.498356"
       id="radialGradient4351"
       xlink:href="#linearGradient6221"
       gradientUnits="userSpaceOnUse"
       gradientTransform="matrix(0.982963,0,0,0.508943,0.37414,16.8414)" />
    <linearGradient
       id="linearGradient6221">
      <stop
         id="stop6223"
         style="stop-color:#000000;stop-opacity:1"
         offset="0" />
      <stop
         id="stop6225"
         style="stop-color:#000000;stop-opacity:0"
         offset="1" />
    </linearGradient>
    <radialGradient
       cx="21.96048"
       cy="34.498356"
       r="12.727922"
       fx="21.96048"
       fy="34.498356"
       id="radialGradient4349"
       xlink:href="#linearGradient6221"
       gradientUnits="userSpaceOnUse"
       gradientTransform="matrix(0.982963,0,0,0.508943,0.37414,16.8414)" />
    <linearGradient
       id="linearGradient4402">
      <stop
         id="stop4404"
         style="stop-color:#e80000;stop-opacity:1"
         offset="0" />
      <stop
         id="stop4406"
         style="stop-color:#490000;stop-opacity:1"
         offset="1" />
    </linearGradient>
    <linearGradient
       id="linearGradient3452">
      <stop
         id="stop3454"
         style="stop-color:#ffffff;stop-opacity:1"
         offset="0" />
      <stop
         id="stop3456"
         style="stop-color:#ffffff;stop-opacity:0"
         offset="1" />
    </linearGradient>
    <linearGradient
       id="linearGradient3442">
      <stop
         id="stop3444"
         style="stop-color:#000000;stop-opacity:1"
         offset="0" />
      <stop
         id="stop3446"
         style="stop-color:#000000;stop-opacity:0"
         offset="1" />
    </linearGradient>
    <linearGradient
       id="linearGradient3373">
      <stop
         id="stop3375"
         style="stop-color:#000000;stop-opacity:1"
         offset="0" />
      <stop
         id="stop3377"
         style="stop-color:#373737;stop-opacity:0"
         offset="1" />
    </linearGradient>
    <linearGradient
       id="linearGradient3346">
      <stop
         id="stop3348"
         style="stop-color:#737373;stop-opacity:1"
         offset="0" />
      <stop
         id="stop3350"
         style="stop-color:#000000;stop-opacity:0"
         offset="1" />
    </linearGradient>
    <linearGradient
       id="linearGradient3228">
      <stop
         id="stop3230"
         style="stop-color:#373737;stop-opacity:1"
         offset="0" />
      <stop
         id="stop3232"
         style="stop-color:#373737;stop-opacity:0"
         offset="1" />
    </linearGradient>
    <linearGradient
       id="linearGradient3220">
      <stop
         id="stop3222"
         style="stop-color:#373737;stop-opacity:1"
         offset="0" />
      <stop
         id="stop3224"
         style="stop-color:#ffffff;stop-opacity:1"
         offset="1" />
    </linearGradient>
    <linearGradient
       id="linearGradient3198">
      <stop
         id="stop3200"
         style="stop-color:#ffffff;stop-opacity:1"
         offset="0" />
      <stop
         id="stop3202"
         style="stop-color:#ffffff;stop-opacity:0"
         offset="1" />
    </linearGradient>
    <linearGradient
       id="linearGradient3189">
      <stop
         id="stop3191"
         style="stop-color:#e40000;stop-opacity:1"
         offset="0" />
      <stop
         id="stop3193"
         style="stop-color:#490000;stop-opacity:1"
         offset="1" />
    </linearGradient>
    <linearGradient
       id="linearGradient3171">
      <stop
         id="stop3173"
         style="stop-color:#fd0000;stop-opacity:1"
         offset="0" />
      <stop
         id="stop3175"
         style="stop-color:#6a0000;stop-opacity:1"
         offset="1" />
    </linearGradient>
    <filter
       height="1.336"
       y="-0.168"
       width="1.1344"
       x="-0.067199998"
       id="filter3391">
      <feGaussianBlur
         id="feGaussianBlur3393"
         stdDeviation="0.14"
         inkscape:collect="always" />
    </filter>
    <filter
       height="1.2801698"
       y="-0.14008497"
       width="1.1580106"
       x="-0.079005308"
       id="filter3436">
      <feGaussianBlur
         id="feGaussianBlur3438"
         stdDeviation="0.3190069"
         inkscape:collect="always" />
    </filter>
    <linearGradient
       id="linearGradient4333">
      <stop
         id="stop4335"
         style="stop-color:#000000;stop-opacity:1"
         offset="0" />
      <stop
         id="stop4337"
         style="stop-color:#000000;stop-opacity:0"
         offset="1" />
    </linearGradient>
    <radialGradient
       cx="21.96048"
       cy="34.498356"
       r="12.727922"
       fx="21.96048"
       fy="34.498356"
       id="radialGradient10802"
       xlink:href="#linearGradient6221"
       gradientUnits="userSpaceOnUse"
       gradientTransform="matrix(0.982963,0,0,0.508943,0.37414,16.8414)" />
    <linearGradient
       x1="24.518135"
       y1="22.429499"
       x2="25.910631"
       y2="23.831284"
       id="linearGradient10804"
       xlink:href="#linearGradient5440"
       gradientUnits="userSpaceOnUse"
       gradientTransform="matrix(0.8416736,-0.2858954,0.2840009,0.8360962,-13.306143,11.995044)" />
    <radialGradient
       cx="21.96048"
       cy="34.498356"
       r="12.727922"
       fx="21.96048"
       fy="34.498356"
       id="radialGradient10806"
       xlink:href="#linearGradient6221"
       gradientUnits="userSpaceOnUse"
       gradientTransform="matrix(0.982963,0,0,0.508943,0.37414,16.8414)" />
    <linearGradient
       x1="-10.69499"
       y1="41.105709"
       x2="-1.0492263"
       y2="41.137775"
       id="linearGradient10808"
       xlink:href="#linearGradient5210"
       gradientUnits="userSpaceOnUse"
       gradientTransform="matrix(0.7252643,0,0,0.8913577,29.294732,-7.7897946)" />
    <linearGradient
       x1="53.58926"
       y1="32.856834"
       x2="69.976395"
       y2="44.960426"
       id="linearGradient10810"
       xlink:href="#linearGradient5443"
       gradientUnits="userSpaceOnUse"
       gradientTransform="matrix(0.8830133,0,0,0.8830137,-25.167086,-3.1747081)" />
    <linearGradient
       x1="-6.9787297"
       y1="37.126617"
       x2="-9.9043236"
       y2="36.848248"
       id="linearGradient10812"
       xlink:href="#linearGradient2808"
       gradientUnits="userSpaceOnUse"
       gradientTransform="matrix(0.5137224,0,0,0.5993429,25.640517,6.1211285)" />
    <linearGradient
       x1="-8.9375"
       y1="40.375"
       x2="-7"
       y2="40.375"
       id="linearGradient10814"
       xlink:href="#linearGradient5220"
       gradientUnits="userSpaceOnUse"
       gradientTransform="matrix(0.4316126,0,0,0.5993413,26.977537,6.07098)" />
    <linearGradient
       x1="57.349243"
       y1="37.496914"
       x2="59.350101"
       y2="37.505516"
       id="linearGradient10816"
       xlink:href="#linearGradient5402"
       gradientUnits="userSpaceOnUse"
       gradientTransform="matrix(0.8830137,0,0,0.8830137,-25.171363,-3.1559025)" />
    <linearGradient
       x1="54.5"
       y1="1.7340142"
       x2="54.5"
       y2="7.1931787"
       id="linearGradient10818"
       xlink:href="#linearGradient6424"
       gradientUnits="userSpaceOnUse"
       gradientTransform="matrix(0.792028,0.3903902,-0.3903902,0.792028,-21.21793,-13.856062)" />
    <radialGradient
       cx="24.32572"
       cy="24.577896"
       r="5.140625"
       fx="24.32572"
       fy="24.577896"
       id="radialGradient10820"
       xlink:href="#linearGradient6998"
       gradientUnits="userSpaceOnUse"
       gradientTransform="matrix(0.4138189,-0.8395604,2.0797389,1.0251023,-47.576375,20.783446)" />
    <radialGradient
       cx="37.375"
       cy="33.1875"
       r="14.625"
       fx="37.375"
       fy="33.1875"
       id="radialGradient10605"
       xlink:href="#linearGradient4333"
       gradientUnits="userSpaceOnUse"
       gradientTransform="matrix(1,0,0,0.226496,0,25.67067)" />
    <radialGradient
       cx="27.5"
       cy="22.61413"
       r="6.5"
       fx="27.5"
       fy="22.61413"
       id="radialGradient10607"
       xlink:href="#linearGradient3346"
       gradientUnits="userSpaceOnUse"
       gradientTransform="matrix(2.3866597,-0.117642,0.1489799,2.9373862,-39.572536,-38.349836)" />
    <linearGradient
       x1="29.454559"
       y1="19.121878"
       x2="20.17613"
       y2="6.103548"
       id="linearGradient10609"
       xlink:href="#linearGradient3228"
       gradientUnits="userSpaceOnUse" />
    <linearGradient
       x1="25.26918"
       y1="12.037592"
       x2="24.159803"
       y2="9.3521738"
       id="linearGradient10611"
       xlink:href="#linearGradient3198"
       gradientUnits="userSpaceOnUse" />
    <linearGradient
       x1="29"
       y1="33"
       x2="19"
       y2="27"
       id="linearGradient10613"
       xlink:href="#linearGradient3220"
       gradientUnits="userSpaceOnUse"
       gradientTransform="matrix(1.551329,0,0,1.529349,-13.231894,-11.862931)" />
    <radialGradient
       cx="26.625"
       cy="26.577381"
       r="12.5"
       fx="26.625"
       fy="26.577381"
       id="radialGradient10615"
       xlink:href="#linearGradient3189"
       gradientUnits="userSpaceOnUse"
       gradientTransform="matrix(1.4717199,-0.4836227,0.1784028,0.5276254,-15.853782,25.128759)" />
    <radialGradient
       cx="25.01705"
       cy="13.191627"
       r="9.7513494"
       fx="25.01705"
       fy="13.191627"
       id="radialGradient10617"
       xlink:href="#linearGradient3171"
       gradientUnits="userSpaceOnUse"
       gradientTransform="matrix(1,0,0,0.4950025,0,5.5549725)" />
    <linearGradient
       x1="27.216721"
       y1="15.98358"
       x2="22.035772"
       y2="7.1351838"
       id="linearGradient10619"
       xlink:href="#linearGradient4402"
       gradientUnits="userSpaceOnUse" />
    <linearGradient
       x1="30.376078"
       y1="25.270369"
       x2="22"
       y2="19"
       id="linearGradient10621"
       xlink:href="#linearGradient3198"
       gradientUnits="userSpaceOnUse"
       gradientTransform="matrix(1.5439563,0,0,1.5428223,-13.002754,-11.785278)" />
    <linearGradient
       x1="17.604616"
       y1="18.3125"
       x2="23"
       y2="18.3125"
       id="linearGradient10623"
       xlink:href="#linearGradient3198"
       gradientUnits="userSpaceOnUse"
       gradientTransform="matrix(1.551329,0,0,1.5293489,-11.904902,-12.881536)" />
    <radialGradient
       cx="18"
       cy="14.18971"
       r="5.5054908"
       fx="18"
       fy="14.18971"
       id="radialGradient10625"
       xlink:href="#linearGradient3452"
       gradientUnits="userSpaceOnUse"
       gradientTransform="matrix(1.551329,0,0,0.2811779,-0.8402834,14.539516)" />
    <linearGradient
       x1="16"
       y1="27.5"
       x2="20.5"
       y2="25.5"
       id="linearGradient10627"
       xlink:href="#linearGradient3373"
       gradientUnits="userSpaceOnUse"
       gradientTransform="translate(-8.0000004,15.967633)" />
    <linearGradient
       x1="16"
       y1="27"
       x2="21.5"
       y2="27"
       id="linearGradient10629"
       xlink:href="#linearGradient3442"
       gradientUnits="userSpaceOnUse"
       gradientTransform="translate(-8.0000004,15.967633)" />
  </defs>
  <g
     id="layer2"
     style="display:inline">
    <g
       transform="matrix(6.1397858,-2.0855311,2.0855311,6.1397858,-12.224538,-552.95219)"
       id="g2721"
       style="display:inline" />
  </g>
  <g
     id="layer8"
     style="display:inline">
    <g
       id="g10559">
      <g
         id="g10561">
        <path
           d="M 52,33.1875 A 14.625,3.3125 0 1 1 22.75,33.1875 A 14.625,3.3125 0 1 1 52,33.1875 z"
           transform="matrix(0.6310473,0,0,0.6898995,-0.6006231,-1.7902006)"
           id="path10563"
           style="opacity:0.07000002;fill:url(#radialGradient10605);fill-opacity:1;stroke:none;stroke-width:1.00199997;stroke-linecap:square;stroke-linejoin:miter;stroke-miterlimit:4;stroke-dasharray:none;stroke-dashoffset:1.20000057;stroke-opacity:1" />
        <g
           transform="matrix(0.7031669,0,0,0.7031669,41.202675,31.783137)"
           id="g10565"
           style="display:inline" />
      </g>
      <g
         id="g10567"
         style="display:inline">
        <path
           d="M 27.43751,11 A 4.4375095,2.1843002 0 1 1 18.56249,11 A 4.4375095,2.1843002 0 1 1 27.43751,11 z"
           transform="matrix(1.9227697,0,0,1.4097191,-20.223704,28.471946)"
           id="path10569"
           style="opacity:0.2;fill:#000000;fill-opacity:1;stroke:#000000;stroke-width:0.61406273;stroke-linecap:round;stroke-linejoin:round;stroke-miterlimit:0;stroke-dasharray:none;stroke-opacity:1;display:inline;filter:url(#filter3436)" />
      </g>
      <g
         id="g10571"
         style="display:inline">
        <path
           d="M 31.756645,4.1952333 C 30.98098,2.6658844 17.01902,2.6658844 16.243355,4.1952333 C 16.243355,6.4892566 13.916362,13.371327 13.916362,19.488722 C 13.916362,25.606118 21.673007,29.42949 24,29.42949 C 26.326993,29.42949 34.083638,25.606118 34.083638,19.488722 C 34.083638,13.371327 31.756645,6.4892566 31.756645,4.1952333 z"
           id="path10573"
           style="fill:url(#radialGradient10607);fill-opacity:1;fill-rule:evenodd;stroke:none;stroke-width:1px;stroke-linecap:round;stroke-linejoin:miter;stroke-opacity:1" />
        <path
           d="M 27.0341,11 A 4.0340996,1.0994399 0 1 1 18.9659,11 A 4.0340996,1.0994399 0 1 1 27.0341,11 z"
           transform="matrix(1.9227697,0,0,1.4097191,-20.223704,-11.291125)"
           id="path10575"
           style="opacity:1;fill:none;fill-opacity:1;stroke:#919191;stroke-width:0.61406273;stroke-linecap:round;stroke-linejoin:round;stroke-miterlimit:0;stroke-dasharray:none;stroke-opacity:1" />
        <path
           d="M 27.43751,11 A 4.4375095,2.1843002 0 1 1 18.56249,11 A 4.4375095,2.1843002 0 1 1 27.43751,11 z"
           transform="matrix(1.9227697,0,0,1.4097191,-20.223704,26.922047)"
           id="path10577"
           style="opacity:1;fill:url(#linearGradient10609);fill-opacity:1;stroke:#888a85;stroke-width:0.61406273;stroke-linecap:round;stroke-linejoin:round;stroke-miterlimit:0;stroke-dasharray:none;stroke-opacity:1" />
        <path
           d="M 26.900623,11 A 3.9006226,1.353747 0 1 1 19.099377,11 A 3.9006226,1.353747 0 1 1 26.900623,11 z"
           transform="matrix(1.9227697,0,0,1.4097191,-20.223704,26.901493)"
           id="path10579"
           style="opacity:1;fill:none;fill-opacity:1;stroke:url(#linearGradient10611);stroke-width:0.61406273;stroke-linecap:round;stroke-linejoin:round;stroke-miterlimit:0;stroke-dasharray:none;stroke-opacity:1" />
        <path
           d="M 20.121678,27.900142 C 21.673007,29.429491 23.224337,31.723514 23.224337,40.134934 C 23.224337,41.664283 23.434152,42.428957 24,42.428957 C 24.565849,42.428957 24.775665,41.664283 24.775665,40.134934 C 24.775665,31.723514 26.326993,29.429491 27.878323,27.900142"
           id="path10581"
           style="fill:url(#linearGradient10613);fill-opacity:1;fill-rule:evenodd;stroke:#888a85;stroke-width:1px;stroke-linecap:round;stroke-linejoin:miter;stroke-opacity:1" />
        <path
           d="M 14,17 C 14,26 21.673007,29.42949 24,29.42949 C 26.326993,29.42949 34,26 34,17"
           id="path10583"
           style="fill:url(#radialGradient10615);fill-opacity:1;fill-rule:evenodd;stroke:none;stroke-width:1px;stroke-linecap:round;stroke-linejoin:miter;stroke-opacity:1" />
        <path
           d="M 27.940789,11 A 4.9407887,1.6272911 0 1 1 18.059211,11 A 4.9407887,1.6272911 0 1 1 27.940789,11 z"
           transform="matrix(1.9227697,0,0,1.4097191,-20.223704,1.6877877)"
           id="path10585"
           style="opacity:1;fill:url(#radialGradient10617);fill-opacity:1;stroke:url(#linearGradient10619);stroke-width:0.61406273;stroke-linecap:round;stroke-linejoin:round;stroke-miterlimit:0;stroke-dasharray:none;stroke-opacity:1;display:inline" />
        <path
           d="M 15,17.5 C 13.5,24 21.5,28.5 24,28.5 C 26.5,28.5 35,24 33,16.5 C 32.5,12.5 32,10.5 31,7"
           id="path10587"
           style="fill:none;fill-rule:evenodd;stroke:url(#linearGradient10621);stroke-width:1px;stroke-linecap:round;stroke-linejoin:miter;stroke-opacity:1" />
        <path
           d="M 18.346014,7 L 23,7 C 23,7 20.673007,16.176093 20.673007,19.999466 C 20.673007,22.293489 22.224336,23.822838 21.448671,24.587512 C 20.673007,25.352187 16.794684,22.369207 16.794684,18.470117 C 16.794684,16.940768 17.570349,12.352721 18.346014,7 z"
           id="path10589"
           style="fill:url(#linearGradient10623);fill-opacity:1;fill-rule:evenodd;stroke:none;stroke-width:1px;stroke-linecap:butt;stroke-linejoin:miter;stroke-opacity:1" />
        <path
           d="M 31.5,5.5 C 31,6 28.038313,6.5499019 23.756645,6.5499019 C 19.474978,6.5499019 17,6 16.5,5.5"
           id="path10591"
           style="fill:none;fill-opacity:1;stroke:#ffffff;stroke-width:1.01098013;stroke-linecap:round;stroke-linejoin:round;stroke-miterlimit:0;stroke-opacity:1" />
        <path
           d="M 33,16.5 C 33,17.355546 29.5,18.5 23.98098,18.549902 C 18.46196,18.599804 15,17.355546 15,16.5"
           id="path10593"
           style="fill:none;fill-opacity:1;stroke:url(#radialGradient10625);stroke-width:1.01098013;stroke-linecap:round;stroke-linejoin:round;stroke-miterlimit:0;stroke-opacity:1" />
      </g>
      <g
         id="g10595"
         style="display:inline">
        <path
           d="M 22,30 C 22,30 22.5,31 24,30.95884 C 25.5,30.91768 26,30 26,30"
           id="path10597"
           style="opacity:0.35;fill:none;fill-rule:evenodd;stroke:#000000;stroke-width:1px;stroke-linecap:round;stroke-linejoin:round;stroke-opacity:1;display:inline" />
        <path
           d="M 7.9999996,43.467633 L 10.499999,42.467633 L 12.968749,42.592633 L 7.9999996,43.467633 z"
           transform="matrix(1.551329,0,0,1.5293489,11.589369,-24.477177)"
           id="path10599"
           style="fill:url(#linearGradient10627);fill-opacity:1;fill-rule:evenodd;stroke:url(#linearGradient10629);stroke-width:0.64922434px;stroke-linecap:round;stroke-linejoin:round;stroke-opacity:1;display:inline;filter:url(#filter3391)" />
      </g>
      <g
         id="g10601"
         style="display:inline">
        <path
           d="M 31.756645,4.1952335 C 30.98098,1.90121 17.01902,1.90121 16.243355,4.1952335 C 16.243355,6.4892569 13.916362,13.371327 13.916362,19.488723 C 13.916362,25.606119 21.673007,29.429491 24,29.429491 C 26.326993,29.429491 34.083638,25.606119 34.083638,19.488723 C 34.083638,13.371327 31.756645,6.4892569 31.756645,4.1952335 z"
           id="path10603"
           style="fill:none;fill-opacity:1;fill-rule:evenodd;stroke:#919191;stroke-width:1px;stroke-linecap:round;stroke-linejoin:miter;stroke-opacity:1" />
      </g>
    </g>
    <g
       transform="matrix(0.9476033,0.3194493,-0.3194493,0.9476033,21.844989,1.4821005)"
       id="g10787"
       style="display:inline">
      <g
         id="g10756">
        <path
           d="M 34.471457,34.299805 A 12.727922,6.3639612 0 1 1 9.0156116,34.299805 A 12.727922,6.3639612 0 1 1 34.471457,34.299805 z"
           transform="matrix(0.7554325,-0.2566015,0.1772681,0.5218758,-14.502466,30.982128)"
           id="path5331"
           style="opacity:0.15;fill:url(#radialGradient10802);fill-opacity:1;stroke:none;stroke-width:1;stroke-linecap:round;stroke-linejoin:round;stroke-miterlimit:4;stroke-dasharray:none;stroke-opacity:1" />
        <g
           id="g10745">
          <path
             d="M 19.967831,6.9366041 L 18.316828,11.000589 L 18.433214,12.739141 L 9.9979547,29.838224 C 9.4813591,31.062832 11.624752,32.196471 12.385868,31.005375 L 20.826542,13.930948 L 22.131275,13.296413 L 24.487117,9.178475 C 24.487117,9.178475 19.967831,6.9366041 19.967831,6.9366041 z"
             id="path5286"
             style="fill:url(#linearGradient10804);fill-opacity:1;stroke:#888a85;stroke-width:0.88301349;stroke-linecap:round;stroke-linejoin:round;stroke-miterlimit:4;stroke-dasharray:none;stroke-opacity:1" />
          <g
             id="g10737">
            <path
               d="M 34.471457,34.299805 A 12.727922,6.3639612 0 1 1 9.0156116,34.299805 A 12.727922,6.3639612 0 1 1 34.471457,34.299805 z"
               transform="matrix(0.2956033,-0.100409,6.6939537e-2,0.1970694,-0.8767113,39.41557)"
               id="path6769"
               style="opacity:0.2;fill:url(#radialGradient10806);fill-opacity:1;stroke:none;stroke-width:1;stroke-linecap:round;stroke-linejoin:round;stroke-miterlimit:4;stroke-dasharray:none;stroke-opacity:1" />
            <rect
               width="7.9447784"
               height="15.891165"
               rx="3.5977366"
               ry="3.2306855"
               x="19.503647"
               y="21.332773"
               transform="matrix(0.8987591,0.4384428,-0.4445357,0.8957611,0,0)"
               id="rect5288"
               style="fill:url(#linearGradient10808);fill-opacity:1;stroke:#204a87;stroke-width:0.88302237;stroke-linecap:round;stroke-linejoin:round;stroke-miterlimit:4;stroke-dasharray:none;stroke-opacity:1" />
            <rect
               width="6.1968203"
               height="14.09313"
               rx="2.719295"
               ry="2.293035"
               x="20.373446"
               y="22.27001"
               transform="matrix(0.8991806,0.4375777,-0.4447099,0.8956747,0,0)"
               id="rect5292"
               style="opacity:0.5;fill:none;fill-opacity:1;stroke:url(#linearGradient10810);stroke-width:0.88303119;stroke-linecap:round;stroke-linejoin:round;stroke-miterlimit:4;stroke-dasharray:none;stroke-opacity:1" />
            <rect
               width="1.2539511"
               height="9.3714066"
               rx="0.58820325"
               ry="1.4160258"
               x="20.503248"
               y="25.300039"
               transform="matrix(0.8988528,0.4382508,-0.4459636,0.8950511,0,0)"
               id="rect2804"
               style="opacity:0.3;fill:url(#linearGradient10812);fill-opacity:1;stroke:none;stroke-width:1;stroke-linecap:round;stroke-linejoin:round;stroke-miterlimit:4;stroke-dasharray:none;stroke-opacity:1" />
            <rect
               width="1.7264493"
               height="9.5894623"
               rx="1.1896955"
               ry="1.41602"
               x="22.661383"
               y="25.249922"
               transform="matrix(0.8992109,0.4375154,-0.4453484,0.8953574,0,0)"
               id="rect5290"
               style="opacity:0.3;fill:url(#linearGradient10814);fill-opacity:1;stroke:none;stroke-width:1;stroke-linecap:round;stroke-linejoin:round;stroke-miterlimit:4;stroke-dasharray:none;stroke-opacity:1" />
            <rect
               width="1.2539519"
               height="9.3714066"
               rx="0.58820325"
               ry="1.4160264"
               x="25.277187"
               y="25.320566"
               transform="matrix(0.8988528,0.4382508,-0.4459636,0.8950511,0,0)"
               id="rect5398"
               style="opacity:0.25;fill:url(#linearGradient10816);fill-opacity:1;stroke:none;stroke-width:1;stroke-linecap:round;stroke-linejoin:round;stroke-miterlimit:4;stroke-dasharray:none;stroke-opacity:1" />
          </g>
          <path
             d="M 20.195907,7.5412491 L 18.759857,11.078867 L 18.880202,12.707152 C 18.883875,12.784216 18.867291,12.860898 18.832104,12.929559 L 20.428712,13.747289 C 20.468708,13.657023 20.537803,13.582765 20.624961,13.53638 L 21.818524,12.924887 L 23.883789,9.359003 C 23.262258,9.0526517 20.817438,7.8476004 20.195907,7.5412491 z"
             id="path5450"
             style="fill:url(#linearGradient10818);fill-opacity:1;stroke:none;stroke-width:1;stroke-linecap:round;stroke-linejoin:round;stroke-miterlimit:4;stroke-opacity:1" />
        </g>
      </g>
      <path
         d="M 14.239216,20.342273 L 10.098505,28.742996 L 13.213772,30.27851 L 17.354483,21.877787 L 14.239216,20.342273 z"
         id="path6010"
         style="opacity:0.5;fill:url(#radialGradient10820);fill-opacity:1;stroke:none;stroke-width:1;stroke-linecap:round;stroke-linejoin:round;stroke-miterlimit:4;stroke-dasharray:none;stroke-opacity:1" />
    </g>
    <g
       transform="matrix(0.7890124,-0.1192285,0.1192285,0.7890124,-6.8911235,3.7757282)"
       id="g4127"
       style="display:inline">
      <g
         transform="matrix(1.1080088,0,0,1.1080088,3.1946982,12.959801)"
         id="g6807"
         style="display:inline">
        <path
           d="M 34.471457,34.299805 A 12.727922,6.3639612 0 1 1 9.0156116,34.299805 A 12.727922,6.3639612 0 1 1 34.471457,34.299805 z"
           transform="matrix(0.86424,0,0,0.624182,18.2084,20.563)"
           id="path6765"
           style="opacity:0.15;fill:url(#radialGradient4349);fill-opacity:1;stroke:none;stroke-width:1;stroke-linecap:round;stroke-linejoin:round;stroke-miterlimit:4;stroke-dasharray:none;stroke-opacity:1" />
        <path
           d="M 34.471457,34.299805 A 12.727922,6.3639612 0 1 1 9.0156116,34.299805 A 12.727922,6.3639612 0 1 1 34.471457,34.299805 z"
           transform="matrix(0.353552,0,0,0.235702,29.8125,34.4155)"
           id="path6773"
           style="opacity:0.2;fill:url(#radialGradient4351);fill-opacity:1;stroke:none;stroke-width:1;stroke-linecap:round;stroke-linejoin:round;stroke-miterlimit:4;stroke-dasharray:none;stroke-opacity:1" />
        <g
           transform="translate(-1.69798,0.27077)"
           id="g6739">
          <g
             transform="matrix(0.707107,-0.707107,0.707107,0.707107,-57.4607,74.5066)"
             id="g6553">
            <path
               d="M 91,1.1482865 C 88.356663,2.3083638 86.5,4.9532014 86.5,8.0232865 C 86.5,10.894407 88.12854,13.387995 90.5,14.648286 L 90.5,43.414214 C 90.5,45.353214 92.061,46.914213 94,46.914214 C 95.939,46.914214 97.5,45.353213 97.5,43.414214 L 97.5,14.648286 C 99.87146,13.387995 101.5,10.894407 101.5,8.0232865 C 101.5,4.9532011 99.643337,2.3083637 97,1.1482865 L 97,7.0857865 L 95.28125,9.0857865 L 92.71875,9.0857865 L 91,7.0857865 L 91,1.1482865 z"
               id="path6491"
               style="opacity:1;fill:url(#linearGradient4354);fill-opacity:1;stroke:url(#linearGradient4357);stroke-width:0.99576026;stroke-linecap:round;stroke-linejoin:round;stroke-miterlimit:4;stroke-dasharray:none;stroke-dashoffset:0.7;stroke-opacity:1" />
            <path
               d="M 89.96875,2.9920365 C 88.491165,4.1803215 87.53125,5.9777353 87.53125,8.0232865 C 87.53125,10.510038 88.917637,12.651991 90.96875,13.742036 C 91.312399,13.913596 91.530012,14.264195 91.53125,14.648286 L 91.53125,43.414214 C 91.53125,44.807674 92.606539,45.882963 94,45.882964 C 95.39346,45.882964 96.46875,44.807673 96.46875,43.414214 L 96.46875,14.648286 C 96.469988,14.264195 96.687601,13.913596 97.03125,13.742036 C 99.082363,12.651991 100.46875,10.510038 100.46875,8.0232865 C 100.46875,5.977735 99.508835,4.1803214 98.03125,2.9920365 L 98.03125,7.0857865 C 98.028519,7.3272888 97.939894,7.5599296 97.78125,7.7420365 L 96.0625,9.7420365 C 95.871073,9.9773335 95.584572,10.114853 95.28125,10.117036 L 92.71875,10.117036 C 92.415428,10.114853 92.128927,9.9773335 91.9375,9.7420365 L 90.21875,7.7420365 C 90.060106,7.5599296 89.971481,7.3272888 89.96875,7.0857865 L 89.96875,2.9920365 z"
               id="path6505"
               style="opacity:1;fill:none;fill-opacity:1;stroke:url(#linearGradient4360);stroke-width:0.99576026;stroke-linecap:round;stroke-linejoin:miter;stroke-miterlimit:4;stroke-dashoffset:0.7;stroke-opacity:1" />
            <path
               d="M 95.5,42.5 A 1.5,1.5 0 1 1 92.5,42.5 A 1.5,1.5 0 1 1 95.5,42.5 z"
               transform="translate(-3.76269e-8,0.914214)"
               id="path6507"
               style="opacity:1;fill:#888a85;fill-opacity:1;stroke:url(#linearGradient4363);stroke-width:0.99576026;stroke-linecap:round;stroke-linejoin:miter;stroke-miterlimit:4;stroke-dasharray:none;stroke-dashoffset:0.7;stroke-opacity:1" />
            <rect
               width="3.9928944"
               height="21.999802"
               rx="1.7379364"
               ry="1.7444341"
               x="91.992836"
               y="16.963778"
               transform="matrix(1,3.86459e-4,3.83586e-4,1,0,0)"
               id="rect6533"
               style="opacity:0.23106103;fill:url(#linearGradient4365);fill-opacity:1;stroke:none;stroke-width:1;stroke-linecap:round;stroke-linejoin:round;stroke-miterlimit:4;stroke-dasharray:none;stroke-opacity:1;display:inline" />
          </g>
          <path
             d="M 13.973556,7.3037539 L 16.868274,10.198472 C 17.037111,10.371171 17.138946,10.598341 17.155536,10.839288 L 17.35441,13.468841 C 17.385431,13.770581 17.280086,14.070409 17.067148,14.286434 L 15.255187,16.098395 C 15.039162,16.311332 14.739334,16.416678 14.437595,16.385657 L 11.808041,16.186783 C 11.567094,16.170192 11.339925,16.068358 11.167226,15.899521 L 8.2725073,13.004802"
             id="path6573"
             style="fill:none;fill-opacity:1;stroke:url(#linearGradient4367);stroke-width:0.99576026;stroke-linecap:round;stroke-linejoin:miter;stroke-miterlimit:4;stroke-dashoffset:0.7;stroke-opacity:1" />
          <path
             d="M 14.71875,6.8125 C 14.129935,6.8140249 13.543329,6.8880281 12.96875,7.03125 L 16.5,10.5625 C 16.589624,10.650873 16.646088,10.749545 16.65625,10.875 L 16.875,13.5 C 16.888638,13.656013 16.830347,13.827626 16.71875,13.9375 L 15.125,15.5625 C 17.279079,16.073694 19.038866,17.020591 21.34375,15.78125 C 22.074648,13.392376 21.483569,10.671069 19.59375,8.78125 C 18.245921,7.4334204 16.485196,6.8079254 14.71875,6.8125 z M 8,12 C 7.6061401,13.580092 7.7314214,15.26324 8.4375,16.75 C 9.564272,16.068398 10.560695,15.675078 11.46875,15.46875 L 8,12 z"
             id="path6651"
             style="opacity:0.59051699;fill:url(#linearGradient4369);fill-opacity:1;stroke:none;stroke-width:1;stroke-linecap:round;stroke-linejoin:round;stroke-miterlimit:4;stroke-dasharray:none;stroke-dashoffset:0.7;stroke-opacity:1" />
        </g>
      </g>
    </g>
  </g>
</svg>
