<?xml version="1.0" encoding="UTF-8" standalone="no"?><!-- Generator: Gravit.io --><svg xmlns="http://www.w3.org/2000/svg" xmlns:xlink="http://www.w3.org/1999/xlink" style="isolation:isolate" viewBox="0 0 512 512" width="512pt" height="512pt"><defs><clipPath id="_clipPath_MdeU5b29IwOdCxEh7nEmyjfxPZSNCN8Y"><rect width="512" height="512"/></clipPath></defs><g clip-path="url(#_clipPath_MdeU5b29IwOdCxEh7nEmyjfxPZSNCN8Y)"><rect width="512" height="512" style="fill:rgb(64,64,64)" fill-opacity="0"/><path d=" M 44.25 225.75 L 225.75 44.25 C 242.445 27.555 269.555 27.555 286.25 44.25 L 467.75 225.75 C 484.445 242.445 484.445 269.555 467.75 286.25 L 286.25 467.75 C 269.555 484.445 242.445 484.445 225.75 467.75 L 44.25 286.25 C 27.555 269.555 27.555 242.445 44.25 225.75 Z " fill="rgb(200,189,163)"/><clipPath id="_clipPath_1MOPTwSlVTdkTy8tN3bQ2ewCLNI57MfP"><path d=" M 44.25 225.75 L 225.75 44.25 C 242.445 27.555 269.555 27.555 286.25 44.25 L 467.75 225.75 C 484.445 242.445 484.445 269.555 467.75 286.25 L 286.25 467.75 C 269.555 484.445 242.445 484.445 225.75 467.75 L 44.25 286.25 C 27.555 269.555 27.555 242.445 44.25 225.75 Z " fill="rgb(200,189,163)"/></clipPath><g clip-path="url(#_clipPath_1MOPTwSlVTdkTy8tN3bQ2ewCLNI57MfP)"><path d=" M 517.906 358.919 L 527.839 321.846 C 510.706 310.039 499.249 304.941 497.121 288.794 L 497.124 288.783 C 494.986 272.584 504.83 264.612 518.233 248.865 L 499.046 215.633 C 478.861 219.346 466.913 223.927 453.922 213.955 L 453.911 213.952 C 440.972 204.018 442.295 191.464 440.646 170.823 L 403.574 160.89 C 391.873 177.855 386.708 189.466 370.521 191.607 L 370.51 191.604 C 354.308 193.754 346.356 183.928 330.592 170.496 L 297.36 189.682 C 301.086 209.958 305.651 221.827 295.682 234.806 C 285.731 247.766 273.093 246.432 252.55 248.083 L 242.617 285.155 C 259.554 296.824 271.193 302.02 273.335 318.207 C 275.474 334.541 265.37 342.702 252.226 358.125 L 271.41 391.369 C 291.61 387.647 303.555 383.078 316.534 393.047 L 316.545 393.05 C 329.496 402.987 328.163 415.575 329.81 436.179 L 366.882 446.112 C 378.586 429.135 383.753 417.562 400.036 415.384 L 400.047 415.387 C 416.133 413.256 424.054 423.062 439.849 436.514 L 473.085 417.316 C 469.355 397.101 464.791 385.183 474.748 372.201 C 484.699 359.242 497.389 360.564 517.906 358.919 Z  M 372.934 349.382 C 347.596 342.593 332.557 316.545 339.346 291.207 C 346.136 265.869 372.184 250.83 397.522 257.619 C 422.86 264.409 437.899 290.457 431.109 315.795 C 424.32 341.133 398.272 356.172 372.934 349.382 Z " fill="rgb(183,173,147)"/><path d=" M 44.25 199.478 L 225.75 17.978 C 242.445 1.283 269.555 1.283 286.25 17.978 L 467.75 199.478 C 484.445 216.174 484.445 243.283 467.75 259.978 L 286.25 441.478 C 269.555 458.174 242.445 458.174 225.75 441.478 L 44.25 259.978 C 27.555 243.283 27.555 216.174 44.25 199.478 Z " fill="rgb(236,223,191)"/><clipPath id="_clipPath_MSLgD9m9yvdDqmHhuGao867PccCSL70I"><path d=" M 44.25 199.478 L 225.75 17.978 C 242.445 1.283 269.555 1.283 286.25 17.978 L 467.75 199.478 C 484.445 216.174 484.445 243.283 467.75 259.978 L 286.25 441.478 C 269.555 458.174 242.445 458.174 225.75 441.478 L 44.25 259.978 C 27.555 243.283 27.555 216.174 44.25 199.478 Z " fill="rgb(236,223,191)"/></clipPath><g clip-path="url(#_clipPath_MSLgD9m9yvdDqmHhuGao867PccCSL70I)"><path d=" M 517.906 358.919 L 527.839 321.846 C 510.706 310.039 499.249 304.941 497.121 288.794 L 497.124 288.783 C 494.986 272.584 504.83 264.612 518.233 248.865 L 499.046 215.633 C 478.861 219.346 466.913 223.927 453.922 213.955 L 453.911 213.952 C 440.972 204.018 442.295 191.464 440.646 170.823 L 403.574 160.89 C 391.873 177.855 386.708 189.466 370.521 191.607 L 370.51 191.604 C 354.308 193.754 346.356 183.928 330.592 170.496 L 297.36 189.682 C 301.086 209.958 305.651 221.827 295.682 234.806 C 285.731 247.766 273.093 246.432 252.55 248.083 L 242.617 285.155 C 259.554 296.824 271.193 302.02 273.335 318.207 C 275.474 334.541 265.37 342.702 252.226 358.125 L 271.41 391.369 C 291.61 387.647 303.555 383.078 316.534 393.047 L 316.545 393.05 C 329.496 402.987 328.163 415.575 329.81 436.179 L 366.882 446.112 C 378.586 429.135 383.753 417.562 400.036 415.384 L 400.047 415.387 C 416.133 413.256 424.054 423.062 439.849 436.514 L 473.085 417.316 C 469.355 397.101 464.791 385.183 474.748 372.201 C 484.699 359.242 497.389 360.564 517.906 358.919 Z  M 372.934 349.382 C 347.596 342.593 332.557 316.545 339.346 291.207 C 346.136 265.869 372.184 250.83 397.522 257.619 C 422.86 264.409 437.899 290.457 431.109 315.795 C 424.32 341.133 398.272 356.172 372.934 349.382 Z " fill="rgb(202,191,163)"/></g><path d=" M 256 229.69 L 256 191.31 C 236.394 184.339 224.009 182.38 217.774 167.334 L 217.774 167.323 C 211.516 152.229 218.962 141.981 227.833 123.302 L 200.698 96.167 C 182.161 104.979 171.806 112.496 156.677 106.226 L 156.666 106.226 C 141.596 99.979 139.625 87.511 132.69 68 L 94.31 68 C 87.399 87.416 85.416 99.967 70.334 106.226 L 70.323 106.226 C 55.229 112.496 45.005 105.062 26.302 96.167 L -0.833 123.302 C 8.014 141.922 15.496 152.206 9.226 167.323 C 2.967 182.416 -9.584 184.399 -29 191.31 L -29 229.69 C -9.62 236.578 2.967 238.584 9.226 253.666 C 15.519 268.889 7.872 279.387 -0.833 297.686 L 26.302 324.833 C 44.851 316.009 55.206 308.504 70.323 314.774 L 70.334 314.774 C 85.416 321.021 87.387 333.525 94.31 353 L 132.69 353 C 139.601 333.573 141.596 321.056 156.761 314.739 L 156.773 314.739 C 171.759 308.516 181.947 315.938 200.686 324.844 L 227.821 297.698 C 218.986 279.138 211.493 268.806 217.751 253.689 C 224.009 238.596 236.608 236.589 256 229.69 Z  M 113.5 258 C 87.268 258 66 236.732 66 210.5 C 66 184.268 87.268 163 113.5 163 C 139.732 163 161 184.268 161 210.5 C 161 236.732 139.732 258 113.5 258 Z " fill="rgb(183,173,147)"/></g></g></svg>
