<?xml version="1.0" encoding="UTF-8"?>
<svg height="128px" viewBox="0 0 128 128" width="128px" xmlns="http://www.w3.org/2000/svg" xmlns:xlink="http://www.w3.org/1999/xlink">
    <linearGradient id="a" gradientUnits="userSpaceOnUse" x1="52" x2="76" y1="76.608017" y2="76.576218">
        <stop offset="0" stop-color="#e66100"/>
        <stop offset="0.133866" stop-color="#ff7800"/>
        <stop offset="0.73326" stop-color="#ffbe6f"/>
        <stop offset="1" stop-color="#ffa348"/>
    </linearGradient>
    <linearGradient id="b" gradientUnits="userSpaceOnUse" x1="58" x2="71" y1="30" y2="30">
        <stop offset="0" stop-color="#deddda"/>
        <stop offset="0.388454" stop-color="#deddda"/>
        <stop offset="0.75" stop-color="#ffffff"/>
        <stop offset="1" stop-color="#deddda"/>
    </linearGradient>
    <linearGradient id="c" gradientTransform="matrix(1 0 0 1.5 -4 -273.999992)" gradientUnits="userSpaceOnUse" x1="55.071999" x2="80" y1="232.13208" y2="232">
        <stop offset="0" stop-color="#9a9996"/>
        <stop offset="0.15611" stop-color="#c0bfbc"/>
        <stop offset="0.356461" stop-color="#deddda"/>
        <stop offset="0.650737" stop-color="#deddda"/>
        <stop offset="0.910869" stop-color="#c0bfbc"/>
        <stop offset="1" stop-color="#9a9996"/>
    </linearGradient>
    <linearGradient id="d" gradientUnits="userSpaceOnUse" x1="22" x2="52" y1="84" y2="84">
        <stop offset="0" stop-color="#a51d2d"/>
        <stop offset="0.4" stop-color="#c01c28"/>
        <stop offset="0.679906" stop-color="#ed333b"/>
        <stop offset="1" stop-color="#c01c28"/>
    </linearGradient>
    <linearGradient id="e" gradientTransform="matrix(1.125 0 0 1 -2 -172)" gradientUnits="userSpaceOnUse" x1="35" x2="48" y1="255" y2="255">
        <stop offset="0"/>
        <stop offset="1" stop-color="#241f31"/>
    </linearGradient>
    <linearGradient id="f" gradientUnits="userSpaceOnUse" x1="83.998185" x2="107.007043" y1="64" y2="63.881378">
        <stop offset="0" stop-color="#26a269"/>
        <stop offset="0.724253" stop-color="#33d17a"/>
        <stop offset="1" stop-color="#26a269"/>
    </linearGradient>
    <linearGradient id="g" gradientUnits="userSpaceOnUse" x1="76" x2="108" y1="92" y2="92">
        <stop offset="0" stop-color="#e5a50a"/>
        <stop offset="0.375" stop-color="#f6d32d"/>
        <stop offset="0.753674" stop-color="#f9f06b"/>
        <stop offset="1" stop-color="#e5a50a"/>
    </linearGradient>
    <linearGradient id="h" gradientUnits="userSpaceOnUse" x1="86" x2="98" y1="40" y2="40">
        <stop offset="0" stop-color="#e5a50a"/>
        <stop offset="0.43357" stop-color="#f6d32d"/>
        <stop offset="0.753674" stop-color="#f9f06b"/>
        <stop offset="1" stop-color="#e5a50a"/>
    </linearGradient>
    <linearGradient id="i" gradientUnits="userSpaceOnUse">
        <stop offset="0" stop-color="#241f31" stop-opacity="0"/>
        <stop offset="0.666667" stop-color="#77767b"/>
        <stop offset="1" stop-color="#241f31" stop-opacity="0"/>
    </linearGradient>
    <linearGradient id="j" x1="28" x2="42" xlink:href="#i" y1="37" y2="37"/>
    <linearGradient id="k" x1="28" x2="42" xlink:href="#i" y1="41" y2="41"/>
    <linearGradient id="l" x1="28" x2="42" xlink:href="#i" y1="45" y2="45"/>
    <linearGradient id="m" x1="28" x2="42" xlink:href="#i" y1="49" y2="49"/>
    <linearGradient id="n" x1="28" x2="42" xlink:href="#i" y1="53" y2="53"/>
    <path d="m 60 25.828125 c -0.046875 0.507813 -0.125 0.976563 -0.203125 1.433594 c 0.082031 -0.453125 0.15625 -0.925781 0.203125 -1.433594 z m 8 0 c 0.046875 0.496094 0.117188 0.957031 0.199219 1.402344 c -0.078125 -0.449219 -0.152344 -0.90625 -0.199219 -1.402344 z m -8.277344 1.839844 c -0.066406 0.328125 -0.152344 0.640625 -0.234375 0.945312 c 0.085938 -0.304687 0.164063 -0.617187 0.234375 -0.945312 z m -4.613281 7.707031 c -1.660156 1.523438 -3.109375 2.671875 -3.109375 4.625 v 76 h 24 v -76 c 0 -1.953125 -1.449219 -3.101562 -3.109375 -4.625 z m 0 0" fill="url(#a)"/>
    <path d="m 60 22 v 3.828125 c -0.503906 5.253906 -3.652344 8.207031 -5.5625 10.160156 l 19.105469 -0.019531 c -1.847657 -1.988281 -5.039063 -4.886719 -5.542969 -10.140625 v -3.828125 z m 0 0" fill="url(#b)"/>
    <path d="m 52 112 h 24 v 4 h -24 z m 0 0" fill="#c64600"/>
    <path d="m 60 8 v 14 h 8 v -14 z m 0 0" fill="#a51d2d"/>
    <path d="m 60 4.496094 v 4 h 8 v -4 z m 0 0"/>
    <path d="m 52 56 h 24 v 36 h -24 z m 0 0" fill="url(#c)"/>
    <path d="m 56 64 v 12 h 16 v -4 h -4 v -4 h -4 v -4 z m 0 0" fill-opacity="0.386307"/>
    <path d="m 30 32 v 24 h -3 c -3.324219 0 -6 2.429688 -6 5.445312 v 54.554688 h 31 v -54.554688 c 0 -3.015624 -2.675781 -5.445312 -6 -5.445312 h -4 v -24 z m 0 0" fill="url(#d)"/>
    <path d="m 21 112 h 31 v 4 h -31 z m 0 0" fill="#72141f"/>
    <path d="m 30 32 h 12 v 24 h -12 z m 0 0" fill="#3d3846"/>
    <path d="m 34 72 h 18 v 24 h -18 z m 0 0" fill="url(#e)"/>
    <path d="m 30 30 h 12 v 4 h -12 z m 0 0" fill="#241f31"/>
    <path d="m 76 72 h 24 v 44 h -24 z m 0 0" fill="#2ec27e"/>
    <path d="m 88 52 s -12 2 -12 20 h 32 c 0 -18 -12 -20 -12 -20 z m -12 60 v 4 h 32 v -4 z m 0 0" fill="#26a269"/>
    <path d="m 88 52 s -12 2 -12 20 h 32 c 0 -18 -12 -20 -12 -20 z m -12 60 v 4 h 32 v -4 z m 0 0" fill="url(#f)"/>
    <path d="m 76 72 h 32 v 40 h -32 z m 0 0" fill="url(#g)"/>
    <path d="m 86 24 c -0.148438 7.816406 0.472656 10.894531 2 14 v 14 h 8 v -14 c 1.863281 -3.203125 2.09375 -8.296875 2 -14 z m 0 0" fill="url(#h)"/>
    <path d="m 30 36 h 12 v 2 h -12 z m 0 0" fill="url(#j)"/>
    <path d="m 30 40 h 12 v 2 h -12 z m 0 0" fill="url(#k)"/>
    <path d="m 30 44 h 12 v 2 h -12 z m 0 0" fill="url(#l)"/>
    <path d="m 30 48 h 12 v 2 h -12 z m 0 0" fill="url(#m)"/>
    <path d="m 30 52 h 12 v 2 h -12 z m 0 0" fill="url(#n)"/>
    <path d="m 86 24 v 4 h 12 v -4 z m 0 0" fill="#c89008" fill-opacity="0.545226"/>
    <path d="m 76 72 v 4 h 32 v -4 z m 0 0" fill="#c89008" fill-opacity="0.545226"/>
    <path d="m 76 112 h 32 v 4 h -32 z m 0 0" fill="#124e33"/>
</svg>
