<?xml version="1.0" encoding="UTF-8" standalone="no"?>
<svg
   xmlns:dc="http://purl.org/dc/elements/1.1/"
   xmlns:cc="http://creativecommons.org/ns#"
   xmlns:rdf="http://www.w3.org/1999/02/22-rdf-syntax-ns#"
   xmlns:svg="http://www.w3.org/2000/svg"
   xmlns="http://www.w3.org/2000/svg"
   xmlns:xlink="http://www.w3.org/1999/xlink"
   xmlns:sodipodi="http://sodipodi.sourceforge.net/DTD/sodipodi-0.dtd"
   xmlns:inkscape="http://www.inkscape.org/namespaces/inkscape"
   inkscape:export-ydpi="96"
   inkscape:export-xdpi="96"
   inkscape:export-filename="Template.png"
   width="128"
   height="128"
   id="svg11300"
   sodipodi:version="0.32"
   inkscape:version="1.0.1 (3bc2e813f5, 2020-09-07)"
   sodipodi:docname="HiColor.svg"
   inkscape:output_extension="org.inkscape.output.svg.inkscape"
   version="1.0"
   style="display:inline;enable-background:new"
   viewBox="0 0 128 128">
  <title
     id="title4162">Bottles Icon Template</title>
  <defs
     id="defs3">
    <linearGradient
       inkscape:collect="always"
       id="linearGradient2895">
      <stop
         style="stop-color:#c0bfbc;stop-opacity:1;"
         offset="0"
         id="stop2891" />
      <stop
         style="stop-color:#9e9e9e;stop-opacity:1"
         offset="1"
         id="stop2893" />
    </linearGradient>
    <linearGradient
       inkscape:collect="always"
       id="linearGradient2887">
      <stop
         style="stop-color:#c0bfbc;stop-opacity:1;"
         offset="0"
         id="stop2883" />
      <stop
         style="stop-color:#989898;stop-opacity:1"
         offset="1"
         id="stop2885" />
    </linearGradient>
    <linearGradient
       inkscape:collect="always"
       id="linearGradient2881">
      <stop
         style="stop-color:#e01b24;stop-opacity:1"
         offset="0"
         id="stop2877" />
      <stop
         style="stop-color:#bc1c29;stop-opacity:1"
         offset="1"
         id="stop2879" />
    </linearGradient>
    <linearGradient
       inkscape:collect="always"
       id="linearGradient2853">
      <stop
         style="stop-color:#9141ac;stop-opacity:1"
         offset="0"
         id="stop2849" />
      <stop
         style="stop-color:#7b3c98;stop-opacity:1"
         offset="1"
         id="stop2851" />
    </linearGradient>
    <linearGradient
       inkscape:collect="always"
       id="linearGradient2568">
      <stop
         style="stop-color:#813d9c;stop-opacity:1"
         offset="0"
         id="stop2564" />
      <stop
         style="stop-color:#613583;stop-opacity:1"
         offset="0.85169935"
         id="stop2899" />
      <stop
         style="stop-color:#4d2a68;stop-opacity:1"
         offset="1"
         id="stop2566" />
    </linearGradient>
    <linearGradient
       inkscape:collect="always"
       id="linearGradient2554">
      <stop
         style="stop-color:#c01c28;stop-opacity:1"
         offset="0"
         id="stop2550" />
      <stop
         style="stop-color:#a51d2d;stop-opacity:1"
         offset="0.85760236"
         id="stop2901" />
      <stop
         style="stop-color:#7a1621;stop-opacity:1"
         offset="1"
         id="stop2552" />
    </linearGradient>
    <linearGradient
       inkscape:collect="always"
       id="linearGradient2412">
      <stop
         style="stop-color:#deddda;stop-opacity:1"
         offset="0"
         id="stop2408" />
      <stop
         style="stop-color:#c0bfbc;stop-opacity:0;"
         offset="1"
         id="stop2410" />
    </linearGradient>
    <linearGradient
       inkscape:collect="always"
       xlink:href="#linearGradient2412"
       id="linearGradient2414"
       x1="98.589958"
       y1="68.808891"
       x2="123.80085"
       y2="70.16323"
       gradientUnits="userSpaceOnUse" />
    <linearGradient
       inkscape:collect="always"
       xlink:href="#linearGradient2412"
       id="linearGradient2431"
       gradientUnits="userSpaceOnUse"
       x1="98.589958"
       y1="68.808891"
       x2="123.80085"
       y2="70.16323"
       gradientTransform="matrix(0.9079298,-0.06823096,0.07009362,0.88380256,-38.206445,-0.98095583)" />
    <linearGradient
       inkscape:collect="always"
       xlink:href="#linearGradient2412"
       id="linearGradient2440"
       gradientUnits="userSpaceOnUse"
       x1="98.589958"
       y1="68.808891"
       x2="123.80085"
       y2="70.16323"
       gradientTransform="matrix(0.85991426,0.04260748,-0.04260748,0.85991426,67.955512,-12.696602)" />
    <linearGradient
       inkscape:collect="always"
       xlink:href="#linearGradient2554"
       id="linearGradient2548"
       x1="127.22348"
       y1="100.16664"
       x2="127.22348"
       y2="244.11273"
       gradientUnits="userSpaceOnUse" />
    <linearGradient
       inkscape:collect="always"
       xlink:href="#linearGradient2568"
       id="linearGradient2562"
       x1="452.59106"
       y1="456.90182"
       x2="452.59106"
       y2="1183.0946"
       gradientUnits="userSpaceOnUse" />
    <linearGradient
       inkscape:collect="always"
       xlink:href="#linearGradient2853"
       id="linearGradient2847"
       x1="78.849045"
       y1="29.496895"
       x2="78.849045"
       y2="42.576351"
       gradientUnits="userSpaceOnUse" />
    <linearGradient
       inkscape:collect="always"
       xlink:href="#linearGradient2881"
       id="linearGradient2875"
       x1="128.64156"
       y1="46.557888"
       x2="128.64156"
       y2="59.973263"
       gradientUnits="userSpaceOnUse" />
    <linearGradient
       inkscape:collect="always"
       xlink:href="#linearGradient2887"
       id="linearGradient2889"
       x1="128.09354"
       y1="26.941372"
       x2="128.09354"
       y2="34.254372"
       gradientUnits="userSpaceOnUse" />
    <linearGradient
       inkscape:collect="always"
       xlink:href="#linearGradient2895"
       id="linearGradient2897"
       x1="126.71375"
       y1="13.38787"
       x2="126.71375"
       y2="19.516056"
       gradientUnits="userSpaceOnUse" />
  </defs>
  <sodipodi:namedview
     stroke="#ef2929"
     fill="#f57900"
     id="base"
     pagecolor="#ffffff"
     bordercolor="#666666"
     borderopacity="0.25490196"
     inkscape:pageopacity="0.0"
     inkscape:pageshadow="2"
     inkscape:zoom="4"
     inkscape:cx="28.081549"
     inkscape:cy="69.480677"
     inkscape:current-layer="layer1"
     showgrid="false"
     inkscape:grid-bbox="true"
     inkscape:document-units="px"
     inkscape:showpageshadow="false"
     inkscape:window-width="2560"
     inkscape:window-height="1043"
     inkscape:window-x="0"
     inkscape:window-y="0"
     width="400px"
     height="300px"
     inkscape:snap-nodes="true"
     inkscape:snap-bbox="true"
     objecttolerance="7"
     gridtolerance="12"
     guidetolerance="13"
     inkscape:window-maximized="1"
     inkscape:pagecheckerboard="false"
     showguides="false"
     inkscape:guide-bbox="true"
     inkscape:locked="false"
     inkscape:measure-start="0,0"
     inkscape:measure-end="0,0"
     inkscape:object-nodes="true"
     inkscape:bbox-nodes="true"
     inkscape:snap-global="true"
     inkscape:object-paths="true"
     inkscape:snap-intersection-paths="true"
     inkscape:snap-bbox-edge-midpoints="true"
     inkscape:snap-bbox-midpoints="true"
     showborder="true"
     inkscape:snap-center="true"
     inkscape:snap-object-midpoints="true"
     inkscape:snap-midpoints="true"
     inkscape:snap-smooth-nodes="true"
     inkscape:snap-text-baseline="true"
     inkscape:document-rotation="0">
    <inkscape:grid
       type="xygrid"
       id="grid5883"
       spacingx="2"
       spacingy="2"
       enabled="true"
       visible="true"
       empspacing="4"
       originx="0"
       originy="0" />
    <sodipodi:guide
       position="64,8"
       orientation="0,1"
       id="guide1073"
       inkscape:locked="false"
       inkscape:label=""
       inkscape:color="rgb(0,0,255)" />
    <sodipodi:guide
       position="12,64"
       orientation="1,0"
       id="guide1075"
       inkscape:locked="false"
       inkscape:label=""
       inkscape:color="rgb(0,0,255)" />
    <sodipodi:guide
       position="64,104"
       orientation="0,1"
       id="guide1099"
       inkscape:locked="false"
       inkscape:label=""
       inkscape:color="rgb(0,0,255)" />
    <sodipodi:guide
       position="64,128"
       orientation="0,1"
       id="guide993"
       inkscape:locked="false"
       inkscape:label=""
       inkscape:color="rgb(0,0,255)" />
    <sodipodi:guide
       position="104,64"
       orientation="1,0"
       id="guide995"
       inkscape:locked="false"
       inkscape:label=""
       inkscape:color="rgb(0,0,255)" />
    <sodipodi:guide
       position="9.2651362e-08,64"
       orientation="1,0"
       id="guide867"
       inkscape:locked="false"
       inkscape:label=""
       inkscape:color="rgb(0,0,255)" />
    <sodipodi:guide
       position="120,64"
       orientation="1,0"
       id="guide869"
       inkscape:locked="false"
       inkscape:label=""
       inkscape:color="rgb(0,0,255)" />
    <sodipodi:guide
       position="64,116"
       orientation="0,1"
       id="guide871"
       inkscape:locked="false"
       inkscape:label=""
       inkscape:color="rgb(0,0,255)" />
    <inkscape:grid
       type="xygrid"
       id="grid873"
       spacingx="1"
       spacingy="1"
       empspacing="8"
       color="#000000"
       opacity="0.49019608"
       empcolor="#000000"
       empopacity="0.08627451"
       dotted="true" />
    <sodipodi:guide
       position="24,64"
       orientation="1,0"
       id="guide877"
       inkscape:locked="false"
       inkscape:label=""
       inkscape:color="rgb(0,0,255)" />
    <sodipodi:guide
       position="116,64"
       orientation="1,0"
       id="guide879"
       inkscape:locked="false"
       inkscape:label=""
       inkscape:color="rgb(0,0,255)" />
    <sodipodi:guide
       position="64,120"
       orientation="0,1"
       id="guide881"
       inkscape:locked="false"
       inkscape:label=""
       inkscape:color="rgb(0,0,255)" />
    <sodipodi:guide
       position="64,12"
       orientation="0,1"
       id="guide883"
       inkscape:locked="false"
       inkscape:label=""
       inkscape:color="rgb(0,0,255)" />
    <sodipodi:guide
       position="8,64"
       orientation="1,0"
       id="guide885"
       inkscape:locked="false"
       inkscape:label=""
       inkscape:color="rgb(0,0,255)" />
    <sodipodi:guide
       position="128,64"
       orientation="1,0"
       id="guide887"
       inkscape:locked="false"
       inkscape:label=""
       inkscape:color="rgb(0,0,255)" />
    <sodipodi:guide
       position="64,0"
       orientation="0,1"
       id="guide897"
       inkscape:locked="false"
       inkscape:label=""
       inkscape:color="rgb(0,0,255)" />
    <sodipodi:guide
       position="64,24"
       orientation="0,1"
       id="guide899"
       inkscape:locked="false"
       inkscape:label=""
       inkscape:color="rgb(0,0,255)" />
    <sodipodi:guide
       position="256,256"
       orientation="-0.70710678,0.70710678"
       id="guide950"
       inkscape:locked="false"
       inkscape:label=""
       inkscape:color="rgb(0,0,255)" />
    <sodipodi:guide
       position="64,64"
       orientation="0.70710678,0.70710678"
       id="guide952"
       inkscape:locked="false"
       inkscape:label=""
       inkscape:color="rgb(0,0,255)" />
  </sodipodi:namedview>
  <metadata
     id="metadata4">
    <rdf:RDF>
      <cc:Work
         rdf:about="">
        <dc:format>image/svg+xml</dc:format>
        <dc:type
           rdf:resource="http://purl.org/dc/dcmitype/StillImage" />
        <dc:creator>
          <cc:Agent>
            <dc:title>Marco Montini</dc:title>
          </cc:Agent>
        </dc:creator>
        <dc:source />
        <cc:license
           rdf:resource="http://creativecommons.org/licenses/by-sa/4.0/" />
        <dc:title>Bottles Icon Template</dc:title>
        <dc:subject>
          <rdf:Bag />
        </dc:subject>
        <dc:date />
        <dc:rights>
          <cc:Agent>
            <dc:title />
          </cc:Agent>
        </dc:rights>
        <dc:publisher>
          <cc:Agent>
            <dc:title />
          </cc:Agent>
        </dc:publisher>
        <dc:identifier />
        <dc:relation />
        <dc:language />
        <dc:coverage />
        <dc:description />
        <dc:contributor>
          <cc:Agent>
            <dc:title />
          </cc:Agent>
        </dc:contributor>
      </cc:Work>
      <cc:License
         rdf:about="http://creativecommons.org/licenses/by-sa/4.0/">
        <cc:permits
           rdf:resource="http://creativecommons.org/ns#Reproduction" />
        <cc:permits
           rdf:resource="http://creativecommons.org/ns#Distribution" />
        <cc:requires
           rdf:resource="http://creativecommons.org/ns#Notice" />
        <cc:requires
           rdf:resource="http://creativecommons.org/ns#Attribution" />
        <cc:permits
           rdf:resource="http://creativecommons.org/ns#DerivativeWorks" />
        <cc:requires
           rdf:resource="http://creativecommons.org/ns#ShareAlike" />
      </cc:License>
    </rdf:RDF>
  </metadata>
  <g
     id="layer1"
     inkscape:label="App Icon"
     inkscape:groupmode="layer"
     style="display:inline"
     transform="translate(0,-172)">
    <g
       id="g2378"
       inkscape:label="Side"
       style="display:inline"
       transform="matrix(0.46817275,0,0,0.46817275,4.019577,174.80662)">
      <g
         id="g2348"
         inkscape:label="Side Bottle"
         style="display:inline">
        <path
           id="path2356"
           style="fill:#909090;stroke-width:1.33333"
           d="m 449.31055,74.236328 c -34.00009,-0.09442 -70.99486,5.034132 -81.75,14.083984 -5.03817,4.239337 -5.04604,4.717866 -0.82617,47.798828 1.72134,17.57345 3.65827,38.34061 3.31905,39.22458 10.83238,33.19877 94.77594,14.68197 110.37821,10.75003 17.71551,1.12089 33.4106,-10.34057 36.2168,-15.58398 1.5783,-2.9491 -2.07094,-76.75184 -4.05274,-81.958989 -0.85544,-2.247668 -3.5287,-4.657517 -7.06445,-6.36914 -11.09495,-5.370975 -32.95749,-7.880708 -56.2207,-7.945313 z m 522.13281,0.382813 c -16.33709,0.07304 -31.45064,0.894517 -38.44727,2.521484 -12.35528,2.873052 -21.37741,7.182008 -22.73047,10.857422 -2.55366,6.9361 -5.26089,79.857423 -3.08789,83.173833 31.64294,41.67721 143.04387,50.87691 146.56837,-5.42188 0.1578,-3.80417 1.5181,-19.68216 3.0215,-35.28516 3.4902,-36.224731 3.4791,-37.803099 -0.2676,-41.298824 -4.2241,-3.941109 -14.6875,-7.780207 -30.6367,-11.242188 -10.3897,-2.25522 -33.41511,-3.39859 -54.41994,-3.304687 z m 3.20898,2.689453 c 32.04296,-0.120353 67.58896,4.885937 73.42186,14.52539 3.3667,5.563716 -7.9705,11.686236 -26.3379,14.224606 -42.11023,5.81964 -100.90232,-3.57091 -100.90232,-16.117184 0,-8.428835 25.54515,-12.526619 53.81836,-12.632812 z M 513.25977,130.0625 c -342.17318,-86.708333 -171.08659,-43.354167 0,0 z m 388.90625,86.96484 v 4.58399 c 0,12.48673 -4.30515,77.97911 -5.47071,83.21875 -2.62178,11.78581 -4.91183,13.83547 -42.38086,37.9414 -32.89441,21.16286 -55.81961,44.89231 -66.77734,69.1211 -6.67367,14.75629 -9.56144,35.9829 -11.96289,87.91406 -0.66911,14.46875 -1.47883,26.7694 -1.79883,27.33398 -1.53856,2.71406 2.01068,22.46767 5.29102,29.44532 62.64446,74.7483 256.93109,109.20725 337.79689,29.39062 12.5481,-12.93001 14.1548,-18.99743 19.3711,-73.14258 4.6235,-47.99261 4.2575,-71.61315 -1.3399,-86.66796 -10.0894,-27.13624 -32.3176,-53.83235 -67.3945,-80.93946 -29.6385,-22.90435 -29.2053,-21.387 -23.3203,-81.72656 1.8239,-18.7 3.3172,-35.32558 3.3183,-36.94531 v -2.94531 c -41.0523,-2.20454 -105.81734,-11.55478 -145.33198,-6.58204 z m -382.08985,0.28516 c -0.44154,0.0702 -1.13795,0.5607 -2.24219,1.35547 -63.32503,0.45771 -88.02752,7.94826 -135.67968,8.1599 l -6.6543,-3.37304 0.002,3.02344 c 10e-4,1.66235 1.49452,18.32148 3.31836,37.02148 5.98125,61.3263 7.00325,58.26745 -28.82617,86.30078 -31.81819,24.89488 -52.6965,51.0578 -62.73633,78.61524 -7.69838,21.13061 -0.22886,128.66988 10.16992,146.41406 68.03781,69.25425 289.92027,94.46423 346.50586,-18.24414 3.22523,-6.86039 6.83681,-26.7059 5.34375,-29.36133 -0.29116,-0.5178 -1.10425,-12.8165 -1.80664,-27.33203 -2.55228,-52.74293 -5.35564,-73.29125 -12.00781,-88 -11.79512,-26.08033 -37.18829,-51.05071 -77.29687,-76.00977 -25.82439,-16.07018 -29.52859,-19.72967 -31.94532,-31.56445 -1.19599,-5.85684 -5.35446,-70.26729 -5.3789,-83.31445 -0.005,-2.75813 -0.0297,-3.80835 -0.76563,-3.69141 z m 133.37305,573.52148 c -88.59534,93.60968 -269.33936,87.87395 -325.56836,28.82423 -1.73862,-2.05661 -2.97167,-2.73955 -3,-1.66211 -0.10845,4.13745 37.48879,288.9605 39.24609,297.3144 9.94936,47.2977 53.22582,80.3726 113.46875,86.7207 68.68961,7.2383 139.45493,-21.8075 167.63868,-68.8085 9.74734,-16.2553 13.01803,-27.2458 13.9082,-46.7383 0.85239,-18.6652 -3.37322,-272.12447 -4.77344,-286.31837 z m 116.2168,0 -0.98438,8.66602 c -1.37106,12.07784 -5.72793,267.7442 -4.89648,287.3359 2.51733,59.3195 59.7453,106.9187 138.41992,115.1309 79.48012,8.2963 144.22762,-27.5169 156.66792,-86.6563 1.7368,-8.2562 39.3412,-293.05057 39.2579,-297.31441 -0.02,-1.00616 -1.6691,0.0699 -3.6661,2.39063 -137.89047,29.09186 -270.13944,68.86063 -324.79878,-29.55274 z"
           transform="scale(0.17999986)"
           sodipodi:nodetypes="sssccsssssscccssssssssscccssssscccssssccccccccsssccsssssccccccssssccccsssccc" />
        <path
           style="fill:url(#linearGradient2897);fill-opacity:1;stroke-width:0.24"
           d="M 71.929551,19.070584 C 68.926529,18.64138 66.896935,17.48182 67.493462,16.53613 69.601306,13.1945 90.825727,12.963933 90.345818,16.287878 90.022452,18.527582 79.380782,20.135543 71.929551,19.070584 Z m 101.020309,0.02178 c -5.70878,-0.720032 -8.64757,-2.469105 -6.42231,-3.822362 3.23294,-1.966071 16.44157,-1.787001 20.7158,0.280845 4.08468,1.976139 -0.34828,3.83845 -8.97086,3.768708 -2.06944,-0.01674 -4.46463,-0.118974 -5.32263,-0.227191 z"
           id="path2350" />
      </g>
      <g
         id="g2359"
         style="display:inline"
         inkscape:label="Side Wine">
        <path
           id="path2367"
           style="fill:url(#linearGradient2562);fill-opacity:1;stroke-width:1.33333"
           d="m 942.26562,387.85352 c -71.13017,-0.30934 -133.97647,18.49725 -150.03515,50.1875 -6.52462,12.87576 -5.51085,-12.54975 -13.4668,337.45898 -7.46478,328.4059 -7.45912,311.2077 -0.0879,329.457 17.30657,42.8466 66.68441,74.0085 126.41602,79.7774 20.82429,2.0111 41.21594,0.6909 60.8164,-3.9375 38.82791,-9.1689 70.37371,-33.7955 81.05661,-63.2774 4.361,-12.035 5.3952,-19.4063 29.2129,-208.0195 38.2671,-303.03796 40.6202,-321.62599 46.836,-370 7.7211,-60.08951 8.2108,-76.05429 2.6582,-86.60547 -12.767,-24.25977 -42.7127,-41.8663 -91.7754,-53.95703 -30.0883,-7.41479 -61.59815,-10.95338 -91.63089,-11.08398 z m -458.36718,0.32031 c -79.97091,-0.31589 -165.7206,22.12173 -186.31055,64.17187 -7.37432,15.06034 -9.80814,-10.34854 26.67773,278.48828 51.7065,409.32942 46.98861,374.30452 52.31641,388.32622 13.0797,34.4229 54.3364,60.5397 103.58399,65.5703 71.74849,7.329 142.95257,-27.2736 164.1582,-79.7735 7.36634,-18.2371 7.37135,-0.3393 -0.084,-328.91403 -7.98428,-351.88628 -6.91404,-325.6628 -13.81054,-338.43555 -17.97476,-33.29031 -80.26964,-49.17186 -146.53125,-49.43359 z"
           transform="scale(0.17999986)"
           sodipodi:nodetypes="sssssssssssssssssssssss" />
        <path
           id="path2363"
           style="fill:#9141ac;fill-opacity:1;stroke-width:1.33333"
           d="m 481.66797,389.89453 c -51.2401,0.006 -104.60063,9.59455 -142.10352,28.36914 -80.57612,40.33782 -44.58109,94.8832 70.60157,106.98633 13.60978,1.43009 64.89649,0.73868 80.67578,-1.08789 C 613.76432,509.93283 672.55684,449.80678 600,412.5293 570.44105,397.34281 526.87982,389.88895 481.66797,389.89453 Z m 455.40234,0.0859 c -32.40908,0.22829 -63.84931,4.25643 -89.50976,12.41992 -104.36198,33.20121 -55.71335,104.27794 83.35937,121.78906 20.1448,2.53651 82.80398,1.7584 101.15238,-1.25586 100.5089,-16.51148 125.8145,-66.29857 52.8515,-103.98242 -37.1305,-19.17716 -93.83834,-29.35118 -147.85349,-28.9707 z"
           transform="scale(0.17999986)"
           sodipodi:nodetypes="csssscssssss" />
      </g>
      <g
         id="g2843"
         inkscape:label="Clip">
        <path
           style="display:inline;fill:url(#linearGradient2847);fill-opacity:1;stroke-width:0.24"
           d="m 75.149943,42.394148 c -3.997031,-0.425371 -7.362688,-1.599659 -7.775538,-2.712908 -0.10836,-0.292195 -0.324264,-1.935262 -0.479784,-3.651261 -0.155522,-1.715998 -0.345806,-3.546417 -0.422855,-4.067596 l -0.140091,-0.947598 0.751082,0.751084 c 1.670867,1.670862 4.918371,2.344107 11.307183,2.344107 7.686337,0 13.464755,-1.391137 14.689668,-3.536493 0.345585,-0.60527 0.58836,1.730723 0.643456,6.191357 0.03004,2.43229 -0.01303,2.501097 -2.294494,3.66501 -3.029789,1.545683 -11.082029,2.517322 -16.278627,1.964293 z m 97.679917,-0.02831 c -5.5362,-0.577533 -10.39363,-2.373829 -10.46655,-3.870573 -0.0328,-0.67402 -0.0319,-0.704673 0.16168,-5.078578 l 0.15811,-3.573292 0.48432,0.764927 c 1.40296,2.21582 6.74961,3.491603 14.58244,3.47957 6.70898,-0.0103 9.6888,-0.64031 11.38824,-2.407743 l 0.66362,-0.690163 -0.13615,1.199999 c -0.0749,0.66 -0.25852,2.549998 -0.4081,4.199997 -0.14957,1.649999 -0.41631,3.227501 -0.59275,3.505562 -1.25607,1.979466 -8.98369,3.185001 -15.83486,2.470294 z"
           id="path2354"
           inkscape:label="Top Clip"
           sodipodi:nodetypes="sssscsssssssscccssscssss" />
        <path
           style="display:inline;fill:#9141ac;fill-opacity:1;stroke-width:0.24"
           d="m 79.229939,156.16819 c -9.920164,-0.94391 -18.21201,-4.98134 -21.312738,-10.37752 -1.053184,-1.83285 -1.264002,-3.26721 -3.658641,-24.89238 -2.105646,-19.01536 -2.526879,-24.161524 -1.63444,-19.96774 2.595836,12.19843 34.04986,16.19487 54.19741,6.88612 5.97473,-2.76049 9.47121,-6.55069 9.93095,-10.765195 l 0.18998,-1.741549 0.1932,1.394574 c 0.48828,3.52459 1.72938,41.05114 1.41038,42.64539 -1.50239,7.50864 -11.07282,13.87054 -24.416747,16.23094 -3.686529,0.6521 -11.13356,0.94568 -14.899354,0.58736 z m 86.879931,-0.0165 c -7.4811,-0.69733 -15.77181,-3.37701 -20.77981,-6.71633 -1.90778,-1.2721 -5.35761,-4.60739 -6.05804,-5.8569 -2.18035,-3.88957 -2.11417,-2.49278 -1.21997,-25.7492 0.42211,-10.97835 0.85385,-20.536347 0.9594,-21.239981 l 0.19193,-1.279338 0.18696,1.741549 c 0.96499,8.98912 16.32165,15.79111 35.59952,15.76824 15.92471,-0.0189 26.98037,-4.62674 28.52582,-11.88917 0.8885,-4.175251 0.47,0.93287 -1.63562,19.96418 -2.39255,21.62475 -2.60372,23.06212 -3.65746,24.89594 -4.23726,7.37407 -17.66802,11.70743 -32.11273,10.36101 z"
           id="path2845"
           inkscape:label="Bottom Clip"
           sodipodi:nodetypes="sssssscscssssssscssssss" />
      </g>
      <g
         id="g2694"
         inkscape:label="Rim">
        <path
           style="fill:url(#linearGradient2431);fill-opacity:1;stroke:none;stroke-width:0.161721px;stroke-linecap:butt;stroke-linejoin:miter;stroke-opacity:1"
           d="m 77.014767,26.113053 4.45156,56.129214 c 0,0 -29.059677,2.136093 -22.954748,-8.954729 5.035943,-9.148777 13.927773,-13.865396 13.927773,-13.865396 L 69.725002,25.19721 c 2.316152,0.969107 4.773524,1.114209 7.289765,0.915843 z"
           id="path2429"
           sodipodi:nodetypes="ccsccc"
           inkscape:label="Left Rim" />
        <path
           style="fill:url(#linearGradient2440);fill-opacity:1;stroke:none;stroke-width:0.154974px;stroke-linecap:butt;stroke-linejoin:miter;stroke-opacity:1"
           d="m 172.70022,27.15866 -2.70595,54.612097 c 0,0 -27.51702,-1.409718 -20.43152,-11.367262 5.8448,-8.213938 14.76269,-11.697319 14.76269,-11.697319 l 1.64997,-33.299867 c 2.05351,1.210141 4.3405,1.643199 6.72481,1.752351 z"
           id="path2438"
           sodipodi:nodetypes="ccsccc"
           inkscape:label="Right Rim" />
      </g>
    </g>
    <g
       id="g2336"
       inkscape:label="Center"
       style="display:inline"
       transform="matrix(0.46817275,0,0,0.46817275,4.019577,174.80662)">
      <g
         id="g2318"
         inkscape:label="Center Bottle"
         style="display:inline">
        <path
           id="path2326"
           style="display:inline;fill:#909090;fill-opacity:1;stroke-width:1.33333"
           d="m 710.79492,145.64648 c -36.14301,0.10689 -72.13058,6.32617 -81.76953,18.58008 -2.67695,3.4032 -2.72207,4.50127 -1.9668,49.04297 l 0.77344,45.56445 c 39.28954,68.8811 154.91888,41.19622 167.33203,0 l 0.77539,-45.63476 0.77735,-45.63477 -3.21875,-3.82422 C 783.23657,151.54517 746.93793,145.5396 710.79492,145.64648 Z m -81.02148,165.57032 0.88476,47.14258 c 1.18728,63.27386 3.10759,57.82718 -27.82422,78.85351 -52.99577,36.02466 -79.83345,67.03885 -89.66992,103.62109 -2.66092,9.8961 -3.07884,110.56646 -0.54492,131.33204 13.6269,182.61105 371.51994,206.28528 397.76172,-10e-6 2.534,-20.76558 2.11597,-121.43594 -0.54492,-131.33204 -9.90279,-36.82884 -38.87933,-70.0229 -91.33399,-104.625 -28.93069,-19.08432 -27.55649,-15.01789 -26.26172,-77.75781 l 0.97461,-47.22461 c -34.59357,-9.27621 -116.51343,0.32096 -163.4414,-0.01 z M 530.83398,952.16602 530.44531,957.5 c -0.41003,5.64073 16.12379,267.9048 18.32422,290.666 2.60046,26.8987 7.76372,43.169 19.12695,60.2617 24.55086,36.9297 66.49555,61.1809 118.26954,68.3809 25.39802,3.532 65.12849,-0.6291 90.26562,-9.4551 58.80121,-20.6461 92.1852,-61.1302 97.73242,-118.5195 2.2465,-23.2416 18.80785,-285.5955 18.39063,-291.334 l -0.38867,-5.33398 c -98.27381,86.26438 -307.72315,66.30478 -361.33204,0 z"
           transform="scale(0.17999986)"
           sodipodi:nodetypes="ssccccccsccssccsssccccsssssccc" />
        <path
           style="fill:url(#linearGradient2889);fill-opacity:1;stroke-width:0.24"
           d="m 123.8699,33.975499 c -9.43941,-0.929536 -11.79425,-4.313924 -4.32993,-6.222977 7.16639,-1.832853 20.09733,-0.588039 21.2995,2.050422 1.31888,2.894645 -7.62193,5.093055 -16.96957,4.172555 z"
           id="path2320" />
      </g>
      <g
         id="g2200"
         inkscape:label="Center Wine">
        <path
           style="fill:url(#linearGradient2548);fill-opacity:1;stroke-width:0.24"
           d="m 124.1099,244.06753 c -12.38626,-1.55446 -21.36309,-8.9686 -23.01702,-19.01021 -0.41408,-2.51402 -0.11219,2.16365 -3.14615,-48.74746 -1.388406,-23.29798 -2.852588,-47.81396 -3.25374,-54.47996 -0.884167,-14.69234 -0.95008,-18.28997 -0.370934,-20.24578 0.228952,-0.77318 0.466907,-1.35516 0.528789,-1.29328 6.391375,9.89333 64.903395,-2.796384 66.722885,0.6498 0.5992,1.31369 0.7861,4.34679 0.54776,8.88927 -1.06671,20.32962 -6.76418,113.38933 -7.04657,115.09517 -1.63664,9.88628 -10.04877,17.14589 -21.96502,18.95563 -2.05545,0.31216 -7.15735,0.41807 -9,0.18682 z"
           id="path2204"
           sodipodi:nodetypes="sssssccssss" />
        <path
           style="fill:#e01b24;fill-opacity:1;stroke-width:0.24"
           d="M 121.34991,118.46603 C 95.825446,115.855 85.711074,101.72525 103.01518,92.852472 c 6.93932,-3.558179 14.10172,-4.98254 25.05472,-4.98254 9.04023,0 13.77867,0.685685 20.27998,2.934656 17.83374,6.169147 17.71121,18.873582 -0.24,24.884432 -7.3235,2.45222 -18.54806,3.61705 -26.75997,2.77701 z"
           id="path2202" />
      </g>
      <g
         id="g2838"
         inkscape:label="Clip">
        <path
           style="display:inline;fill:#e01b24;fill-opacity:1;stroke-width:0.24"
           d="M 122.3099,185.20996 C 109.19239,184.02102 97.452402,177.1123 94.566491,168.88357 l -0.804429,-2.2937 -0.968752,-22.31998 c -1.003343,-23.11698 -1.080868,-25.7919 -0.723381,-24.95998 0.113445,0.264 0.213854,0.98162 0.22313,1.59471 0.213535,14.11094 31.674751,22.65636 55.112611,14.96956 10.15079,-3.32911 16.35034,-8.97378 16.44107,-14.96956 0.009,-0.61309 0.10968,-1.33071 0.22313,-1.59471 0.35682,-0.83037 0.2797,1.8281 -0.72403,24.95998 l -0.96851,22.31998 -0.80423,2.2937 c -3.81084,10.86881 -20.93153,17.98791 -39.2632,16.32639 z"
           id="path2324"
           inkscape:label="Bottom Clip"
           sodipodi:nodetypes="sscsscscsscss" />
        <path
           style="display:inline;fill:url(#linearGradient2875);fill-opacity:1;stroke-width:0.24"
           d="m 122.93586,59.653059 c -4.91432,-0.678626 -8.89622,-2.312837 -9.48105,-3.891117 -0.10842,-0.292591 -0.27281,-2.475982 -0.36531,-4.85198 l -0.16818,-4.319996 0.79429,0.76336 c 4.83128,4.643106 23.8235,4.637869 28.70688,-0.0079 l 0.7926,-0.754041 -0.16028,4.439293 c -0.20118,5.57186 -0.52336,6.101002 -4.52572,7.432902 -3.55018,1.181426 -11.34548,1.776071 -15.59323,1.189492 z"
           id="path2840"
           inkscape:label="Top Clip"
           sodipodi:nodetypes="ssscsscssss" />
      </g>
      <path
         style="fill:url(#linearGradient2414);fill-opacity:1;stroke:none;stroke-width:0.18px;stroke-linecap:butt;stroke-linejoin:miter;stroke-opacity:1"
         d="m 123.80085,40.213799 v 63.508771 c 0,0 -32.002378,-0.0537 -24.355145,-12.012303 6.308185,-9.864604 16.453245,-14.418124 16.453245,-14.418124 V 38.567507 c 2.45176,1.285799 5.12969,1.656719 7.9019,1.646292 z"
         id="path2405"
         sodipodi:nodetypes="ccsccc"
         inkscape:label="Rim" />
    </g>
  </g>
</svg>
