<?xml version="1.0" encoding="UTF-8"?>
<svg xmlns="http://www.w3.org/2000/svg" height="16px" viewBox="0 0 16 16" width="16px"><g fill="#2e3436"><path d="m 2 3 v 11 h 11 v -4 h -2 v 2 h -7 v -7 h 2 v -2 z m 0 0"/><path d="m 9 2 c -0.550781 0 -1 0.449219 -1 1 s 0.449219 1 1 1 h 3 v 3 c 0 0.550781 0.449219 1 1 1 s 1 -0.449219 1 -1 v -4 c 0 -0.550781 -0.449219 -1 -1 -1 z m 0 0"/><path d="m 13 2 h 1 v 1 h -1 z m 0 0"/><path d="m 12.292969 2.289062 l -4.5 4.46875 c -0.390625 0.390626 -0.390625 1.027344 0 1.414063 c 0.390625 0.394531 1.023437 0.394531 1.414062 0.007813 l 4.5 -4.46875 c 0.390625 -0.390626 0.390625 -1.027344 0 -1.414063 c -0.386719 -0.394531 -1.019531 -0.394531 -1.414062 -0.007813 z m 0 0"/><path d="m 13 7 h 1 v 1 h -1 z m 0 0"/><path d="m 8 2 h 1 v 1 h -1 z m 0 0"/></g></svg>
