<?xml version="1.0" encoding="UTF-8"?>
<svg height="16px" viewBox="0 0 16 16" width="16px" xmlns="http://www.w3.org/2000/svg">
    <g fill="#2e3436">
        <path d="m 9.492188 0.140625 c -0.851563 -0.1601562 -1.722657 -0.1796875 -2.574219 -0.0664062 c -1.703125 0.2343752 -3.328125 1.0078122 -4.601563 2.2929692 c -2.546875 2.566406 -3.050781 6.542968 -1.230468 9.664062 c 1.824218 3.125 5.527343 4.636719 9.015624 3.6875 c 3.492188 -0.953125 5.910157 -4.136719 5.894532 -7.753906 c -0.003906 -0.550782 -0.453125 -0.996094 -1.003906 -0.996094 c -0.550782 0.003906 -0.996094 0.453125 -0.996094 1.007812 c 0.011718 2.71875 -1.792969 5.097657 -4.417969 5.8125 c -2.625 0.714844 -5.394531 -0.414062 -6.761719 -2.765624 c -1.371094 -2.351563 -0.996094 -5.316407 0.917969 -7.246094 c 1.917969 -1.933594 4.878906 -2.335938 7.238281 -0.988282 c 0.480469 0.277344 1.09375 0.109376 1.367188 -0.371093 c 0.273437 -0.480469 0.105468 -1.089844 -0.375 -1.363281 c -0.785156 -0.449219 -1.621094 -0.753907 -2.472656 -0.914063 z m 0 0"/>
        <path d="m 15.753906 3.660156 c 0.175782 -0.199218 0.261719 -0.460937 0.246094 -0.726562 c -0.019531 -0.265625 -0.140625 -0.511719 -0.339844 -0.6875 c -0.199218 -0.175782 -0.460937 -0.261719 -0.726562 -0.246094 c -0.265625 0.019531 -0.511719 0.140625 -0.6875 0.339844 l -6.296875 7.195312 l -2.242188 -2.242187 c -0.390625 -0.390625 -1.023437 -0.390625 -1.414062 0 c -0.1875 0.1875 -0.292969 0.441406 -0.292969 0.707031 s 0.105469 0.519531 0.292969 0.707031 l 3 3 c 0.195312 0.195313 0.464843 0.304688 0.742187 0.292969 c 0.273438 -0.007812 0.535156 -0.132812 0.71875 -0.339844 z m 0 0"/>
    </g>
</svg>
